<?xml version="1.0" encoding="utf-8" standalone="no"?>
<!DOCTYPE svg PUBLIC "-//W3C//DTD SVG 1.1//EN"
  "http://www.w3.org/Graphics/SVG/1.1/DTD/svg11.dtd">
<!-- Created with matplotlib (https://matplotlib.org/) -->
<svg height="345.6pt" version="1.1" viewBox="0 0 460.8 345.6" width="460.8pt" xmlns="http://www.w3.org/2000/svg" xmlns:xlink="http://www.w3.org/1999/xlink">
 <defs>
  <style type="text/css">
*{stroke-linecap:butt;stroke-linejoin:round;}
  </style>
 </defs>
 <g id="figure_1">
  <g id="patch_1">
   <path d="M 0 345.6 
L 460.8 345.6 
L 460.8 0 
L 0 0 
z
" style="fill:#ffffff;"/>
  </g>
  <g id="axes_1">
   <g id="patch_2">
    <path d="M 45.57 156.135249 
L 232.04 156.135249 
L 232.04 51.84 
L 45.57 51.84 
z
" style="fill:#ffffff;"/>
   </g>
   <g id="patch_3">
    <path clip-path="url(#pfba2a2c5fc)" d="M 45.94294 156.135249 
L 48.92646 156.135249 
L 48.92646 86.605083 
L 45.94294 86.605083 
z
" style="fill:#808080;"/>
   </g>
   <g id="patch_4">
    <path clip-path="url(#pfba2a2c5fc)" d="M 49.67234 156.135249 
L 52.65586 156.135249 
L 52.65586 56.80644 
L 49.67234 56.80644 
z
" style="fill:#808080;"/>
   </g>
   <g id="patch_5">
    <path clip-path="url(#pfba2a2c5fc)" d="M 53.40174 156.135249 
L 56.38526 156.135249 
L 56.38526 116.403726 
L 53.40174 116.403726 
z
" style="fill:#808080;"/>
   </g>
   <g id="patch_6">
    <path clip-path="url(#pfba2a2c5fc)" d="M 57.13114 156.135249 
L 60.11466 156.135249 
L 60.11466 146.202368 
L 57.13114 146.202368 
z
" style="fill:#808080;"/>
   </g>
   <g id="patch_7">
    <path clip-path="url(#pfba2a2c5fc)" d="M 60.86054 156.135249 
L 63.84406 156.135249 
L 63.84406 116.403726 
L 60.86054 116.403726 
z
" style="fill:#808080;"/>
   </g>
   <g id="patch_8">
    <path clip-path="url(#pfba2a2c5fc)" d="M 64.58994 156.135249 
L 67.57346 156.135249 
L 67.57346 136.269487 
L 64.58994 136.269487 
z
" style="fill:#808080;"/>
   </g>
   <g id="patch_9">
    <path clip-path="url(#pfba2a2c5fc)" d="M 68.31934 156.135249 
L 71.30286 156.135249 
L 71.30286 126.336607 
L 68.31934 126.336607 
z
" style="fill:#808080;"/>
   </g>
   <g id="patch_10">
    <path clip-path="url(#pfba2a2c5fc)" d="M 72.04874 156.135249 
L 75.03226 156.135249 
L 75.03226 146.202368 
L 72.04874 146.202368 
z
" style="fill:#808080;"/>
   </g>
   <g id="patch_11">
    <path clip-path="url(#pfba2a2c5fc)" d="M 75.77814 156.135249 
L 78.76166 156.135249 
L 78.76166 156.135249 
L 75.77814 156.135249 
z
" style="fill:#808080;"/>
   </g>
   <g id="patch_12">
    <path clip-path="url(#pfba2a2c5fc)" d="M 79.50754 156.135249 
L 82.49106 156.135249 
L 82.49106 156.135249 
L 79.50754 156.135249 
z
" style="fill:#808080;"/>
   </g>
   <g id="patch_13">
    <path clip-path="url(#pfba2a2c5fc)" d="M 83.23694 156.135249 
L 86.22046 156.135249 
L 86.22046 126.336607 
L 83.23694 126.336607 
z
" style="fill:#808080;"/>
   </g>
   <g id="patch_14">
    <path clip-path="url(#pfba2a2c5fc)" d="M 86.96634 156.135249 
L 89.94986 156.135249 
L 89.94986 146.202368 
L 86.96634 146.202368 
z
" style="fill:#808080;"/>
   </g>
   <g id="patch_15">
    <path clip-path="url(#pfba2a2c5fc)" d="M 90.69574 156.135249 
L 93.67926 156.135249 
L 93.67926 136.269487 
L 90.69574 136.269487 
z
" style="fill:#808080;"/>
   </g>
   <g id="patch_16">
    <path clip-path="url(#pfba2a2c5fc)" d="M 94.42514 156.135249 
L 97.40866 156.135249 
L 97.40866 136.269487 
L 94.42514 136.269487 
z
" style="fill:#808080;"/>
   </g>
   <g id="patch_17">
    <path clip-path="url(#pfba2a2c5fc)" d="M 98.15454 156.135249 
L 101.13806 156.135249 
L 101.13806 156.135249 
L 98.15454 156.135249 
z
" style="fill:#808080;"/>
   </g>
   <g id="patch_18">
    <path clip-path="url(#pfba2a2c5fc)" d="M 101.88394 156.135249 
L 104.86746 156.135249 
L 104.86746 146.202368 
L 101.88394 146.202368 
z
" style="fill:#808080;"/>
   </g>
   <g id="patch_19">
    <path clip-path="url(#pfba2a2c5fc)" d="M 105.61334 156.135249 
L 108.59686 156.135249 
L 108.59686 156.135249 
L 105.61334 156.135249 
z
" style="fill:#808080;"/>
   </g>
   <g id="patch_20">
    <path clip-path="url(#pfba2a2c5fc)" d="M 109.34274 156.135249 
L 112.32626 156.135249 
L 112.32626 156.135249 
L 109.34274 156.135249 
z
" style="fill:#808080;"/>
   </g>
   <g id="patch_21">
    <path clip-path="url(#pfba2a2c5fc)" d="M 113.07214 156.135249 
L 116.05566 156.135249 
L 116.05566 156.135249 
L 113.07214 156.135249 
z
" style="fill:#808080;"/>
   </g>
   <g id="patch_22">
    <path clip-path="url(#pfba2a2c5fc)" d="M 116.80154 156.135249 
L 119.78506 156.135249 
L 119.78506 156.135249 
L 116.80154 156.135249 
z
" style="fill:#808080;"/>
   </g>
   <g id="patch_23">
    <path clip-path="url(#pfba2a2c5fc)" d="M 120.53094 156.135249 
L 123.51446 156.135249 
L 123.51446 156.135249 
L 120.53094 156.135249 
z
" style="fill:#808080;"/>
   </g>
   <g id="patch_24">
    <path clip-path="url(#pfba2a2c5fc)" d="M 124.26034 156.135249 
L 127.24386 156.135249 
L 127.24386 156.135249 
L 124.26034 156.135249 
z
" style="fill:#808080;"/>
   </g>
   <g id="patch_25">
    <path clip-path="url(#pfba2a2c5fc)" d="M 127.98974 156.135249 
L 130.97326 156.135249 
L 130.97326 156.135249 
L 127.98974 156.135249 
z
" style="fill:#808080;"/>
   </g>
   <g id="patch_26">
    <path clip-path="url(#pfba2a2c5fc)" d="M 131.71914 156.135249 
L 134.70266 156.135249 
L 134.70266 146.202368 
L 131.71914 146.202368 
z
" style="fill:#808080;"/>
   </g>
   <g id="patch_27">
    <path clip-path="url(#pfba2a2c5fc)" d="M 135.44854 156.135249 
L 138.43206 156.135249 
L 138.43206 156.135249 
L 135.44854 156.135249 
z
" style="fill:#808080;"/>
   </g>
   <g id="patch_28">
    <path clip-path="url(#pfba2a2c5fc)" d="M 139.17794 156.135249 
L 142.16146 156.135249 
L 142.16146 156.135249 
L 139.17794 156.135249 
z
" style="fill:#808080;"/>
   </g>
   <g id="patch_29">
    <path clip-path="url(#pfba2a2c5fc)" d="M 142.90734 156.135249 
L 145.89086 156.135249 
L 145.89086 156.135249 
L 142.90734 156.135249 
z
" style="fill:#808080;"/>
   </g>
   <g id="patch_30">
    <path clip-path="url(#pfba2a2c5fc)" d="M 146.63674 156.135249 
L 149.62026 156.135249 
L 149.62026 156.135249 
L 146.63674 156.135249 
z
" style="fill:#808080;"/>
   </g>
   <g id="patch_31">
    <path clip-path="url(#pfba2a2c5fc)" d="M 150.36614 156.135249 
L 153.34966 156.135249 
L 153.34966 156.135249 
L 150.36614 156.135249 
z
" style="fill:#808080;"/>
   </g>
   <g id="patch_32">
    <path clip-path="url(#pfba2a2c5fc)" d="M 154.09554 156.135249 
L 157.07906 156.135249 
L 157.07906 156.135249 
L 154.09554 156.135249 
z
" style="fill:#808080;"/>
   </g>
   <g id="patch_33">
    <path clip-path="url(#pfba2a2c5fc)" d="M 157.82494 156.135249 
L 160.80846 156.135249 
L 160.80846 156.135249 
L 157.82494 156.135249 
z
" style="fill:#808080;"/>
   </g>
   <g id="patch_34">
    <path clip-path="url(#pfba2a2c5fc)" d="M 161.55434 156.135249 
L 164.53786 156.135249 
L 164.53786 156.135249 
L 161.55434 156.135249 
z
" style="fill:#808080;"/>
   </g>
   <g id="patch_35">
    <path clip-path="url(#pfba2a2c5fc)" d="M 165.28374 156.135249 
L 168.26726 156.135249 
L 168.26726 146.202368 
L 165.28374 146.202368 
z
" style="fill:#808080;"/>
   </g>
   <g id="patch_36">
    <path clip-path="url(#pfba2a2c5fc)" d="M 169.01314 156.135249 
L 171.99666 156.135249 
L 171.99666 156.135249 
L 169.01314 156.135249 
z
" style="fill:#808080;"/>
   </g>
   <g id="patch_37">
    <path clip-path="url(#pfba2a2c5fc)" d="M 172.74254 156.135249 
L 175.72606 156.135249 
L 175.72606 156.135249 
L 172.74254 156.135249 
z
" style="fill:#808080;"/>
   </g>
   <g id="patch_38">
    <path clip-path="url(#pfba2a2c5fc)" d="M 176.47194 156.135249 
L 179.45546 156.135249 
L 179.45546 146.202368 
L 176.47194 146.202368 
z
" style="fill:#808080;"/>
   </g>
   <g id="patch_39">
    <path clip-path="url(#pfba2a2c5fc)" d="M 180.20134 156.135249 
L 183.18486 156.135249 
L 183.18486 146.202368 
L 180.20134 146.202368 
z
" style="fill:#808080;"/>
   </g>
   <g id="patch_40">
    <path clip-path="url(#pfba2a2c5fc)" d="M 183.93074 156.135249 
L 186.91426 156.135249 
L 186.91426 146.202368 
L 183.93074 146.202368 
z
" style="fill:#808080;"/>
   </g>
   <g id="patch_41">
    <path clip-path="url(#pfba2a2c5fc)" d="M 187.66014 156.135249 
L 190.64366 156.135249 
L 190.64366 156.135249 
L 187.66014 156.135249 
z
" style="fill:#808080;"/>
   </g>
   <g id="patch_42">
    <path clip-path="url(#pfba2a2c5fc)" d="M 191.38954 156.135249 
L 194.37306 156.135249 
L 194.37306 156.135249 
L 191.38954 156.135249 
z
" style="fill:#808080;"/>
   </g>
   <g id="patch_43">
    <path clip-path="url(#pfba2a2c5fc)" d="M 195.11894 156.135249 
L 198.10246 156.135249 
L 198.10246 146.202368 
L 195.11894 146.202368 
z
" style="fill:#808080;"/>
   </g>
   <g id="patch_44">
    <path clip-path="url(#pfba2a2c5fc)" d="M 198.84834 156.135249 
L 201.83186 156.135249 
L 201.83186 156.135249 
L 198.84834 156.135249 
z
" style="fill:#808080;"/>
   </g>
   <g id="patch_45">
    <path clip-path="url(#pfba2a2c5fc)" d="M 202.57774 156.135249 
L 205.56126 156.135249 
L 205.56126 146.202368 
L 202.57774 146.202368 
z
" style="fill:#808080;"/>
   </g>
   <g id="patch_46">
    <path clip-path="url(#pfba2a2c5fc)" d="M 206.30714 156.135249 
L 209.29066 156.135249 
L 209.29066 156.135249 
L 206.30714 156.135249 
z
" style="fill:#808080;"/>
   </g>
   <g id="patch_47">
    <path clip-path="url(#pfba2a2c5fc)" d="M 210.03654 156.135249 
L 213.02006 156.135249 
L 213.02006 156.135249 
L 210.03654 156.135249 
z
" style="fill:#808080;"/>
   </g>
   <g id="patch_48">
    <path clip-path="url(#pfba2a2c5fc)" d="M 213.76594 156.135249 
L 216.74946 156.135249 
L 216.74946 156.135249 
L 213.76594 156.135249 
z
" style="fill:#808080;"/>
   </g>
   <g id="patch_49">
    <path clip-path="url(#pfba2a2c5fc)" d="M 217.49534 156.135249 
L 220.47886 156.135249 
L 220.47886 156.135249 
L 217.49534 156.135249 
z
" style="fill:#808080;"/>
   </g>
   <g id="patch_50">
    <path clip-path="url(#pfba2a2c5fc)" d="M 221.22474 156.135249 
L 224.20826 156.135249 
L 224.20826 146.202368 
L 221.22474 146.202368 
z
" style="fill:#808080;"/>
   </g>
   <g id="patch_51">
    <path clip-path="url(#pfba2a2c5fc)" d="M 224.95414 156.135249 
L 227.93766 156.135249 
L 227.93766 156.135249 
L 224.95414 156.135249 
z
" style="fill:#808080;"/>
   </g>
   <g id="patch_52">
    <path clip-path="url(#pfba2a2c5fc)" d="M 228.68354 156.135249 
L 231.66706 156.135249 
L 231.66706 156.135249 
L 228.68354 156.135249 
z
" style="fill:#808080;"/>
   </g>
   <g id="patch_53">
    <path clip-path="url(#pfba2a2c5fc)" d="M 46.099291 156.135249 
L 48.931368 156.135249 
L 48.931368 86.605083 
L 46.099291 86.605083 
z
" style="fill:#808080;"/>
   </g>
   <g id="patch_54">
    <path clip-path="url(#pfba2a2c5fc)" d="M 49.639387 156.135249 
L 52.471464 156.135249 
L 52.471464 56.80644 
L 49.639387 56.80644 
z
" style="fill:#808080;"/>
   </g>
   <g id="patch_55">
    <path clip-path="url(#pfba2a2c5fc)" d="M 53.179483 156.135249 
L 56.011559 156.135249 
L 56.011559 116.403726 
L 53.179483 116.403726 
z
" style="fill:#808080;"/>
   </g>
   <g id="patch_56">
    <path clip-path="url(#pfba2a2c5fc)" d="M 56.719578 156.135249 
L 59.551655 156.135249 
L 59.551655 156.135249 
L 56.719578 156.135249 
z
" style="fill:#808080;"/>
   </g>
   <g id="patch_57">
    <path clip-path="url(#pfba2a2c5fc)" d="M 60.259674 156.135249 
L 63.091751 156.135249 
L 63.091751 106.470845 
L 60.259674 106.470845 
z
" style="fill:#808080;"/>
   </g>
   <g id="patch_58">
    <path clip-path="url(#pfba2a2c5fc)" d="M 63.79977 156.135249 
L 66.631846 156.135249 
L 66.631846 136.269487 
L 63.79977 136.269487 
z
" style="fill:#808080;"/>
   </g>
   <g id="patch_59">
    <path clip-path="url(#pfba2a2c5fc)" d="M 67.339865 156.135249 
L 70.171942 156.135249 
L 70.171942 126.336607 
L 67.339865 126.336607 
z
" style="fill:#808080;"/>
   </g>
   <g id="patch_60">
    <path clip-path="url(#pfba2a2c5fc)" d="M 70.879961 156.135249 
L 73.712037 156.135249 
L 73.712037 146.202368 
L 70.879961 146.202368 
z
" style="fill:#808080;"/>
   </g>
   <g id="patch_61">
    <path clip-path="url(#pfba2a2c5fc)" d="M 74.420057 156.135249 
L 77.252133 156.135249 
L 77.252133 156.135249 
L 74.420057 156.135249 
z
" style="fill:#808080;"/>
   </g>
   <g id="patch_62">
    <path clip-path="url(#pfba2a2c5fc)" d="M 77.960152 156.135249 
L 80.792229 156.135249 
L 80.792229 156.135249 
L 77.960152 156.135249 
z
" style="fill:#808080;"/>
   </g>
   <g id="patch_63">
    <path clip-path="url(#pfba2a2c5fc)" d="M 81.500248 156.135249 
L 84.332324 156.135249 
L 84.332324 146.202368 
L 81.500248 146.202368 
z
" style="fill:#808080;"/>
   </g>
   <g id="patch_64">
    <path clip-path="url(#pfba2a2c5fc)" d="M 85.040344 156.135249 
L 87.87242 156.135249 
L 87.87242 126.336607 
L 85.040344 126.336607 
z
" style="fill:#808080;"/>
   </g>
   <g id="patch_65">
    <path clip-path="url(#pfba2a2c5fc)" d="M 88.580439 156.135249 
L 91.412516 156.135249 
L 91.412516 146.202368 
L 88.580439 146.202368 
z
" style="fill:#808080;"/>
   </g>
   <g id="patch_66">
    <path clip-path="url(#pfba2a2c5fc)" d="M 92.120535 156.135249 
L 94.952611 156.135249 
L 94.952611 126.336607 
L 92.120535 126.336607 
z
" style="fill:#808080;"/>
   </g>
   <g id="patch_67">
    <path clip-path="url(#pfba2a2c5fc)" d="M 95.660631 156.135249 
L 98.492707 156.135249 
L 98.492707 156.135249 
L 95.660631 156.135249 
z
" style="fill:#808080;"/>
   </g>
   <g id="patch_68">
    <path clip-path="url(#pfba2a2c5fc)" d="M 99.200726 156.135249 
L 102.032803 156.135249 
L 102.032803 146.202368 
L 99.200726 146.202368 
z
" style="fill:#808080;"/>
   </g>
   <g id="patch_69">
    <path clip-path="url(#pfba2a2c5fc)" d="M 102.740822 156.135249 
L 105.572898 156.135249 
L 105.572898 156.135249 
L 102.740822 156.135249 
z
" style="fill:#808080;"/>
   </g>
   <g id="patch_70">
    <path clip-path="url(#pfba2a2c5fc)" d="M 106.280918 156.135249 
L 109.112994 156.135249 
L 109.112994 156.135249 
L 106.280918 156.135249 
z
" style="fill:#808080;"/>
   </g>
   <g id="patch_71">
    <path clip-path="url(#pfba2a2c5fc)" d="M 109.821013 156.135249 
L 112.65309 156.135249 
L 112.65309 156.135249 
L 109.821013 156.135249 
z
" style="fill:#808080;"/>
   </g>
   <g id="patch_72">
    <path clip-path="url(#pfba2a2c5fc)" d="M 113.361109 156.135249 
L 116.193185 156.135249 
L 116.193185 156.135249 
L 113.361109 156.135249 
z
" style="fill:#808080;"/>
   </g>
   <g id="patch_73">
    <path clip-path="url(#pfba2a2c5fc)" d="M 116.901204 156.135249 
L 119.733281 156.135249 
L 119.733281 156.135249 
L 116.901204 156.135249 
z
" style="fill:#808080;"/>
   </g>
   <g id="patch_74">
    <path clip-path="url(#pfba2a2c5fc)" d="M 120.4413 156.135249 
L 123.273377 156.135249 
L 123.273377 156.135249 
L 120.4413 156.135249 
z
" style="fill:#808080;"/>
   </g>
   <g id="patch_75">
    <path clip-path="url(#pfba2a2c5fc)" d="M 123.981396 156.135249 
L 126.813472 156.135249 
L 126.813472 156.135249 
L 123.981396 156.135249 
z
" style="fill:#808080;"/>
   </g>
   <g id="patch_76">
    <path clip-path="url(#pfba2a2c5fc)" d="M 127.521491 156.135249 
L 130.353568 156.135249 
L 130.353568 156.135249 
L 127.521491 156.135249 
z
" style="fill:#808080;"/>
   </g>
   <g id="patch_77">
    <path clip-path="url(#pfba2a2c5fc)" d="M 131.061587 156.135249 
L 133.893664 156.135249 
L 133.893664 146.202368 
L 131.061587 146.202368 
z
" style="fill:#808080;"/>
   </g>
   <g id="patch_78">
    <path clip-path="url(#pfba2a2c5fc)" d="M 134.601683 156.135249 
L 137.433759 156.135249 
L 137.433759 156.135249 
L 134.601683 156.135249 
z
" style="fill:#808080;"/>
   </g>
   <g id="patch_79">
    <path clip-path="url(#pfba2a2c5fc)" d="M 138.141778 156.135249 
L 140.973855 156.135249 
L 140.973855 156.135249 
L 138.141778 156.135249 
z
" style="fill:#808080;"/>
   </g>
   <g id="patch_80">
    <path clip-path="url(#pfba2a2c5fc)" d="M 141.681874 156.135249 
L 144.513951 156.135249 
L 144.513951 156.135249 
L 141.681874 156.135249 
z
" style="fill:#808080;"/>
   </g>
   <g id="patch_81">
    <path clip-path="url(#pfba2a2c5fc)" d="M 145.22197 156.135249 
L 148.054046 156.135249 
L 148.054046 156.135249 
L 145.22197 156.135249 
z
" style="fill:#808080;"/>
   </g>
   <g id="patch_82">
    <path clip-path="url(#pfba2a2c5fc)" d="M 148.762065 156.135249 
L 151.594142 156.135249 
L 151.594142 156.135249 
L 148.762065 156.135249 
z
" style="fill:#808080;"/>
   </g>
   <g id="patch_83">
    <path clip-path="url(#pfba2a2c5fc)" d="M 152.302161 156.135249 
L 155.134238 156.135249 
L 155.134238 156.135249 
L 152.302161 156.135249 
z
" style="fill:#808080;"/>
   </g>
   <g id="patch_84">
    <path clip-path="url(#pfba2a2c5fc)" d="M 155.842257 156.135249 
L 158.674333 156.135249 
L 158.674333 156.135249 
L 155.842257 156.135249 
z
" style="fill:#808080;"/>
   </g>
   <g id="patch_85">
    <path clip-path="url(#pfba2a2c5fc)" d="M 159.382352 156.135249 
L 162.214429 156.135249 
L 162.214429 156.135249 
L 159.382352 156.135249 
z
" style="fill:#808080;"/>
   </g>
   <g id="patch_86">
    <path clip-path="url(#pfba2a2c5fc)" d="M 162.922448 156.135249 
L 165.754525 156.135249 
L 165.754525 156.135249 
L 162.922448 156.135249 
z
" style="fill:#808080;"/>
   </g>
   <g id="patch_87">
    <path clip-path="url(#pfba2a2c5fc)" d="M 166.462544 156.135249 
L 169.29462 156.135249 
L 169.29462 146.202368 
L 166.462544 146.202368 
z
" style="fill:#808080;"/>
   </g>
   <g id="patch_88">
    <path clip-path="url(#pfba2a2c5fc)" d="M 170.002639 156.135249 
L 172.834716 156.135249 
L 172.834716 156.135249 
L 170.002639 156.135249 
z
" style="fill:#808080;"/>
   </g>
   <g id="patch_89">
    <path clip-path="url(#pfba2a2c5fc)" d="M 173.542735 156.135249 
L 176.374812 156.135249 
L 176.374812 146.202368 
L 173.542735 146.202368 
z
" style="fill:#808080;"/>
   </g>
   <g id="patch_90">
    <path clip-path="url(#pfba2a2c5fc)" d="M 177.082831 156.135249 
L 179.914907 156.135249 
L 179.914907 156.135249 
L 177.082831 156.135249 
z
" style="fill:#808080;"/>
   </g>
   <g id="patch_91">
    <path clip-path="url(#pfba2a2c5fc)" d="M 180.622926 156.135249 
L 183.455003 156.135249 
L 183.455003 146.202368 
L 180.622926 146.202368 
z
" style="fill:#808080;"/>
   </g>
   <g id="patch_92">
    <path clip-path="url(#pfba2a2c5fc)" d="M 184.163022 156.135249 
L 186.995098 156.135249 
L 186.995098 146.202368 
L 184.163022 146.202368 
z
" style="fill:#808080;"/>
   </g>
   <g id="patch_93">
    <path clip-path="url(#pfba2a2c5fc)" d="M 187.703118 156.135249 
L 190.535194 156.135249 
L 190.535194 156.135249 
L 187.703118 156.135249 
z
" style="fill:#808080;"/>
   </g>
   <g id="patch_94">
    <path clip-path="url(#pfba2a2c5fc)" d="M 191.243213 156.135249 
L 194.07529 156.135249 
L 194.07529 156.135249 
L 191.243213 156.135249 
z
" style="fill:#808080;"/>
   </g>
   <g id="patch_95">
    <path clip-path="url(#pfba2a2c5fc)" d="M 194.783309 156.135249 
L 197.615385 156.135249 
L 197.615385 146.202368 
L 194.783309 146.202368 
z
" style="fill:#808080;"/>
   </g>
   <g id="patch_96">
    <path clip-path="url(#pfba2a2c5fc)" d="M 198.323405 156.135249 
L 201.155481 156.135249 
L 201.155481 156.135249 
L 198.323405 156.135249 
z
" style="fill:#808080;"/>
   </g>
   <g id="patch_97">
    <path clip-path="url(#pfba2a2c5fc)" d="M 201.8635 156.135249 
L 204.695577 156.135249 
L 204.695577 156.135249 
L 201.8635 156.135249 
z
" style="fill:#808080;"/>
   </g>
   <g id="patch_98">
    <path clip-path="url(#pfba2a2c5fc)" d="M 205.403596 156.135249 
L 208.235672 156.135249 
L 208.235672 146.202368 
L 205.403596 146.202368 
z
" style="fill:#808080;"/>
   </g>
   <g id="patch_99">
    <path clip-path="url(#pfba2a2c5fc)" d="M 208.943692 156.135249 
L 211.775768 156.135249 
L 211.775768 156.135249 
L 208.943692 156.135249 
z
" style="fill:#808080;"/>
   </g>
   <g id="patch_100">
    <path clip-path="url(#pfba2a2c5fc)" d="M 212.483787 156.135249 
L 215.315864 156.135249 
L 215.315864 156.135249 
L 212.483787 156.135249 
z
" style="fill:#808080;"/>
   </g>
   <g id="patch_101">
    <path clip-path="url(#pfba2a2c5fc)" d="M 216.023883 156.135249 
L 218.855959 156.135249 
L 218.855959 156.135249 
L 216.023883 156.135249 
z
" style="fill:#808080;"/>
   </g>
   <g id="patch_102">
    <path clip-path="url(#pfba2a2c5fc)" d="M 219.563979 156.135249 
L 222.396055 156.135249 
L 222.396055 146.202368 
L 219.563979 146.202368 
z
" style="fill:#808080;"/>
   </g>
   <g id="matplotlib.axis_1">
    <g id="xtick_1">
     <g id="line2d_1">
      <defs>
       <path d="M 0 0 
L 0 3.5 
" id="m6b6098f0be" style="stroke:#000000;stroke-width:0.8;"/>
      </defs>
      <g>
       <use style="stroke:#000000;stroke-width:0.8;" x="45.57" xlink:href="#m6b6098f0be" y="157.135249"/>
      </g>
     </g>
     <g id="text_1">
      <!-- 0 -->
      <defs>
       <path d="M 31.78125 66.40625 
Q 24.171875 66.40625 20.328125 58.90625 
Q 16.5 51.421875 16.5 36.375 
Q 16.5 21.390625 20.328125 13.890625 
Q 24.171875 6.390625 31.78125 6.390625 
Q 39.453125 6.390625 43.28125 13.890625 
Q 47.125 21.390625 47.125 36.375 
Q 47.125 51.421875 43.28125 58.90625 
Q 39.453125 66.40625 31.78125 66.40625 
z
M 31.78125 74.21875 
Q 44.046875 74.21875 50.515625 64.515625 
Q 56.984375 54.828125 56.984375 36.375 
Q 56.984375 17.96875 50.515625 8.265625 
Q 44.046875 -1.421875 31.78125 -1.421875 
Q 19.53125 -1.421875 13.0625 8.265625 
Q 6.59375 17.96875 6.59375 36.375 
Q 6.59375 54.828125 13.0625 64.515625 
Q 19.53125 74.21875 31.78125 74.21875 
z
" id="DejaVuSans-48"/>
      </defs>
      <g transform="translate(42.38875 171.733687)scale(0.1 -0.1)">
       <use xlink:href="#DejaVuSans-48"/>
      </g>
     </g>
    </g>
    <g id="xtick_2">
     <g id="line2d_2">
      <g>
       <use style="stroke:#000000;stroke-width:0.8;" x="82.864" xlink:href="#m6b6098f0be" y="157.135249"/>
      </g>
     </g>
     <g id="text_2">
      <!-- 1 -->
      <defs>
       <path d="M 12.40625 8.296875 
L 28.515625 8.296875 
L 28.515625 63.921875 
L 10.984375 60.40625 
L 10.984375 69.390625 
L 28.421875 72.90625 
L 38.28125 72.90625 
L 38.28125 8.296875 
L 54.390625 8.296875 
L 54.390625 0 
L 12.40625 0 
z
" id="DejaVuSans-49"/>
      </defs>
      <g transform="translate(79.68275 171.733687)scale(0.1 -0.1)">
       <use xlink:href="#DejaVuSans-49"/>
      </g>
     </g>
    </g>
    <g id="xtick_3">
     <g id="line2d_3">
      <g>
       <use style="stroke:#000000;stroke-width:0.8;" x="120.158" xlink:href="#m6b6098f0be" y="157.135249"/>
      </g>
     </g>
     <g id="text_3">
      <!-- 2 -->
      <defs>
       <path d="M 19.1875 8.296875 
L 53.609375 8.296875 
L 53.609375 0 
L 7.328125 0 
L 7.328125 8.296875 
Q 12.9375 14.109375 22.625 23.890625 
Q 32.328125 33.6875 34.8125 36.53125 
Q 39.546875 41.84375 41.421875 45.53125 
Q 43.3125 49.21875 43.3125 52.78125 
Q 43.3125 58.59375 39.234375 62.25 
Q 35.15625 65.921875 28.609375 65.921875 
Q 23.96875 65.921875 18.8125 64.3125 
Q 13.671875 62.703125 7.8125 59.421875 
L 7.8125 69.390625 
Q 13.765625 71.78125 18.9375 73 
Q 24.125 74.21875 28.421875 74.21875 
Q 39.75 74.21875 46.484375 68.546875 
Q 53.21875 62.890625 53.21875 53.421875 
Q 53.21875 48.921875 51.53125 44.890625 
Q 49.859375 40.875 45.40625 35.40625 
Q 44.1875 33.984375 37.640625 27.21875 
Q 31.109375 20.453125 19.1875 8.296875 
z
" id="DejaVuSans-50"/>
      </defs>
      <g transform="translate(116.97675 171.733687)scale(0.1 -0.1)">
       <use xlink:href="#DejaVuSans-50"/>
      </g>
     </g>
    </g>
    <g id="xtick_4">
     <g id="line2d_4">
      <g>
       <use style="stroke:#000000;stroke-width:0.8;" x="157.452" xlink:href="#m6b6098f0be" y="157.135249"/>
      </g>
     </g>
     <g id="text_4">
      <!-- 3 -->
      <defs>
       <path d="M 40.578125 39.3125 
Q 47.65625 37.796875 51.625 33 
Q 55.609375 28.21875 55.609375 21.1875 
Q 55.609375 10.40625 48.1875 4.484375 
Q 40.765625 -1.421875 27.09375 -1.421875 
Q 22.515625 -1.421875 17.65625 -0.515625 
Q 12.796875 0.390625 7.625 2.203125 
L 7.625 11.71875 
Q 11.71875 9.328125 16.59375 8.109375 
Q 21.484375 6.890625 26.8125 6.890625 
Q 36.078125 6.890625 40.9375 10.546875 
Q 45.796875 14.203125 45.796875 21.1875 
Q 45.796875 27.640625 41.28125 31.265625 
Q 36.765625 34.90625 28.71875 34.90625 
L 20.21875 34.90625 
L 20.21875 43.015625 
L 29.109375 43.015625 
Q 36.375 43.015625 40.234375 45.921875 
Q 44.09375 48.828125 44.09375 54.296875 
Q 44.09375 59.90625 40.109375 62.90625 
Q 36.140625 65.921875 28.71875 65.921875 
Q 24.65625 65.921875 20.015625 65.03125 
Q 15.375 64.15625 9.8125 62.3125 
L 9.8125 71.09375 
Q 15.4375 72.65625 20.34375 73.4375 
Q 25.25 74.21875 29.59375 74.21875 
Q 40.828125 74.21875 47.359375 69.109375 
Q 53.90625 64.015625 53.90625 55.328125 
Q 53.90625 49.265625 50.4375 45.09375 
Q 46.96875 40.921875 40.578125 39.3125 
z
" id="DejaVuSans-51"/>
      </defs>
      <g transform="translate(154.27075 171.733687)scale(0.1 -0.1)">
       <use xlink:href="#DejaVuSans-51"/>
      </g>
     </g>
    </g>
    <g id="xtick_5">
     <g id="line2d_5">
      <g>
       <use style="stroke:#000000;stroke-width:0.8;" x="194.746" xlink:href="#m6b6098f0be" y="157.135249"/>
      </g>
     </g>
     <g id="text_5">
      <!-- 4 -->
      <defs>
       <path d="M 37.796875 64.3125 
L 12.890625 25.390625 
L 37.796875 25.390625 
z
M 35.203125 72.90625 
L 47.609375 72.90625 
L 47.609375 25.390625 
L 58.015625 25.390625 
L 58.015625 17.1875 
L 47.609375 17.1875 
L 47.609375 0 
L 37.796875 0 
L 37.796875 17.1875 
L 4.890625 17.1875 
L 4.890625 26.703125 
z
" id="DejaVuSans-52"/>
      </defs>
      <g transform="translate(191.56475 171.733687)scale(0.1 -0.1)">
       <use xlink:href="#DejaVuSans-52"/>
      </g>
     </g>
    </g>
    <g id="xtick_6">
     <g id="line2d_6">
      <g>
       <use style="stroke:#000000;stroke-width:0.8;" x="232.04" xlink:href="#m6b6098f0be" y="157.135249"/>
      </g>
     </g>
     <g id="text_6">
      <!-- 5 -->
      <defs>
       <path d="M 10.796875 72.90625 
L 49.515625 72.90625 
L 49.515625 64.59375 
L 19.828125 64.59375 
L 19.828125 46.734375 
Q 21.96875 47.46875 24.109375 47.828125 
Q 26.265625 48.1875 28.421875 48.1875 
Q 40.625 48.1875 47.75 41.5 
Q 54.890625 34.8125 54.890625 23.390625 
Q 54.890625 11.625 47.5625 5.09375 
Q 40.234375 -1.421875 26.90625 -1.421875 
Q 22.3125 -1.421875 17.546875 -0.640625 
Q 12.796875 0.140625 7.71875 1.703125 
L 7.71875 11.625 
Q 12.109375 9.234375 16.796875 8.0625 
Q 21.484375 6.890625 26.703125 6.890625 
Q 35.15625 6.890625 40.078125 11.328125 
Q 45.015625 15.765625 45.015625 23.390625 
Q 45.015625 31 40.078125 35.4375 
Q 35.15625 39.890625 26.703125 39.890625 
Q 22.75 39.890625 18.8125 39.015625 
Q 14.890625 38.140625 10.796875 36.28125 
z
" id="DejaVuSans-53"/>
      </defs>
      <g transform="translate(228.85875 171.733687)scale(0.1 -0.1)">
       <use xlink:href="#DejaVuSans-53"/>
      </g>
     </g>
    </g>
    <g id="text_7">
     <!-- $K_\mathrm{S}$ -->
     <defs>
      <path d="M 16.890625 72.90625 
L 26.8125 72.90625 
L 20.796875 42.1875 
L 59.078125 72.90625 
L 72.21875 72.90625 
L 28.90625 38.09375 
L 60.59375 0 
L 48.578125 0 
L 19.484375 35.5 
L 12.59375 0 
L 2.6875 0 
z
" id="DejaVuSans-Oblique-75"/>
      <path d="M 53.515625 70.515625 
L 53.515625 60.890625 
Q 47.90625 63.578125 42.921875 64.890625 
Q 37.9375 66.21875 33.296875 66.21875 
Q 25.25 66.21875 20.875 63.09375 
Q 16.5 59.96875 16.5 54.203125 
Q 16.5 49.359375 19.40625 46.890625 
Q 22.3125 44.4375 30.421875 42.921875 
L 36.375 41.703125 
Q 47.40625 39.59375 52.65625 34.296875 
Q 57.90625 29 57.90625 20.125 
Q 57.90625 9.515625 50.796875 4.046875 
Q 43.703125 -1.421875 29.984375 -1.421875 
Q 24.8125 -1.421875 18.96875 -0.25 
Q 13.140625 0.921875 6.890625 3.21875 
L 6.890625 13.375 
Q 12.890625 10.015625 18.65625 8.296875 
Q 24.421875 6.59375 29.984375 6.59375 
Q 38.421875 6.59375 43.015625 9.90625 
Q 47.609375 13.234375 47.609375 19.390625 
Q 47.609375 24.75 44.3125 27.78125 
Q 41.015625 30.8125 33.5 32.328125 
L 27.484375 33.5 
Q 16.453125 35.6875 11.515625 40.375 
Q 6.59375 45.0625 6.59375 53.421875 
Q 6.59375 63.09375 13.40625 68.65625 
Q 20.21875 74.21875 32.171875 74.21875 
Q 37.3125 74.21875 42.625 73.28125 
Q 47.953125 72.359375 53.515625 70.515625 
z
" id="DejaVuSans-83"/>
     </defs>
     <g transform="translate(133.155 185.411812)scale(0.1 -0.1)">
      <use transform="translate(0 0.09375)" xlink:href="#DejaVuSans-Oblique-75"/>
      <use transform="translate(65.576172 -16.3125)scale(0.7)" xlink:href="#DejaVuSans-83"/>
     </g>
    </g>
   </g>
   <g id="matplotlib.axis_2">
    <g id="ytick_1">
     <g id="line2d_7">
      <defs>
       <path d="M 0 0 
L -3.5 0 
" id="mc85380cb28" style="stroke:#000000;stroke-width:0.8;"/>
      </defs>
      <g>
       <use style="stroke:#000000;stroke-width:0.8;" x="44.57" xlink:href="#mc85380cb28" y="156.135249"/>
      </g>
     </g>
     <g id="text_8">
      <!-- 0.0 -->
      <defs>
       <path d="M 10.6875 12.40625 
L 21 12.40625 
L 21 0 
L 10.6875 0 
z
" id="DejaVuSans-46"/>
      </defs>
      <g transform="translate(21.666875 159.934468)scale(0.1 -0.1)">
       <use xlink:href="#DejaVuSans-48"/>
       <use x="63.623047" xlink:href="#DejaVuSans-46"/>
       <use x="95.410156" xlink:href="#DejaVuSans-48"/>
      </g>
     </g>
    </g>
    <g id="ytick_2">
     <g id="line2d_8">
      <g>
       <use style="stroke:#000000;stroke-width:0.8;" x="44.57" xlink:href="#mc85380cb28" y="131.303047"/>
      </g>
     </g>
     <g id="text_9">
      <!-- 2.5 -->
      <g transform="translate(21.666875 135.102266)scale(0.1 -0.1)">
       <use xlink:href="#DejaVuSans-50"/>
       <use x="63.623047" xlink:href="#DejaVuSans-46"/>
       <use x="95.410156" xlink:href="#DejaVuSans-53"/>
      </g>
     </g>
    </g>
    <g id="ytick_3">
     <g id="line2d_9">
      <g>
       <use style="stroke:#000000;stroke-width:0.8;" x="44.57" xlink:href="#mc85380cb28" y="106.470845"/>
      </g>
     </g>
     <g id="text_10">
      <!-- 5.0 -->
      <g transform="translate(21.666875 110.270064)scale(0.1 -0.1)">
       <use xlink:href="#DejaVuSans-53"/>
       <use x="63.623047" xlink:href="#DejaVuSans-46"/>
       <use x="95.410156" xlink:href="#DejaVuSans-48"/>
      </g>
     </g>
    </g>
    <g id="ytick_4">
     <g id="line2d_10">
      <g>
       <use style="stroke:#000000;stroke-width:0.8;" x="44.57" xlink:href="#mc85380cb28" y="81.638643"/>
      </g>
     </g>
     <g id="text_11">
      <!-- 7.5 -->
      <defs>
       <path d="M 8.203125 72.90625 
L 55.078125 72.90625 
L 55.078125 68.703125 
L 28.609375 0 
L 18.3125 0 
L 43.21875 64.59375 
L 8.203125 64.59375 
z
" id="DejaVuSans-55"/>
      </defs>
      <g transform="translate(21.666875 85.437861)scale(0.1 -0.1)">
       <use xlink:href="#DejaVuSans-55"/>
       <use x="63.623047" xlink:href="#DejaVuSans-46"/>
       <use x="95.410156" xlink:href="#DejaVuSans-53"/>
      </g>
     </g>
    </g>
    <g id="ytick_5">
     <g id="line2d_11">
      <g>
       <use style="stroke:#000000;stroke-width:0.8;" x="44.57" xlink:href="#mc85380cb28" y="56.80644"/>
      </g>
     </g>
     <g id="text_12">
      <!-- 10.0 -->
      <g transform="translate(15.304375 60.605659)scale(0.1 -0.1)">
       <use xlink:href="#DejaVuSans-49"/>
       <use x="63.623047" xlink:href="#DejaVuSans-48"/>
       <use x="127.246094" xlink:href="#DejaVuSans-46"/>
       <use x="159.033203" xlink:href="#DejaVuSans-48"/>
      </g>
     </g>
    </g>
    <g id="text_13">
     <!-- Duplications -->
     <defs>
      <path d="M 19.671875 64.796875 
L 19.671875 8.109375 
L 31.59375 8.109375 
Q 46.6875 8.109375 53.6875 14.9375 
Q 60.6875 21.78125 60.6875 36.53125 
Q 60.6875 51.171875 53.6875 57.984375 
Q 46.6875 64.796875 31.59375 64.796875 
z
M 9.8125 72.90625 
L 30.078125 72.90625 
Q 51.265625 72.90625 61.171875 64.09375 
Q 71.09375 55.28125 71.09375 36.53125 
Q 71.09375 17.671875 61.125 8.828125 
Q 51.171875 0 30.078125 0 
L 9.8125 0 
z
" id="DejaVuSans-68"/>
      <path d="M 8.5 21.578125 
L 8.5 54.6875 
L 17.484375 54.6875 
L 17.484375 21.921875 
Q 17.484375 14.15625 20.5 10.265625 
Q 23.53125 6.390625 29.59375 6.390625 
Q 36.859375 6.390625 41.078125 11.03125 
Q 45.3125 15.671875 45.3125 23.6875 
L 45.3125 54.6875 
L 54.296875 54.6875 
L 54.296875 0 
L 45.3125 0 
L 45.3125 8.40625 
Q 42.046875 3.421875 37.71875 1 
Q 33.40625 -1.421875 27.6875 -1.421875 
Q 18.265625 -1.421875 13.375 4.4375 
Q 8.5 10.296875 8.5 21.578125 
z
M 31.109375 56 
z
" id="DejaVuSans-117"/>
      <path d="M 18.109375 8.203125 
L 18.109375 -20.796875 
L 9.078125 -20.796875 
L 9.078125 54.6875 
L 18.109375 54.6875 
L 18.109375 46.390625 
Q 20.953125 51.265625 25.265625 53.625 
Q 29.59375 56 35.59375 56 
Q 45.5625 56 51.78125 48.09375 
Q 58.015625 40.1875 58.015625 27.296875 
Q 58.015625 14.40625 51.78125 6.484375 
Q 45.5625 -1.421875 35.59375 -1.421875 
Q 29.59375 -1.421875 25.265625 0.953125 
Q 20.953125 3.328125 18.109375 8.203125 
z
M 48.6875 27.296875 
Q 48.6875 37.203125 44.609375 42.84375 
Q 40.53125 48.484375 33.40625 48.484375 
Q 26.265625 48.484375 22.1875 42.84375 
Q 18.109375 37.203125 18.109375 27.296875 
Q 18.109375 17.390625 22.1875 11.75 
Q 26.265625 6.109375 33.40625 6.109375 
Q 40.53125 6.109375 44.609375 11.75 
Q 48.6875 17.390625 48.6875 27.296875 
z
" id="DejaVuSans-112"/>
      <path d="M 9.421875 75.984375 
L 18.40625 75.984375 
L 18.40625 0 
L 9.421875 0 
z
" id="DejaVuSans-108"/>
      <path d="M 9.421875 54.6875 
L 18.40625 54.6875 
L 18.40625 0 
L 9.421875 0 
z
M 9.421875 75.984375 
L 18.40625 75.984375 
L 18.40625 64.59375 
L 9.421875 64.59375 
z
" id="DejaVuSans-105"/>
      <path d="M 48.78125 52.59375 
L 48.78125 44.1875 
Q 44.96875 46.296875 41.140625 47.34375 
Q 37.3125 48.390625 33.40625 48.390625 
Q 24.65625 48.390625 19.8125 42.84375 
Q 14.984375 37.3125 14.984375 27.296875 
Q 14.984375 17.28125 19.8125 11.734375 
Q 24.65625 6.203125 33.40625 6.203125 
Q 37.3125 6.203125 41.140625 7.25 
Q 44.96875 8.296875 48.78125 10.40625 
L 48.78125 2.09375 
Q 45.015625 0.34375 40.984375 -0.53125 
Q 36.96875 -1.421875 32.421875 -1.421875 
Q 20.0625 -1.421875 12.78125 6.34375 
Q 5.515625 14.109375 5.515625 27.296875 
Q 5.515625 40.671875 12.859375 48.328125 
Q 20.21875 56 33.015625 56 
Q 37.15625 56 41.109375 55.140625 
Q 45.0625 54.296875 48.78125 52.59375 
z
" id="DejaVuSans-99"/>
      <path d="M 34.28125 27.484375 
Q 23.390625 27.484375 19.1875 25 
Q 14.984375 22.515625 14.984375 16.5 
Q 14.984375 11.71875 18.140625 8.90625 
Q 21.296875 6.109375 26.703125 6.109375 
Q 34.1875 6.109375 38.703125 11.40625 
Q 43.21875 16.703125 43.21875 25.484375 
L 43.21875 27.484375 
z
M 52.203125 31.203125 
L 52.203125 0 
L 43.21875 0 
L 43.21875 8.296875 
Q 40.140625 3.328125 35.546875 0.953125 
Q 30.953125 -1.421875 24.3125 -1.421875 
Q 15.921875 -1.421875 10.953125 3.296875 
Q 6 8.015625 6 15.921875 
Q 6 25.140625 12.171875 29.828125 
Q 18.359375 34.515625 30.609375 34.515625 
L 43.21875 34.515625 
L 43.21875 35.40625 
Q 43.21875 41.609375 39.140625 45 
Q 35.0625 48.390625 27.6875 48.390625 
Q 23 48.390625 18.546875 47.265625 
Q 14.109375 46.140625 10.015625 43.890625 
L 10.015625 52.203125 
Q 14.9375 54.109375 19.578125 55.046875 
Q 24.21875 56 28.609375 56 
Q 40.484375 56 46.34375 49.84375 
Q 52.203125 43.703125 52.203125 31.203125 
z
" id="DejaVuSans-97"/>
      <path d="M 18.3125 70.21875 
L 18.3125 54.6875 
L 36.8125 54.6875 
L 36.8125 47.703125 
L 18.3125 47.703125 
L 18.3125 18.015625 
Q 18.3125 11.328125 20.140625 9.421875 
Q 21.96875 7.515625 27.59375 7.515625 
L 36.8125 7.515625 
L 36.8125 0 
L 27.59375 0 
Q 17.1875 0 13.234375 3.875 
Q 9.28125 7.765625 9.28125 18.015625 
L 9.28125 47.703125 
L 2.6875 47.703125 
L 2.6875 54.6875 
L 9.28125 54.6875 
L 9.28125 70.21875 
z
" id="DejaVuSans-116"/>
      <path d="M 30.609375 48.390625 
Q 23.390625 48.390625 19.1875 42.75 
Q 14.984375 37.109375 14.984375 27.296875 
Q 14.984375 17.484375 19.15625 11.84375 
Q 23.34375 6.203125 30.609375 6.203125 
Q 37.796875 6.203125 41.984375 11.859375 
Q 46.1875 17.53125 46.1875 27.296875 
Q 46.1875 37.015625 41.984375 42.703125 
Q 37.796875 48.390625 30.609375 48.390625 
z
M 30.609375 56 
Q 42.328125 56 49.015625 48.375 
Q 55.71875 40.765625 55.71875 27.296875 
Q 55.71875 13.875 49.015625 6.21875 
Q 42.328125 -1.421875 30.609375 -1.421875 
Q 18.84375 -1.421875 12.171875 6.21875 
Q 5.515625 13.875 5.515625 27.296875 
Q 5.515625 40.765625 12.171875 48.375 
Q 18.84375 56 30.609375 56 
z
" id="DejaVuSans-111"/>
      <path d="M 54.890625 33.015625 
L 54.890625 0 
L 45.90625 0 
L 45.90625 32.71875 
Q 45.90625 40.484375 42.875 44.328125 
Q 39.84375 48.1875 33.796875 48.1875 
Q 26.515625 48.1875 22.3125 43.546875 
Q 18.109375 38.921875 18.109375 30.90625 
L 18.109375 0 
L 9.078125 0 
L 9.078125 54.6875 
L 18.109375 54.6875 
L 18.109375 46.1875 
Q 21.34375 51.125 25.703125 53.5625 
Q 30.078125 56 35.796875 56 
Q 45.21875 56 50.046875 50.171875 
Q 54.890625 44.34375 54.890625 33.015625 
z
" id="DejaVuSans-110"/>
      <path d="M 44.28125 53.078125 
L 44.28125 44.578125 
Q 40.484375 46.53125 36.375 47.5 
Q 32.28125 48.484375 27.875 48.484375 
Q 21.1875 48.484375 17.84375 46.4375 
Q 14.5 44.390625 14.5 40.28125 
Q 14.5 37.15625 16.890625 35.375 
Q 19.28125 33.59375 26.515625 31.984375 
L 29.59375 31.296875 
Q 39.15625 29.25 43.1875 25.515625 
Q 47.21875 21.78125 47.21875 15.09375 
Q 47.21875 7.46875 41.1875 3.015625 
Q 35.15625 -1.421875 24.609375 -1.421875 
Q 20.21875 -1.421875 15.453125 -0.5625 
Q 10.6875 0.296875 5.421875 2 
L 5.421875 11.28125 
Q 10.40625 8.6875 15.234375 7.390625 
Q 20.0625 6.109375 24.8125 6.109375 
Q 31.15625 6.109375 34.5625 8.28125 
Q 37.984375 10.453125 37.984375 14.40625 
Q 37.984375 18.0625 35.515625 20.015625 
Q 33.0625 21.96875 24.703125 23.78125 
L 21.578125 24.515625 
Q 13.234375 26.265625 9.515625 29.90625 
Q 5.8125 33.546875 5.8125 39.890625 
Q 5.8125 47.609375 11.28125 51.796875 
Q 16.75 56 26.8125 56 
Q 31.78125 56 36.171875 55.265625 
Q 40.578125 54.546875 44.28125 53.078125 
z
" id="DejaVuSans-115"/>
     </defs>
     <g transform="translate(9.224688 134.954031)rotate(-90)scale(0.1 -0.1)">
      <use xlink:href="#DejaVuSans-68"/>
      <use x="77.001953" xlink:href="#DejaVuSans-117"/>
      <use x="140.380859" xlink:href="#DejaVuSans-112"/>
      <use x="203.857422" xlink:href="#DejaVuSans-108"/>
      <use x="231.640625" xlink:href="#DejaVuSans-105"/>
      <use x="259.423828" xlink:href="#DejaVuSans-99"/>
      <use x="314.404297" xlink:href="#DejaVuSans-97"/>
      <use x="375.683594" xlink:href="#DejaVuSans-116"/>
      <use x="414.892578" xlink:href="#DejaVuSans-105"/>
      <use x="442.675781" xlink:href="#DejaVuSans-111"/>
      <use x="503.857422" xlink:href="#DejaVuSans-110"/>
      <use x="567.236328" xlink:href="#DejaVuSans-115"/>
     </g>
    </g>
   </g>
   <g id="patch_103">
    <path d="M 44.57 156.135249 
L 44.57 51.84 
" style="fill:none;stroke:#000000;stroke-linecap:square;stroke-linejoin:miter;stroke-width:0.8;"/>
   </g>
   <g id="patch_104">
    <path d="M 45.57 157.135249 
L 232.04 157.135249 
" style="fill:none;stroke:#000000;stroke-linecap:square;stroke-linejoin:miter;stroke-width:0.8;"/>
   </g>
  </g>
  <g id="axes_2">
   <g id="patch_105">
    <path d="M 263.53 156.135249 
L 450 156.135249 
L 450 51.84 
L 263.53 51.84 
z
" style="fill:#ffffff;"/>
   </g>
   <g id="patch_106">
    <path clip-path="url(#p1de11269ef)" d="M 272.005909 156.135249 
L 274.729093 156.135249 
L 274.729093 156.135249 
L 272.005909 156.135249 
z
" style="fill:#808080;"/>
   </g>
   <g id="patch_107">
    <path clip-path="url(#p1de11269ef)" d="M 275.409889 156.135249 
L 278.133072 156.135249 
L 278.133072 156.135249 
L 275.409889 156.135249 
z
" style="fill:#808080;"/>
   </g>
   <g id="patch_108">
    <path clip-path="url(#p1de11269ef)" d="M 278.813868 156.135249 
L 281.537052 156.135249 
L 281.537052 156.135249 
L 278.813868 156.135249 
z
" style="fill:#808080;"/>
   </g>
   <g id="patch_109">
    <path clip-path="url(#p1de11269ef)" d="M 282.217848 156.135249 
L 284.941031 156.135249 
L 284.941031 156.135249 
L 282.217848 156.135249 
z
" style="fill:#808080;"/>
   </g>
   <g id="patch_110">
    <path clip-path="url(#p1de11269ef)" d="M 285.621827 156.135249 
L 288.345011 156.135249 
L 288.345011 156.135249 
L 285.621827 156.135249 
z
" style="fill:#808080;"/>
   </g>
   <g id="patch_111">
    <path clip-path="url(#p1de11269ef)" d="M 289.025807 156.135249 
L 291.748991 156.135249 
L 291.748991 156.135249 
L 289.025807 156.135249 
z
" style="fill:#808080;"/>
   </g>
   <g id="patch_112">
    <path clip-path="url(#p1de11269ef)" d="M 292.429786 156.135249 
L 295.15297 156.135249 
L 295.15297 156.135249 
L 292.429786 156.135249 
z
" style="fill:#808080;"/>
   </g>
   <g id="patch_113">
    <path clip-path="url(#p1de11269ef)" d="M 295.833766 156.135249 
L 298.55695 156.135249 
L 298.55695 156.135249 
L 295.833766 156.135249 
z
" style="fill:#808080;"/>
   </g>
   <g id="patch_114">
    <path clip-path="url(#p1de11269ef)" d="M 299.237746 156.135249 
L 301.960929 156.135249 
L 301.960929 156.135249 
L 299.237746 156.135249 
z
" style="fill:#808080;"/>
   </g>
   <g id="patch_115">
    <path clip-path="url(#p1de11269ef)" d="M 302.641725 156.135249 
L 305.364909 156.135249 
L 305.364909 156.135249 
L 302.641725 156.135249 
z
" style="fill:#808080;"/>
   </g>
   <g id="patch_116">
    <path clip-path="url(#p1de11269ef)" d="M 306.045705 156.135249 
L 308.768888 156.135249 
L 308.768888 156.135249 
L 306.045705 156.135249 
z
" style="fill:#808080;"/>
   </g>
   <g id="patch_117">
    <path clip-path="url(#p1de11269ef)" d="M 309.449684 156.135249 
L 312.172868 156.135249 
L 312.172868 156.135249 
L 309.449684 156.135249 
z
" style="fill:#808080;"/>
   </g>
   <g id="patch_118">
    <path clip-path="url(#p1de11269ef)" d="M 312.853664 156.135249 
L 315.576847 156.135249 
L 315.576847 156.135249 
L 312.853664 156.135249 
z
" style="fill:#808080;"/>
   </g>
   <g id="patch_119">
    <path clip-path="url(#p1de11269ef)" d="M 316.257643 156.135249 
L 318.980827 156.135249 
L 318.980827 156.135249 
L 316.257643 156.135249 
z
" style="fill:#808080;"/>
   </g>
   <g id="patch_120">
    <path clip-path="url(#p1de11269ef)" d="M 319.661623 156.135249 
L 322.384806 156.135249 
L 322.384806 156.135249 
L 319.661623 156.135249 
z
" style="fill:#808080;"/>
   </g>
   <g id="patch_121">
    <path clip-path="url(#p1de11269ef)" d="M 323.065602 156.135249 
L 325.788786 156.135249 
L 325.788786 156.135249 
L 323.065602 156.135249 
z
" style="fill:#808080;"/>
   </g>
   <g id="patch_122">
    <path clip-path="url(#p1de11269ef)" d="M 326.469582 156.135249 
L 329.192766 156.135249 
L 329.192766 136.269487 
L 326.469582 136.269487 
z
" style="fill:#808080;"/>
   </g>
   <g id="patch_123">
    <path clip-path="url(#p1de11269ef)" d="M 329.873562 156.135249 
L 332.596745 156.135249 
L 332.596745 156.135249 
L 329.873562 156.135249 
z
" style="fill:#808080;"/>
   </g>
   <g id="patch_124">
    <path clip-path="url(#p1de11269ef)" d="M 333.277541 156.135249 
L 336.000725 156.135249 
L 336.000725 156.135249 
L 333.277541 156.135249 
z
" style="fill:#808080;"/>
   </g>
   <g id="patch_125">
    <path clip-path="url(#p1de11269ef)" d="M 336.681521 156.135249 
L 339.404704 156.135249 
L 339.404704 156.135249 
L 336.681521 156.135249 
z
" style="fill:#808080;"/>
   </g>
   <g id="patch_126">
    <path clip-path="url(#p1de11269ef)" d="M 340.0855 156.135249 
L 342.808684 156.135249 
L 342.808684 136.269487 
L 340.0855 136.269487 
z
" style="fill:#808080;"/>
   </g>
   <g id="patch_127">
    <path clip-path="url(#p1de11269ef)" d="M 343.48948 156.135249 
L 346.212663 156.135249 
L 346.212663 156.135249 
L 343.48948 156.135249 
z
" style="fill:#808080;"/>
   </g>
   <g id="patch_128">
    <path clip-path="url(#p1de11269ef)" d="M 346.893459 156.135249 
L 349.616643 156.135249 
L 349.616643 156.135249 
L 346.893459 156.135249 
z
" style="fill:#808080;"/>
   </g>
   <g id="patch_129">
    <path clip-path="url(#p1de11269ef)" d="M 350.297439 156.135249 
L 353.020622 156.135249 
L 353.020622 136.269487 
L 350.297439 136.269487 
z
" style="fill:#808080;"/>
   </g>
   <g id="patch_130">
    <path clip-path="url(#p1de11269ef)" d="M 353.701418 156.135249 
L 356.424602 156.135249 
L 356.424602 156.135249 
L 353.701418 156.135249 
z
" style="fill:#808080;"/>
   </g>
   <g id="patch_131">
    <path clip-path="url(#p1de11269ef)" d="M 357.105398 156.135249 
L 359.828582 156.135249 
L 359.828582 136.269487 
L 357.105398 136.269487 
z
" style="fill:#808080;"/>
   </g>
   <g id="patch_132">
    <path clip-path="url(#p1de11269ef)" d="M 360.509378 156.135249 
L 363.232561 156.135249 
L 363.232561 136.269487 
L 360.509378 136.269487 
z
" style="fill:#808080;"/>
   </g>
   <g id="patch_133">
    <path clip-path="url(#p1de11269ef)" d="M 363.913357 156.135249 
L 366.636541 156.135249 
L 366.636541 136.269487 
L 363.913357 136.269487 
z
" style="fill:#808080;"/>
   </g>
   <g id="patch_134">
    <path clip-path="url(#p1de11269ef)" d="M 367.317337 156.135249 
L 370.04052 156.135249 
L 370.04052 136.269487 
L 367.317337 136.269487 
z
" style="fill:#808080;"/>
   </g>
   <g id="patch_135">
    <path clip-path="url(#p1de11269ef)" d="M 370.721316 156.135249 
L 373.4445 156.135249 
L 373.4445 156.135249 
L 370.721316 156.135249 
z
" style="fill:#808080;"/>
   </g>
   <g id="patch_136">
    <path clip-path="url(#p1de11269ef)" d="M 374.125296 156.135249 
L 376.848479 156.135249 
L 376.848479 76.672202 
L 374.125296 76.672202 
z
" style="fill:#808080;"/>
   </g>
   <g id="patch_137">
    <path clip-path="url(#p1de11269ef)" d="M 377.529275 156.135249 
L 380.252459 156.135249 
L 380.252459 96.537964 
L 377.529275 96.537964 
z
" style="fill:#808080;"/>
   </g>
   <g id="patch_138">
    <path clip-path="url(#p1de11269ef)" d="M 380.933255 156.135249 
L 383.656438 156.135249 
L 383.656438 96.537964 
L 380.933255 96.537964 
z
" style="fill:#808080;"/>
   </g>
   <g id="patch_139">
    <path clip-path="url(#p1de11269ef)" d="M 384.337234 156.135249 
L 387.060418 156.135249 
L 387.060418 136.269487 
L 384.337234 136.269487 
z
" style="fill:#808080;"/>
   </g>
   <g id="patch_140">
    <path clip-path="url(#p1de11269ef)" d="M 387.741214 156.135249 
L 390.464398 156.135249 
L 390.464398 96.537964 
L 387.741214 96.537964 
z
" style="fill:#808080;"/>
   </g>
   <g id="patch_141">
    <path clip-path="url(#p1de11269ef)" d="M 391.145194 156.135249 
L 393.868377 156.135249 
L 393.868377 136.269487 
L 391.145194 136.269487 
z
" style="fill:#808080;"/>
   </g>
   <g id="patch_142">
    <path clip-path="url(#p1de11269ef)" d="M 394.549173 156.135249 
L 397.272357 156.135249 
L 397.272357 76.672202 
L 394.549173 76.672202 
z
" style="fill:#808080;"/>
   </g>
   <g id="patch_143">
    <path clip-path="url(#p1de11269ef)" d="M 397.953153 156.135249 
L 400.676336 156.135249 
L 400.676336 96.537964 
L 397.953153 96.537964 
z
" style="fill:#808080;"/>
   </g>
   <g id="patch_144">
    <path clip-path="url(#p1de11269ef)" d="M 401.357132 156.135249 
L 404.080316 156.135249 
L 404.080316 96.537964 
L 401.357132 96.537964 
z
" style="fill:#808080;"/>
   </g>
   <g id="patch_145">
    <path clip-path="url(#p1de11269ef)" d="M 404.761112 156.135249 
L 407.484295 156.135249 
L 407.484295 156.135249 
L 404.761112 156.135249 
z
" style="fill:#808080;"/>
   </g>
   <g id="patch_146">
    <path clip-path="url(#p1de11269ef)" d="M 408.165091 156.135249 
L 410.888275 156.135249 
L 410.888275 56.80644 
L 408.165091 56.80644 
z
" style="fill:#808080;"/>
   </g>
   <g id="patch_147">
    <path clip-path="url(#p1de11269ef)" d="M 411.569071 156.135249 
L 414.292254 156.135249 
L 414.292254 76.672202 
L 411.569071 76.672202 
z
" style="fill:#808080;"/>
   </g>
   <g id="patch_148">
    <path clip-path="url(#p1de11269ef)" d="M 414.97305 156.135249 
L 417.696234 156.135249 
L 417.696234 156.135249 
L 414.97305 156.135249 
z
" style="fill:#808080;"/>
   </g>
   <g id="patch_149">
    <path clip-path="url(#p1de11269ef)" d="M 418.37703 156.135249 
L 421.100214 156.135249 
L 421.100214 136.269487 
L 418.37703 136.269487 
z
" style="fill:#808080;"/>
   </g>
   <g id="patch_150">
    <path clip-path="url(#p1de11269ef)" d="M 421.781009 156.135249 
L 424.504193 156.135249 
L 424.504193 156.135249 
L 421.781009 156.135249 
z
" style="fill:#808080;"/>
   </g>
   <g id="patch_151">
    <path clip-path="url(#p1de11269ef)" d="M 425.184989 156.135249 
L 427.908173 156.135249 
L 427.908173 76.672202 
L 425.184989 76.672202 
z
" style="fill:#808080;"/>
   </g>
   <g id="patch_152">
    <path clip-path="url(#p1de11269ef)" d="M 428.588969 156.135249 
L 431.312152 156.135249 
L 431.312152 96.537964 
L 428.588969 96.537964 
z
" style="fill:#808080;"/>
   </g>
   <g id="patch_153">
    <path clip-path="url(#p1de11269ef)" d="M 431.992948 156.135249 
L 434.716132 156.135249 
L 434.716132 156.135249 
L 431.992948 156.135249 
z
" style="fill:#808080;"/>
   </g>
   <g id="patch_154">
    <path clip-path="url(#p1de11269ef)" d="M 435.396928 156.135249 
L 438.120111 156.135249 
L 438.120111 156.135249 
L 435.396928 156.135249 
z
" style="fill:#808080;"/>
   </g>
   <g id="patch_155">
    <path clip-path="url(#p1de11269ef)" d="M 438.800907 156.135249 
L 441.524091 156.135249 
L 441.524091 156.135249 
L 438.800907 156.135249 
z
" style="fill:#808080;"/>
   </g>
   <g id="matplotlib.axis_3">
    <g id="xtick_7">
     <g id="line2d_12">
      <g>
       <use style="stroke:#000000;stroke-width:0.8;" x="271.665511" xlink:href="#m6b6098f0be" y="157.135249"/>
      </g>
     </g>
     <g id="text_14">
      <!-- −4 -->
      <defs>
       <path d="M 10.59375 35.5 
L 73.1875 35.5 
L 73.1875 27.203125 
L 10.59375 27.203125 
z
" id="DejaVuSans-8722"/>
      </defs>
      <g transform="translate(264.294417 171.733687)scale(0.1 -0.1)">
       <use xlink:href="#DejaVuSans-8722"/>
       <use x="83.789062" xlink:href="#DejaVuSans-52"/>
      </g>
     </g>
    </g>
    <g id="xtick_8">
     <g id="line2d_13">
      <g>
       <use style="stroke:#000000;stroke-width:0.8;" x="305.705307" xlink:href="#m6b6098f0be" y="157.135249"/>
      </g>
     </g>
     <g id="text_15">
      <!-- −3 -->
      <g transform="translate(298.334213 171.733687)scale(0.1 -0.1)">
       <use xlink:href="#DejaVuSans-8722"/>
       <use x="83.789062" xlink:href="#DejaVuSans-51"/>
      </g>
     </g>
    </g>
    <g id="xtick_9">
     <g id="line2d_14">
      <g>
       <use style="stroke:#000000;stroke-width:0.8;" x="339.745102" xlink:href="#m6b6098f0be" y="157.135249"/>
      </g>
     </g>
     <g id="text_16">
      <!-- −2 -->
      <g transform="translate(332.374008 171.733687)scale(0.1 -0.1)">
       <use xlink:href="#DejaVuSans-8722"/>
       <use x="83.789062" xlink:href="#DejaVuSans-50"/>
      </g>
     </g>
    </g>
    <g id="xtick_10">
     <g id="line2d_15">
      <g>
       <use style="stroke:#000000;stroke-width:0.8;" x="373.784898" xlink:href="#m6b6098f0be" y="157.135249"/>
      </g>
     </g>
     <g id="text_17">
      <!-- −1 -->
      <g transform="translate(366.413804 171.733687)scale(0.1 -0.1)">
       <use xlink:href="#DejaVuSans-8722"/>
       <use x="83.789062" xlink:href="#DejaVuSans-49"/>
      </g>
     </g>
    </g>
    <g id="xtick_11">
     <g id="line2d_16">
      <g>
       <use style="stroke:#000000;stroke-width:0.8;" x="407.824693" xlink:href="#m6b6098f0be" y="157.135249"/>
      </g>
     </g>
     <g id="text_18">
      <!-- 0 -->
      <g transform="translate(404.643443 171.733687)scale(0.1 -0.1)">
       <use xlink:href="#DejaVuSans-48"/>
      </g>
     </g>
    </g>
    <g id="xtick_12">
     <g id="line2d_17">
      <g>
       <use style="stroke:#000000;stroke-width:0.8;" x="441.864489" xlink:href="#m6b6098f0be" y="157.135249"/>
      </g>
     </g>
     <g id="text_19">
      <!-- 1 -->
      <g transform="translate(438.683239 171.733687)scale(0.1 -0.1)">
       <use xlink:href="#DejaVuSans-49"/>
      </g>
     </g>
    </g>
    <g id="text_20">
     <!-- $\log_{10}K_\mathrm{S}$ -->
     <defs>
      <path d="M 45.40625 27.984375 
Q 45.40625 37.75 41.375 43.109375 
Q 37.359375 48.484375 30.078125 48.484375 
Q 22.859375 48.484375 18.828125 43.109375 
Q 14.796875 37.75 14.796875 27.984375 
Q 14.796875 18.265625 18.828125 12.890625 
Q 22.859375 7.515625 30.078125 7.515625 
Q 37.359375 7.515625 41.375 12.890625 
Q 45.40625 18.265625 45.40625 27.984375 
z
M 54.390625 6.78125 
Q 54.390625 -7.171875 48.1875 -13.984375 
Q 42 -20.796875 29.203125 -20.796875 
Q 24.46875 -20.796875 20.265625 -20.09375 
Q 16.0625 -19.390625 12.109375 -17.921875 
L 12.109375 -9.1875 
Q 16.0625 -11.328125 19.921875 -12.34375 
Q 23.78125 -13.375 27.78125 -13.375 
Q 36.625 -13.375 41.015625 -8.765625 
Q 45.40625 -4.15625 45.40625 5.171875 
L 45.40625 9.625 
Q 42.625 4.78125 38.28125 2.390625 
Q 33.9375 0 27.875 0 
Q 17.828125 0 11.671875 7.65625 
Q 5.515625 15.328125 5.515625 27.984375 
Q 5.515625 40.671875 11.671875 48.328125 
Q 17.828125 56 27.875 56 
Q 33.9375 56 38.28125 53.609375 
Q 42.625 51.21875 45.40625 46.390625 
L 45.40625 54.6875 
L 54.390625 54.6875 
z
" id="DejaVuSans-103"/>
     </defs>
     <g transform="translate(338.865 185.413374)scale(0.1 -0.1)">
      <use transform="translate(0 0.015625)" xlink:href="#DejaVuSans-108"/>
      <use transform="translate(27.783203 0.015625)" xlink:href="#DejaVuSans-111"/>
      <use transform="translate(88.964844 0.015625)" xlink:href="#DejaVuSans-103"/>
      <use transform="translate(153.398438 -16.390625)scale(0.7)" xlink:href="#DejaVuSans-49"/>
      <use transform="translate(197.93457 -16.390625)scale(0.7)" xlink:href="#DejaVuSans-48"/>
      <use transform="translate(245.205078 0.015625)" xlink:href="#DejaVuSans-Oblique-75"/>
      <use transform="translate(310.78125 -16.390625)scale(0.7)" xlink:href="#DejaVuSans-83"/>
     </g>
    </g>
   </g>
   <g id="matplotlib.axis_4">
    <g id="ytick_6">
     <g id="line2d_18">
      <g>
       <use style="stroke:#000000;stroke-width:0.8;" x="262.53" xlink:href="#mc85380cb28" y="156.135249"/>
      </g>
     </g>
     <g id="text_21">
      <!-- 0 -->
      <g transform="translate(249.1675 159.934468)scale(0.1 -0.1)">
       <use xlink:href="#DejaVuSans-48"/>
      </g>
     </g>
    </g>
    <g id="ytick_7">
     <g id="line2d_19">
      <g>
       <use style="stroke:#000000;stroke-width:0.8;" x="262.53" xlink:href="#mc85380cb28" y="116.403726"/>
      </g>
     </g>
     <g id="text_22">
      <!-- 2 -->
      <g transform="translate(249.1675 120.202944)scale(0.1 -0.1)">
       <use xlink:href="#DejaVuSans-50"/>
      </g>
     </g>
    </g>
    <g id="ytick_8">
     <g id="line2d_20">
      <g>
       <use style="stroke:#000000;stroke-width:0.8;" x="262.53" xlink:href="#mc85380cb28" y="76.672202"/>
      </g>
     </g>
     <g id="text_23">
      <!-- 4 -->
      <g transform="translate(249.1675 80.471421)scale(0.1 -0.1)">
       <use xlink:href="#DejaVuSans-52"/>
      </g>
     </g>
    </g>
   </g>
   <g id="patch_156">
    <path d="M 262.53 156.135249 
L 262.53 51.84 
" style="fill:none;stroke:#000000;stroke-linecap:square;stroke-linejoin:miter;stroke-width:0.8;"/>
   </g>
   <g id="patch_157">
    <path d="M 263.53 157.135249 
L 450 157.135249 
" style="fill:none;stroke:#000000;stroke-linecap:square;stroke-linejoin:miter;stroke-width:0.8;"/>
   </g>
  </g>
  <g id="axes_3">
   <g id="patch_158">
    <path d="M 45.57 299.76 
L 232.04 299.76 
L 232.04 195.464751 
L 45.57 195.464751 
z
" style="fill:#ffffff;"/>
   </g>
   <g id="patch_159">
    <path clip-path="url(#pdacf0d27b3)" d="M 54.045909 299.76 
L 56.769093 299.76 
L 56.769093 299.76 
L 54.045909 299.76 
z
" style="fill:#808080;"/>
   </g>
   <g id="patch_160">
    <path clip-path="url(#pdacf0d27b3)" d="M 57.449889 299.76 
L 60.173072 299.76 
L 60.173072 299.76 
L 57.449889 299.76 
z
" style="fill:#808080;"/>
   </g>
   <g id="patch_161">
    <path clip-path="url(#pdacf0d27b3)" d="M 60.853868 299.76 
L 63.577052 299.76 
L 63.577052 299.76 
L 60.853868 299.76 
z
" style="fill:#808080;"/>
   </g>
   <g id="patch_162">
    <path clip-path="url(#pdacf0d27b3)" d="M 64.257848 299.76 
L 66.981031 299.76 
L 66.981031 279.894238 
L 64.257848 279.894238 
z
" style="fill:#808080;"/>
   </g>
   <g id="patch_163">
    <path clip-path="url(#pdacf0d27b3)" d="M 67.661827 299.76 
L 70.385011 299.76 
L 70.385011 299.76 
L 67.661827 299.76 
z
" style="fill:#808080;"/>
   </g>
   <g id="patch_164">
    <path clip-path="url(#pdacf0d27b3)" d="M 71.065807 299.76 
L 73.788991 299.76 
L 73.788991 299.76 
L 71.065807 299.76 
z
" style="fill:#808080;"/>
   </g>
   <g id="patch_165">
    <path clip-path="url(#pdacf0d27b3)" d="M 74.469786 299.76 
L 77.19297 299.76 
L 77.19297 299.76 
L 74.469786 299.76 
z
" style="fill:#808080;"/>
   </g>
   <g id="patch_166">
    <path clip-path="url(#pdacf0d27b3)" d="M 77.873766 299.76 
L 80.59695 299.76 
L 80.59695 299.76 
L 77.873766 299.76 
z
" style="fill:#808080;"/>
   </g>
   <g id="patch_167">
    <path clip-path="url(#pdacf0d27b3)" d="M 81.277746 299.76 
L 84.000929 299.76 
L 84.000929 299.76 
L 81.277746 299.76 
z
" style="fill:#808080;"/>
   </g>
   <g id="patch_168">
    <path clip-path="url(#pdacf0d27b3)" d="M 84.681725 299.76 
L 87.404909 299.76 
L 87.404909 299.76 
L 84.681725 299.76 
z
" style="fill:#808080;"/>
   </g>
   <g id="patch_169">
    <path clip-path="url(#pdacf0d27b3)" d="M 88.085705 299.76 
L 90.808888 299.76 
L 90.808888 299.76 
L 88.085705 299.76 
z
" style="fill:#808080;"/>
   </g>
   <g id="patch_170">
    <path clip-path="url(#pdacf0d27b3)" d="M 91.489684 299.76 
L 94.212868 299.76 
L 94.212868 299.76 
L 91.489684 299.76 
z
" style="fill:#808080;"/>
   </g>
   <g id="patch_171">
    <path clip-path="url(#pdacf0d27b3)" d="M 94.893664 299.76 
L 97.616847 299.76 
L 97.616847 299.76 
L 94.893664 299.76 
z
" style="fill:#808080;"/>
   </g>
   <g id="patch_172">
    <path clip-path="url(#pdacf0d27b3)" d="M 98.297643 299.76 
L 101.020827 299.76 
L 101.020827 299.76 
L 98.297643 299.76 
z
" style="fill:#808080;"/>
   </g>
   <g id="patch_173">
    <path clip-path="url(#pdacf0d27b3)" d="M 101.701623 299.76 
L 104.424806 299.76 
L 104.424806 299.76 
L 101.701623 299.76 
z
" style="fill:#808080;"/>
   </g>
   <g id="patch_174">
    <path clip-path="url(#pdacf0d27b3)" d="M 105.105602 299.76 
L 107.828786 299.76 
L 107.828786 299.76 
L 105.105602 299.76 
z
" style="fill:#808080;"/>
   </g>
   <g id="patch_175">
    <path clip-path="url(#pdacf0d27b3)" d="M 108.509582 299.76 
L 111.232766 299.76 
L 111.232766 299.76 
L 108.509582 299.76 
z
" style="fill:#808080;"/>
   </g>
   <g id="patch_176">
    <path clip-path="url(#pdacf0d27b3)" d="M 111.913562 299.76 
L 114.636745 299.76 
L 114.636745 299.76 
L 111.913562 299.76 
z
" style="fill:#808080;"/>
   </g>
   <g id="patch_177">
    <path clip-path="url(#pdacf0d27b3)" d="M 115.317541 299.76 
L 118.040725 299.76 
L 118.040725 279.894238 
L 115.317541 279.894238 
z
" style="fill:#808080;"/>
   </g>
   <g id="patch_178">
    <path clip-path="url(#pdacf0d27b3)" d="M 118.721521 299.76 
L 121.444704 299.76 
L 121.444704 299.76 
L 118.721521 299.76 
z
" style="fill:#808080;"/>
   </g>
   <g id="patch_179">
    <path clip-path="url(#pdacf0d27b3)" d="M 122.1255 299.76 
L 124.848684 299.76 
L 124.848684 240.162715 
L 122.1255 240.162715 
z
" style="fill:#808080;"/>
   </g>
   <g id="patch_180">
    <path clip-path="url(#pdacf0d27b3)" d="M 125.52948 299.76 
L 128.252663 299.76 
L 128.252663 260.028477 
L 125.52948 260.028477 
z
" style="fill:#808080;"/>
   </g>
   <g id="patch_181">
    <path clip-path="url(#pdacf0d27b3)" d="M 128.933459 299.76 
L 131.656643 299.76 
L 131.656643 299.76 
L 128.933459 299.76 
z
" style="fill:#808080;"/>
   </g>
   <g id="patch_182">
    <path clip-path="url(#pdacf0d27b3)" d="M 132.337439 299.76 
L 135.060622 299.76 
L 135.060622 279.894238 
L 132.337439 279.894238 
z
" style="fill:#808080;"/>
   </g>
   <g id="patch_183">
    <path clip-path="url(#pdacf0d27b3)" d="M 135.741418 299.76 
L 138.464602 299.76 
L 138.464602 299.76 
L 135.741418 299.76 
z
" style="fill:#808080;"/>
   </g>
   <g id="patch_184">
    <path clip-path="url(#pdacf0d27b3)" d="M 139.145398 299.76 
L 141.868582 299.76 
L 141.868582 279.894238 
L 139.145398 279.894238 
z
" style="fill:#808080;"/>
   </g>
   <g id="patch_185">
    <path clip-path="url(#pdacf0d27b3)" d="M 142.549378 299.76 
L 145.272561 299.76 
L 145.272561 279.894238 
L 142.549378 279.894238 
z
" style="fill:#808080;"/>
   </g>
   <g id="patch_186">
    <path clip-path="url(#pdacf0d27b3)" d="M 145.953357 299.76 
L 148.676541 299.76 
L 148.676541 279.894238 
L 145.953357 279.894238 
z
" style="fill:#808080;"/>
   </g>
   <g id="patch_187">
    <path clip-path="url(#pdacf0d27b3)" d="M 149.357337 299.76 
L 152.08052 299.76 
L 152.08052 200.431191 
L 149.357337 200.431191 
z
" style="fill:#808080;"/>
   </g>
   <g id="patch_188">
    <path clip-path="url(#pdacf0d27b3)" d="M 152.761316 299.76 
L 155.4845 299.76 
L 155.4845 220.296953 
L 152.761316 220.296953 
z
" style="fill:#808080;"/>
   </g>
   <g id="patch_189">
    <path clip-path="url(#pdacf0d27b3)" d="M 156.165296 299.76 
L 158.888479 299.76 
L 158.888479 220.296953 
L 156.165296 220.296953 
z
" style="fill:#808080;"/>
   </g>
   <g id="patch_190">
    <path clip-path="url(#pdacf0d27b3)" d="M 159.569275 299.76 
L 162.292459 299.76 
L 162.292459 220.296953 
L 159.569275 220.296953 
z
" style="fill:#808080;"/>
   </g>
   <g id="patch_191">
    <path clip-path="url(#pdacf0d27b3)" d="M 162.973255 299.76 
L 165.696438 299.76 
L 165.696438 240.162715 
L 162.973255 240.162715 
z
" style="fill:#808080;"/>
   </g>
   <g id="patch_192">
    <path clip-path="url(#pdacf0d27b3)" d="M 166.377234 299.76 
L 169.100418 299.76 
L 169.100418 200.431191 
L 166.377234 200.431191 
z
" style="fill:#808080;"/>
   </g>
   <g id="patch_193">
    <path clip-path="url(#pdacf0d27b3)" d="M 169.781214 299.76 
L 172.504398 299.76 
L 172.504398 240.162715 
L 169.781214 240.162715 
z
" style="fill:#808080;"/>
   </g>
   <g id="patch_194">
    <path clip-path="url(#pdacf0d27b3)" d="M 173.185194 299.76 
L 175.908377 299.76 
L 175.908377 279.894238 
L 173.185194 279.894238 
z
" style="fill:#808080;"/>
   </g>
   <g id="patch_195">
    <path clip-path="url(#pdacf0d27b3)" d="M 176.589173 299.76 
L 179.312357 299.76 
L 179.312357 279.894238 
L 176.589173 279.894238 
z
" style="fill:#808080;"/>
   </g>
   <g id="patch_196">
    <path clip-path="url(#pdacf0d27b3)" d="M 179.993153 299.76 
L 182.716336 299.76 
L 182.716336 240.162715 
L 179.993153 240.162715 
z
" style="fill:#808080;"/>
   </g>
   <g id="patch_197">
    <path clip-path="url(#pdacf0d27b3)" d="M 183.397132 299.76 
L 186.120316 299.76 
L 186.120316 220.296953 
L 183.397132 220.296953 
z
" style="fill:#808080;"/>
   </g>
   <g id="patch_198">
    <path clip-path="url(#pdacf0d27b3)" d="M 186.801112 299.76 
L 189.524295 299.76 
L 189.524295 299.76 
L 186.801112 299.76 
z
" style="fill:#808080;"/>
   </g>
   <g id="patch_199">
    <path clip-path="url(#pdacf0d27b3)" d="M 190.205091 299.76 
L 192.928275 299.76 
L 192.928275 299.76 
L 190.205091 299.76 
z
" style="fill:#808080;"/>
   </g>
   <g id="patch_200">
    <path clip-path="url(#pdacf0d27b3)" d="M 193.609071 299.76 
L 196.332254 299.76 
L 196.332254 299.76 
L 193.609071 299.76 
z
" style="fill:#808080;"/>
   </g>
   <g id="patch_201">
    <path clip-path="url(#pdacf0d27b3)" d="M 197.01305 299.76 
L 199.736234 299.76 
L 199.736234 299.76 
L 197.01305 299.76 
z
" style="fill:#808080;"/>
   </g>
   <g id="patch_202">
    <path clip-path="url(#pdacf0d27b3)" d="M 200.41703 299.76 
L 203.140214 299.76 
L 203.140214 299.76 
L 200.41703 299.76 
z
" style="fill:#808080;"/>
   </g>
   <g id="patch_203">
    <path clip-path="url(#pdacf0d27b3)" d="M 203.821009 299.76 
L 206.544193 299.76 
L 206.544193 299.76 
L 203.821009 299.76 
z
" style="fill:#808080;"/>
   </g>
   <g id="patch_204">
    <path clip-path="url(#pdacf0d27b3)" d="M 207.224989 299.76 
L 209.948173 299.76 
L 209.948173 299.76 
L 207.224989 299.76 
z
" style="fill:#808080;"/>
   </g>
   <g id="patch_205">
    <path clip-path="url(#pdacf0d27b3)" d="M 210.628969 299.76 
L 213.352152 299.76 
L 213.352152 299.76 
L 210.628969 299.76 
z
" style="fill:#808080;"/>
   </g>
   <g id="patch_206">
    <path clip-path="url(#pdacf0d27b3)" d="M 214.032948 299.76 
L 216.756132 299.76 
L 216.756132 299.76 
L 214.032948 299.76 
z
" style="fill:#808080;"/>
   </g>
   <g id="patch_207">
    <path clip-path="url(#pdacf0d27b3)" d="M 217.436928 299.76 
L 220.160111 299.76 
L 220.160111 299.76 
L 217.436928 299.76 
z
" style="fill:#808080;"/>
   </g>
   <g id="patch_208">
    <path clip-path="url(#pdacf0d27b3)" d="M 220.840907 299.76 
L 223.564091 299.76 
L 223.564091 299.76 
L 220.840907 299.76 
z
" style="fill:#808080;"/>
   </g>
   <g id="matplotlib.axis_5">
    <g id="xtick_13">
     <g id="line2d_21">
      <g>
       <use style="stroke:#000000;stroke-width:0.8;" x="53.705511" xlink:href="#m6b6098f0be" y="300.76"/>
      </g>
     </g>
     <g id="text_24">
      <!-- −4 -->
      <g transform="translate(46.334417 315.358437)scale(0.1 -0.1)">
       <use xlink:href="#DejaVuSans-8722"/>
       <use x="83.789062" xlink:href="#DejaVuSans-52"/>
      </g>
     </g>
    </g>
    <g id="xtick_14">
     <g id="line2d_22">
      <g>
       <use style="stroke:#000000;stroke-width:0.8;" x="87.745307" xlink:href="#m6b6098f0be" y="300.76"/>
      </g>
     </g>
     <g id="text_25">
      <!-- −3 -->
      <g transform="translate(80.374213 315.358437)scale(0.1 -0.1)">
       <use xlink:href="#DejaVuSans-8722"/>
       <use x="83.789062" xlink:href="#DejaVuSans-51"/>
      </g>
     </g>
    </g>
    <g id="xtick_15">
     <g id="line2d_23">
      <g>
       <use style="stroke:#000000;stroke-width:0.8;" x="121.785102" xlink:href="#m6b6098f0be" y="300.76"/>
      </g>
     </g>
     <g id="text_26">
      <!-- −2 -->
      <g transform="translate(114.414008 315.358437)scale(0.1 -0.1)">
       <use xlink:href="#DejaVuSans-8722"/>
       <use x="83.789062" xlink:href="#DejaVuSans-50"/>
      </g>
     </g>
    </g>
    <g id="xtick_16">
     <g id="line2d_24">
      <g>
       <use style="stroke:#000000;stroke-width:0.8;" x="155.824898" xlink:href="#m6b6098f0be" y="300.76"/>
      </g>
     </g>
     <g id="text_27">
      <!-- −1 -->
      <g transform="translate(148.453804 315.358437)scale(0.1 -0.1)">
       <use xlink:href="#DejaVuSans-8722"/>
       <use x="83.789062" xlink:href="#DejaVuSans-49"/>
      </g>
     </g>
    </g>
    <g id="xtick_17">
     <g id="line2d_25">
      <g>
       <use style="stroke:#000000;stroke-width:0.8;" x="189.864693" xlink:href="#m6b6098f0be" y="300.76"/>
      </g>
     </g>
     <g id="text_28">
      <!-- 0 -->
      <g transform="translate(186.683443 315.358437)scale(0.1 -0.1)">
       <use xlink:href="#DejaVuSans-48"/>
      </g>
     </g>
    </g>
    <g id="xtick_18">
     <g id="line2d_26">
      <g>
       <use style="stroke:#000000;stroke-width:0.8;" x="223.904489" xlink:href="#m6b6098f0be" y="300.76"/>
      </g>
     </g>
     <g id="text_29">
      <!-- 1 -->
      <g transform="translate(220.723239 315.358437)scale(0.1 -0.1)">
       <use xlink:href="#DejaVuSans-49"/>
      </g>
     </g>
    </g>
    <g id="text_30">
     <!-- $\log_{10}K_\mathrm{A}$ -->
     <defs>
      <path d="M 34.1875 63.1875 
L 20.796875 26.90625 
L 47.609375 26.90625 
z
M 28.609375 72.90625 
L 39.796875 72.90625 
L 67.578125 0 
L 57.328125 0 
L 50.6875 18.703125 
L 17.828125 18.703125 
L 11.1875 0 
L 0.78125 0 
z
" id="DejaVuSans-65"/>
     </defs>
     <g transform="translate(120.705 329.038125)scale(0.1 -0.1)">
      <use transform="translate(0 0.015625)" xlink:href="#DejaVuSans-108"/>
      <use transform="translate(27.783203 0.015625)" xlink:href="#DejaVuSans-111"/>
      <use transform="translate(88.964844 0.015625)" xlink:href="#DejaVuSans-103"/>
      <use transform="translate(153.398438 -16.390625)scale(0.7)" xlink:href="#DejaVuSans-49"/>
      <use transform="translate(197.93457 -16.390625)scale(0.7)" xlink:href="#DejaVuSans-48"/>
      <use transform="translate(245.205078 0.015625)" xlink:href="#DejaVuSans-Oblique-75"/>
      <use transform="translate(310.78125 -16.390625)scale(0.7)" xlink:href="#DejaVuSans-65"/>
     </g>
    </g>
   </g>
   <g id="matplotlib.axis_6">
    <g id="ytick_9">
     <g id="line2d_27">
      <g>
       <use style="stroke:#000000;stroke-width:0.8;" x="44.57" xlink:href="#mc85380cb28" y="299.76"/>
      </g>
     </g>
     <g id="text_31">
      <!-- 0 -->
      <g transform="translate(31.2075 303.559219)scale(0.1 -0.1)">
       <use xlink:href="#DejaVuSans-48"/>
      </g>
     </g>
    </g>
    <g id="ytick_10">
     <g id="line2d_28">
      <g>
       <use style="stroke:#000000;stroke-width:0.8;" x="44.57" xlink:href="#mc85380cb28" y="260.028477"/>
      </g>
     </g>
     <g id="text_32">
      <!-- 2 -->
      <g transform="translate(31.2075 263.827695)scale(0.1 -0.1)">
       <use xlink:href="#DejaVuSans-50"/>
      </g>
     </g>
    </g>
    <g id="ytick_11">
     <g id="line2d_29">
      <g>
       <use style="stroke:#000000;stroke-width:0.8;" x="44.57" xlink:href="#mc85380cb28" y="220.296953"/>
      </g>
     </g>
     <g id="text_33">
      <!-- 4 -->
      <g transform="translate(31.2075 224.096172)scale(0.1 -0.1)">
       <use xlink:href="#DejaVuSans-52"/>
      </g>
     </g>
    </g>
    <g id="text_34">
     <!-- Duplications -->
     <g transform="translate(25.127813 278.578782)rotate(-90)scale(0.1 -0.1)">
      <use xlink:href="#DejaVuSans-68"/>
      <use x="77.001953" xlink:href="#DejaVuSans-117"/>
      <use x="140.380859" xlink:href="#DejaVuSans-112"/>
      <use x="203.857422" xlink:href="#DejaVuSans-108"/>
      <use x="231.640625" xlink:href="#DejaVuSans-105"/>
      <use x="259.423828" xlink:href="#DejaVuSans-99"/>
      <use x="314.404297" xlink:href="#DejaVuSans-97"/>
      <use x="375.683594" xlink:href="#DejaVuSans-116"/>
      <use x="414.892578" xlink:href="#DejaVuSans-105"/>
      <use x="442.675781" xlink:href="#DejaVuSans-111"/>
      <use x="503.857422" xlink:href="#DejaVuSans-110"/>
      <use x="567.236328" xlink:href="#DejaVuSans-115"/>
     </g>
    </g>
   </g>
   <g id="patch_209">
    <path d="M 44.57 299.76 
L 44.57 195.464751 
" style="fill:none;stroke:#000000;stroke-linecap:square;stroke-linejoin:miter;stroke-width:0.8;"/>
   </g>
   <g id="patch_210">
    <path d="M 45.57 300.76 
L 232.04 300.76 
" style="fill:none;stroke:#000000;stroke-linecap:square;stroke-linejoin:miter;stroke-width:0.8;"/>
   </g>
  </g>
  <g id="axes_4">
   <g id="patch_211">
    <path d="M 263.53 299.76 
L 450 299.76 
L 450 195.464751 
L 263.53 195.464751 
z
" style="fill:#ffffff;"/>
   </g>
   <g id="patch_212">
    <path clip-path="url(#pe43d7f6fa7)" d="M 272.005909 299.76 
L 274.729093 299.76 
L 274.729093 299.76 
L 272.005909 299.76 
z
" style="fill:#808080;"/>
   </g>
   <g id="patch_213">
    <path clip-path="url(#pe43d7f6fa7)" d="M 275.409889 299.76 
L 278.133072 299.76 
L 278.133072 299.76 
L 275.409889 299.76 
z
" style="fill:#808080;"/>
   </g>
   <g id="patch_214">
    <path clip-path="url(#pe43d7f6fa7)" d="M 278.813868 299.76 
L 281.537052 299.76 
L 281.537052 299.76 
L 278.813868 299.76 
z
" style="fill:#808080;"/>
   </g>
   <g id="patch_215">
    <path clip-path="url(#pe43d7f6fa7)" d="M 282.217848 299.76 
L 284.941031 299.76 
L 284.941031 299.76 
L 282.217848 299.76 
z
" style="fill:#808080;"/>
   </g>
   <g id="patch_216">
    <path clip-path="url(#pe43d7f6fa7)" d="M 285.621827 299.76 
L 288.345011 299.76 
L 288.345011 299.76 
L 285.621827 299.76 
z
" style="fill:#808080;"/>
   </g>
   <g id="patch_217">
    <path clip-path="url(#pe43d7f6fa7)" d="M 289.025807 299.76 
L 291.748991 299.76 
L 291.748991 299.76 
L 289.025807 299.76 
z
" style="fill:#808080;"/>
   </g>
   <g id="patch_218">
    <path clip-path="url(#pe43d7f6fa7)" d="M 292.429786 299.76 
L 295.15297 299.76 
L 295.15297 299.76 
L 292.429786 299.76 
z
" style="fill:#808080;"/>
   </g>
   <g id="patch_219">
    <path clip-path="url(#pe43d7f6fa7)" d="M 295.833766 299.76 
L 298.55695 299.76 
L 298.55695 299.76 
L 295.833766 299.76 
z
" style="fill:#808080;"/>
   </g>
   <g id="patch_220">
    <path clip-path="url(#pe43d7f6fa7)" d="M 299.237746 299.76 
L 301.960929 299.76 
L 301.960929 299.76 
L 299.237746 299.76 
z
" style="fill:#808080;"/>
   </g>
   <g id="patch_221">
    <path clip-path="url(#pe43d7f6fa7)" d="M 302.641725 299.76 
L 305.364909 299.76 
L 305.364909 281.700217 
L 302.641725 281.700217 
z
" style="fill:#808080;"/>
   </g>
   <g id="patch_222">
    <path clip-path="url(#pe43d7f6fa7)" d="M 306.045705 299.76 
L 308.768888 299.76 
L 308.768888 299.76 
L 306.045705 299.76 
z
" style="fill:#808080;"/>
   </g>
   <g id="patch_223">
    <path clip-path="url(#pe43d7f6fa7)" d="M 309.449684 299.76 
L 312.172868 299.76 
L 312.172868 299.76 
L 309.449684 299.76 
z
" style="fill:#808080;"/>
   </g>
   <g id="patch_224">
    <path clip-path="url(#pe43d7f6fa7)" d="M 312.853664 299.76 
L 315.576847 299.76 
L 315.576847 299.76 
L 312.853664 299.76 
z
" style="fill:#808080;"/>
   </g>
   <g id="patch_225">
    <path clip-path="url(#pe43d7f6fa7)" d="M 316.257643 299.76 
L 318.980827 299.76 
L 318.980827 299.76 
L 316.257643 299.76 
z
" style="fill:#808080;"/>
   </g>
   <g id="patch_226">
    <path clip-path="url(#pe43d7f6fa7)" d="M 319.661623 299.76 
L 322.384806 299.76 
L 322.384806 299.76 
L 319.661623 299.76 
z
" style="fill:#808080;"/>
   </g>
   <g id="patch_227">
    <path clip-path="url(#pe43d7f6fa7)" d="M 323.065602 299.76 
L 325.788786 299.76 
L 325.788786 299.76 
L 323.065602 299.76 
z
" style="fill:#808080;"/>
   </g>
   <g id="patch_228">
    <path clip-path="url(#pe43d7f6fa7)" d="M 326.469582 299.76 
L 329.192766 299.76 
L 329.192766 299.76 
L 326.469582 299.76 
z
" style="fill:#808080;"/>
   </g>
   <g id="patch_229">
    <path clip-path="url(#pe43d7f6fa7)" d="M 329.873562 299.76 
L 332.596745 299.76 
L 332.596745 299.76 
L 329.873562 299.76 
z
" style="fill:#808080;"/>
   </g>
   <g id="patch_230">
    <path clip-path="url(#pe43d7f6fa7)" d="M 333.277541 299.76 
L 336.000725 299.76 
L 336.000725 299.76 
L 333.277541 299.76 
z
" style="fill:#808080;"/>
   </g>
   <g id="patch_231">
    <path clip-path="url(#pe43d7f6fa7)" d="M 336.681521 299.76 
L 339.404704 299.76 
L 339.404704 299.76 
L 336.681521 299.76 
z
" style="fill:#808080;"/>
   </g>
   <g id="patch_232">
    <path clip-path="url(#pe43d7f6fa7)" d="M 340.0855 299.76 
L 342.808684 299.76 
L 342.808684 299.76 
L 340.0855 299.76 
z
" style="fill:#808080;"/>
   </g>
   <g id="patch_233">
    <path clip-path="url(#pe43d7f6fa7)" d="M 343.48948 299.76 
L 346.212663 299.76 
L 346.212663 299.76 
L 343.48948 299.76 
z
" style="fill:#808080;"/>
   </g>
   <g id="patch_234">
    <path clip-path="url(#pe43d7f6fa7)" d="M 346.893459 299.76 
L 349.616643 299.76 
L 349.616643 299.76 
L 346.893459 299.76 
z
" style="fill:#808080;"/>
   </g>
   <g id="patch_235">
    <path clip-path="url(#pe43d7f6fa7)" d="M 350.297439 299.76 
L 353.020622 299.76 
L 353.020622 299.76 
L 350.297439 299.76 
z
" style="fill:#808080;"/>
   </g>
   <g id="patch_236">
    <path clip-path="url(#pe43d7f6fa7)" d="M 353.701418 299.76 
L 356.424602 299.76 
L 356.424602 299.76 
L 353.701418 299.76 
z
" style="fill:#808080;"/>
   </g>
   <g id="patch_237">
    <path clip-path="url(#pe43d7f6fa7)" d="M 357.105398 299.76 
L 359.828582 299.76 
L 359.828582 299.76 
L 357.105398 299.76 
z
" style="fill:#808080;"/>
   </g>
   <g id="patch_238">
    <path clip-path="url(#pe43d7f6fa7)" d="M 360.509378 299.76 
L 363.232561 299.76 
L 363.232561 299.76 
L 360.509378 299.76 
z
" style="fill:#808080;"/>
   </g>
   <g id="patch_239">
    <path clip-path="url(#pe43d7f6fa7)" d="M 363.913357 299.76 
L 366.636541 299.76 
L 366.636541 299.76 
L 363.913357 299.76 
z
" style="fill:#808080;"/>
   </g>
   <g id="patch_240">
    <path clip-path="url(#pe43d7f6fa7)" d="M 367.317337 299.76 
L 370.04052 299.76 
L 370.04052 299.76 
L 367.317337 299.76 
z
" style="fill:#808080;"/>
   </g>
   <g id="patch_241">
    <path clip-path="url(#pe43d7f6fa7)" d="M 370.721316 299.76 
L 373.4445 299.76 
L 373.4445 299.76 
L 370.721316 299.76 
z
" style="fill:#808080;"/>
   </g>
   <g id="patch_242">
    <path clip-path="url(#pe43d7f6fa7)" d="M 374.125296 299.76 
L 376.848479 299.76 
L 376.848479 281.700217 
L 374.125296 281.700217 
z
" style="fill:#808080;"/>
   </g>
   <g id="patch_243">
    <path clip-path="url(#pe43d7f6fa7)" d="M 377.529275 299.76 
L 380.252459 299.76 
L 380.252459 227.520866 
L 377.529275 227.520866 
z
" style="fill:#808080;"/>
   </g>
   <g id="patch_244">
    <path clip-path="url(#pe43d7f6fa7)" d="M 380.933255 299.76 
L 383.656438 299.76 
L 383.656438 227.520866 
L 380.933255 227.520866 
z
" style="fill:#808080;"/>
   </g>
   <g id="patch_245">
    <path clip-path="url(#pe43d7f6fa7)" d="M 384.337234 299.76 
L 387.060418 299.76 
L 387.060418 263.640433 
L 384.337234 263.640433 
z
" style="fill:#808080;"/>
   </g>
   <g id="patch_246">
    <path clip-path="url(#pe43d7f6fa7)" d="M 387.741214 299.76 
L 390.464398 299.76 
L 390.464398 254.610541 
L 387.741214 254.610541 
z
" style="fill:#808080;"/>
   </g>
   <g id="patch_247">
    <path clip-path="url(#pe43d7f6fa7)" d="M 391.145194 299.76 
L 393.868377 299.76 
L 393.868377 200.431191 
L 391.145194 200.431191 
z
" style="fill:#808080;"/>
   </g>
   <g id="patch_248">
    <path clip-path="url(#pe43d7f6fa7)" d="M 394.549173 299.76 
L 397.272357 299.76 
L 397.272357 272.670325 
L 394.549173 272.670325 
z
" style="fill:#808080;"/>
   </g>
   <g id="patch_249">
    <path clip-path="url(#pe43d7f6fa7)" d="M 397.953153 299.76 
L 400.676336 299.76 
L 400.676336 290.730108 
L 397.953153 290.730108 
z
" style="fill:#808080;"/>
   </g>
   <g id="patch_250">
    <path clip-path="url(#pe43d7f6fa7)" d="M 401.357132 299.76 
L 404.080316 299.76 
L 404.080316 281.700217 
L 401.357132 281.700217 
z
" style="fill:#808080;"/>
   </g>
   <g id="patch_251">
    <path clip-path="url(#pe43d7f6fa7)" d="M 404.761112 299.76 
L 407.484295 299.76 
L 407.484295 290.730108 
L 404.761112 290.730108 
z
" style="fill:#808080;"/>
   </g>
   <g id="patch_252">
    <path clip-path="url(#pe43d7f6fa7)" d="M 408.165091 299.76 
L 410.888275 299.76 
L 410.888275 290.730108 
L 408.165091 290.730108 
z
" style="fill:#808080;"/>
   </g>
   <g id="patch_253">
    <path clip-path="url(#pe43d7f6fa7)" d="M 411.569071 299.76 
L 414.292254 299.76 
L 414.292254 290.730108 
L 411.569071 290.730108 
z
" style="fill:#808080;"/>
   </g>
   <g id="patch_254">
    <path clip-path="url(#pe43d7f6fa7)" d="M 414.97305 299.76 
L 417.696234 299.76 
L 417.696234 299.76 
L 414.97305 299.76 
z
" style="fill:#808080;"/>
   </g>
   <g id="patch_255">
    <path clip-path="url(#pe43d7f6fa7)" d="M 418.37703 299.76 
L 421.100214 299.76 
L 421.100214 299.76 
L 418.37703 299.76 
z
" style="fill:#808080;"/>
   </g>
   <g id="patch_256">
    <path clip-path="url(#pe43d7f6fa7)" d="M 421.781009 299.76 
L 424.504193 299.76 
L 424.504193 299.76 
L 421.781009 299.76 
z
" style="fill:#808080;"/>
   </g>
   <g id="patch_257">
    <path clip-path="url(#pe43d7f6fa7)" d="M 425.184989 299.76 
L 427.908173 299.76 
L 427.908173 299.76 
L 425.184989 299.76 
z
" style="fill:#808080;"/>
   </g>
   <g id="patch_258">
    <path clip-path="url(#pe43d7f6fa7)" d="M 428.588969 299.76 
L 431.312152 299.76 
L 431.312152 299.76 
L 428.588969 299.76 
z
" style="fill:#808080;"/>
   </g>
   <g id="patch_259">
    <path clip-path="url(#pe43d7f6fa7)" d="M 431.992948 299.76 
L 434.716132 299.76 
L 434.716132 299.76 
L 431.992948 299.76 
z
" style="fill:#808080;"/>
   </g>
   <g id="patch_260">
    <path clip-path="url(#pe43d7f6fa7)" d="M 435.396928 299.76 
L 438.120111 299.76 
L 438.120111 299.76 
L 435.396928 299.76 
z
" style="fill:#808080;"/>
   </g>
   <g id="patch_261">
    <path clip-path="url(#pe43d7f6fa7)" d="M 438.800907 299.76 
L 441.524091 299.76 
L 441.524091 299.76 
L 438.800907 299.76 
z
" style="fill:#808080;"/>
   </g>
   <g id="matplotlib.axis_7">
    <g id="xtick_19">
     <g id="line2d_30">
      <g>
       <use style="stroke:#000000;stroke-width:0.8;" x="271.665511" xlink:href="#m6b6098f0be" y="300.76"/>
      </g>
     </g>
     <g id="text_35">
      <!-- −4 -->
      <g transform="translate(264.294417 315.358437)scale(0.1 -0.1)">
       <use xlink:href="#DejaVuSans-8722"/>
       <use x="83.789062" xlink:href="#DejaVuSans-52"/>
      </g>
     </g>
    </g>
    <g id="xtick_20">
     <g id="line2d_31">
      <g>
       <use style="stroke:#000000;stroke-width:0.8;" x="305.705307" xlink:href="#m6b6098f0be" y="300.76"/>
      </g>
     </g>
     <g id="text_36">
      <!-- −3 -->
      <g transform="translate(298.334213 315.358437)scale(0.1 -0.1)">
       <use xlink:href="#DejaVuSans-8722"/>
       <use x="83.789062" xlink:href="#DejaVuSans-51"/>
      </g>
     </g>
    </g>
    <g id="xtick_21">
     <g id="line2d_32">
      <g>
       <use style="stroke:#000000;stroke-width:0.8;" x="339.745102" xlink:href="#m6b6098f0be" y="300.76"/>
      </g>
     </g>
     <g id="text_37">
      <!-- −2 -->
      <g transform="translate(332.374008 315.358437)scale(0.1 -0.1)">
       <use xlink:href="#DejaVuSans-8722"/>
       <use x="83.789062" xlink:href="#DejaVuSans-50"/>
      </g>
     </g>
    </g>
    <g id="xtick_22">
     <g id="line2d_33">
      <g>
       <use style="stroke:#000000;stroke-width:0.8;" x="373.784898" xlink:href="#m6b6098f0be" y="300.76"/>
      </g>
     </g>
     <g id="text_38">
      <!-- −1 -->
      <g transform="translate(366.413804 315.358437)scale(0.1 -0.1)">
       <use xlink:href="#DejaVuSans-8722"/>
       <use x="83.789062" xlink:href="#DejaVuSans-49"/>
      </g>
     </g>
    </g>
    <g id="xtick_23">
     <g id="line2d_34">
      <g>
       <use style="stroke:#000000;stroke-width:0.8;" x="407.824693" xlink:href="#m6b6098f0be" y="300.76"/>
      </g>
     </g>
     <g id="text_39">
      <!-- 0 -->
      <g transform="translate(404.643443 315.358437)scale(0.1 -0.1)">
       <use xlink:href="#DejaVuSans-48"/>
      </g>
     </g>
    </g>
    <g id="xtick_24">
     <g id="line2d_35">
      <g>
       <use style="stroke:#000000;stroke-width:0.8;" x="441.864489" xlink:href="#m6b6098f0be" y="300.76"/>
      </g>
     </g>
     <g id="text_40">
      <!-- 1 -->
      <g transform="translate(438.683239 315.358437)scale(0.1 -0.1)">
       <use xlink:href="#DejaVuSans-49"/>
      </g>
     </g>
    </g>
    <g id="text_41">
     <!-- $\log_{10}\omega$ -->
     <defs>
      <path d="M 21.390625 -1.421875 
Q 1.125 -1.421875 6.78125 27.59375 
Q 8.984375 39.0625 19.625 54.6875 
L 29.296875 54.6875 
Q 19.234375 39.0625 17 27.34375 
Q 12.796875 6.203125 23.734375 6.203125 
Q 33.84375 6.203125 38.71875 32.46875 
L 47.015625 32.46875 
Q 41.703125 6.0625 51.8125 6.203125 
Q 62.703125 6.296875 66.796875 27.34375 
Q 69.046875 39.0625 65.140625 54.6875 
L 74.8125 54.6875 
Q 79.296875 39.0625 77.09375 27.59375 
Q 71.53125 -1.46875 51.21875 -1.421875 
Q 37.9375 -1.375 39.109375 13.1875 
Q 34.28125 -1.421875 21.390625 -1.421875 
z
" id="DejaVuSans-Oblique-969"/>
     </defs>
     <g transform="translate(340.315 329.038125)scale(0.1 -0.1)">
      <use transform="translate(0 0.015625)" xlink:href="#DejaVuSans-108"/>
      <use transform="translate(27.783203 0.015625)" xlink:href="#DejaVuSans-111"/>
      <use transform="translate(88.964844 0.015625)" xlink:href="#DejaVuSans-103"/>
      <use transform="translate(153.398438 -16.390625)scale(0.7)" xlink:href="#DejaVuSans-49"/>
      <use transform="translate(197.93457 -16.390625)scale(0.7)" xlink:href="#DejaVuSans-48"/>
      <use transform="translate(245.205078 0.015625)" xlink:href="#DejaVuSans-Oblique-969"/>
     </g>
    </g>
   </g>
   <g id="matplotlib.axis_8">
    <g id="ytick_12">
     <g id="line2d_36">
      <g>
       <use style="stroke:#000000;stroke-width:0.8;" x="262.53" xlink:href="#mc85380cb28" y="299.76"/>
      </g>
     </g>
     <g id="text_42">
      <!-- 0.0 -->
      <g transform="translate(239.626875 303.559219)scale(0.1 -0.1)">
       <use xlink:href="#DejaVuSans-48"/>
       <use x="63.623047" xlink:href="#DejaVuSans-46"/>
       <use x="95.410156" xlink:href="#DejaVuSans-48"/>
      </g>
     </g>
    </g>
    <g id="ytick_13">
     <g id="line2d_37">
      <g>
       <use style="stroke:#000000;stroke-width:0.8;" x="262.53" xlink:href="#mc85380cb28" y="277.185271"/>
      </g>
     </g>
     <g id="text_43">
      <!-- 2.5 -->
      <g transform="translate(239.626875 280.984489)scale(0.1 -0.1)">
       <use xlink:href="#DejaVuSans-50"/>
       <use x="63.623047" xlink:href="#DejaVuSans-46"/>
       <use x="95.410156" xlink:href="#DejaVuSans-53"/>
      </g>
     </g>
    </g>
    <g id="ytick_14">
     <g id="line2d_38">
      <g>
       <use style="stroke:#000000;stroke-width:0.8;" x="262.53" xlink:href="#mc85380cb28" y="254.610541"/>
      </g>
     </g>
     <g id="text_44">
      <!-- 5.0 -->
      <g transform="translate(239.626875 258.40976)scale(0.1 -0.1)">
       <use xlink:href="#DejaVuSans-53"/>
       <use x="63.623047" xlink:href="#DejaVuSans-46"/>
       <use x="95.410156" xlink:href="#DejaVuSans-48"/>
      </g>
     </g>
    </g>
    <g id="ytick_15">
     <g id="line2d_39">
      <g>
       <use style="stroke:#000000;stroke-width:0.8;" x="262.53" xlink:href="#mc85380cb28" y="232.035812"/>
      </g>
     </g>
     <g id="text_45">
      <!-- 7.5 -->
      <g transform="translate(239.626875 235.835031)scale(0.1 -0.1)">
       <use xlink:href="#DejaVuSans-55"/>
       <use x="63.623047" xlink:href="#DejaVuSans-46"/>
       <use x="95.410156" xlink:href="#DejaVuSans-53"/>
      </g>
     </g>
    </g>
    <g id="ytick_16">
     <g id="line2d_40">
      <g>
       <use style="stroke:#000000;stroke-width:0.8;" x="262.53" xlink:href="#mc85380cb28" y="209.461083"/>
      </g>
     </g>
     <g id="text_46">
      <!-- 10.0 -->
      <g transform="translate(233.264375 213.260302)scale(0.1 -0.1)">
       <use xlink:href="#DejaVuSans-49"/>
       <use x="63.623047" xlink:href="#DejaVuSans-48"/>
       <use x="127.246094" xlink:href="#DejaVuSans-46"/>
       <use x="159.033203" xlink:href="#DejaVuSans-48"/>
      </g>
     </g>
    </g>
   </g>
   <g id="patch_262">
    <path d="M 262.53 299.76 
L 262.53 195.464751 
" style="fill:none;stroke:#000000;stroke-linecap:square;stroke-linejoin:miter;stroke-width:0.8;"/>
   </g>
   <g id="patch_263">
    <path d="M 263.53 300.76 
L 450 300.76 
" style="fill:none;stroke:#000000;stroke-linecap:square;stroke-linejoin:miter;stroke-width:0.8;"/>
   </g>
  </g>
  <g id="text_47">
   <!-- egu1000.fasta.tsv.ks.tsv -->
   <defs>
    <path d="M 56.203125 29.59375 
L 56.203125 25.203125 
L 14.890625 25.203125 
Q 15.484375 15.921875 20.484375 11.0625 
Q 25.484375 6.203125 34.421875 6.203125 
Q 39.59375 6.203125 44.453125 7.46875 
Q 49.3125 8.734375 54.109375 11.28125 
L 54.109375 2.78125 
Q 49.265625 0.734375 44.1875 -0.34375 
Q 39.109375 -1.421875 33.890625 -1.421875 
Q 20.796875 -1.421875 13.15625 6.1875 
Q 5.515625 13.8125 5.515625 26.8125 
Q 5.515625 40.234375 12.765625 48.109375 
Q 20.015625 56 32.328125 56 
Q 43.359375 56 49.78125 48.890625 
Q 56.203125 41.796875 56.203125 29.59375 
z
M 47.21875 32.234375 
Q 47.125 39.59375 43.09375 43.984375 
Q 39.0625 48.390625 32.421875 48.390625 
Q 24.90625 48.390625 20.390625 44.140625 
Q 15.875 39.890625 15.1875 32.171875 
z
" id="DejaVuSans-101"/>
    <path d="M 37.109375 75.984375 
L 37.109375 68.5 
L 28.515625 68.5 
Q 23.6875 68.5 21.796875 66.546875 
Q 19.921875 64.59375 19.921875 59.515625 
L 19.921875 54.6875 
L 34.71875 54.6875 
L 34.71875 47.703125 
L 19.921875 47.703125 
L 19.921875 0 
L 10.890625 0 
L 10.890625 47.703125 
L 2.296875 47.703125 
L 2.296875 54.6875 
L 10.890625 54.6875 
L 10.890625 58.5 
Q 10.890625 67.625 15.140625 71.796875 
Q 19.390625 75.984375 28.609375 75.984375 
z
" id="DejaVuSans-102"/>
    <path d="M 2.984375 54.6875 
L 12.5 54.6875 
L 29.59375 8.796875 
L 46.6875 54.6875 
L 56.203125 54.6875 
L 35.6875 0 
L 23.484375 0 
z
" id="DejaVuSans-118"/>
    <path d="M 9.078125 75.984375 
L 18.109375 75.984375 
L 18.109375 31.109375 
L 44.921875 54.6875 
L 56.390625 54.6875 
L 27.390625 29.109375 
L 57.625 0 
L 45.90625 0 
L 18.109375 26.703125 
L 18.109375 0 
L 9.078125 0 
z
" id="DejaVuSans-107"/>
   </defs>
   <g transform="translate(57.6 43.678125)scale(0.12 -0.12)">
    <use xlink:href="#DejaVuSans-101"/>
    <use x="61.523438" xlink:href="#DejaVuSans-103"/>
    <use x="125" xlink:href="#DejaVuSans-117"/>
    <use x="188.378906" xlink:href="#DejaVuSans-49"/>
    <use x="252.001953" xlink:href="#DejaVuSans-48"/>
    <use x="315.625" xlink:href="#DejaVuSans-48"/>
    <use x="379.248047" xlink:href="#DejaVuSans-48"/>
    <use x="442.871094" xlink:href="#DejaVuSans-46"/>
    <use x="474.658203" xlink:href="#DejaVuSans-102"/>
    <use x="509.863281" xlink:href="#DejaVuSans-97"/>
    <use x="571.142578" xlink:href="#DejaVuSans-115"/>
    <use x="623.242188" xlink:href="#DejaVuSans-116"/>
    <use x="662.451172" xlink:href="#DejaVuSans-97"/>
    <use x="723.730469" xlink:href="#DejaVuSans-46"/>
    <use x="755.517578" xlink:href="#DejaVuSans-116"/>
    <use x="794.726562" xlink:href="#DejaVuSans-115"/>
    <use x="846.826172" xlink:href="#DejaVuSans-118"/>
    <use x="898.255859" xlink:href="#DejaVuSans-46"/>
    <use x="930.042969" xlink:href="#DejaVuSans-107"/>
    <use x="987.953125" xlink:href="#DejaVuSans-115"/>
    <use x="1040.052734" xlink:href="#DejaVuSans-46"/>
    <use x="1071.839844" xlink:href="#DejaVuSans-116"/>
    <use x="1111.048828" xlink:href="#DejaVuSans-115"/>
    <use x="1163.148438" xlink:href="#DejaVuSans-118"/>
   </g>
  </g>
 </g>
 <defs>
  <clipPath id="pfba2a2c5fc">
   <rect height="104.295249" width="186.47" x="45.57" y="51.84"/>
  </clipPath>
  <clipPath id="p1de11269ef">
   <rect height="104.295249" width="186.47" x="263.53" y="51.84"/>
  </clipPath>
  <clipPath id="pdacf0d27b3">
   <rect height="104.295249" width="186.47" x="45.57" y="195.464751"/>
  </clipPath>
  <clipPath id="pe43d7f6fa7">
   <rect height="104.295249" width="186.47" x="263.53" y="195.464751"/>
  </clipPath>
 </defs>
</svg>
