<?xml version="1.0" encoding="utf-8" standalone="no"?>
<!DOCTYPE svg PUBLIC "-//W3C//DTD SVG 1.1//EN"
  "http://www.w3.org/Graphics/SVG/1.1/DTD/svg11.dtd">
<!-- Created with matplotlib (https://matplotlib.org/) -->
<svg height="720pt" version="1.1" viewBox="0 0 720 720" width="720pt" xmlns="http://www.w3.org/2000/svg" xmlns:xlink="http://www.w3.org/1999/xlink">
 <defs>
  <style type="text/css">
*{stroke-linecap:butt;stroke-linejoin:round;}
  </style>
 </defs>
 <g id="figure_1">
  <g id="patch_1">
   <path d="M 0 720 
L 720 720 
L 720 0 
L 0 0 
z
" style="fill:#ffffff;"/>
  </g>
  <g id="axes_1">
   <g id="patch_2">
    <path d="M 47.72 675.592 
L 706.05 675.592 
L 706.05 28.32 
L 47.72 28.32 
z
" style="fill:#ffffff;"/>
   </g>
   <g id="patch_3">
    <path clip-path="url(#p542af5801f)" d="M 48.660471 675.592 
L 56.184243 675.592 
L 56.184243 675.592 
L 48.660471 675.592 
z
" style="fill:#808080;opacity:0.2;"/>
   </g>
   <g id="patch_4">
    <path clip-path="url(#p542af5801f)" d="M 58.065186 675.592 
L 65.588957 675.592 
L 65.588957 675.592 
L 58.065186 675.592 
z
" style="fill:#808080;opacity:0.2;"/>
   </g>
   <g id="patch_5">
    <path clip-path="url(#p542af5801f)" d="M 67.4699 675.592 
L 74.993671 675.592 
L 74.993671 675.592 
L 67.4699 675.592 
z
" style="fill:#808080;opacity:0.2;"/>
   </g>
   <g id="patch_6">
    <path clip-path="url(#p542af5801f)" d="M 76.874614 675.592 
L 84.398386 675.592 
L 84.398386 675.592 
L 76.874614 675.592 
z
" style="fill:#808080;opacity:0.2;"/>
   </g>
   <g id="patch_7">
    <path clip-path="url(#p542af5801f)" d="M 86.279329 675.592 
L 93.8031 675.592 
L 93.8031 675.592 
L 86.279329 675.592 
z
" style="fill:#808080;opacity:0.2;"/>
   </g>
   <g id="patch_8">
    <path clip-path="url(#p542af5801f)" d="M 95.684043 675.592 
L 103.207814 675.592 
L 103.207814 515.590377 
L 95.684043 515.590377 
z
" style="fill:#808080;opacity:0.2;"/>
   </g>
   <g id="patch_9">
    <path clip-path="url(#p542af5801f)" d="M 105.088757 675.592 
L 112.612529 675.592 
L 112.612529 675.592 
L 105.088757 675.592 
z
" style="fill:#808080;opacity:0.2;"/>
   </g>
   <g id="patch_10">
    <path clip-path="url(#p542af5801f)" d="M 114.493471 675.592 
L 122.017243 675.592 
L 122.017243 675.592 
L 114.493471 675.592 
z
" style="fill:#808080;opacity:0.2;"/>
   </g>
   <g id="patch_11">
    <path clip-path="url(#p542af5801f)" d="M 123.898186 675.592 
L 131.421957 675.592 
L 131.421957 675.592 
L 123.898186 675.592 
z
" style="fill:#808080;opacity:0.2;"/>
   </g>
   <g id="patch_12">
    <path clip-path="url(#p542af5801f)" d="M 133.3029 675.592 
L 140.826671 675.592 
L 140.826671 675.592 
L 133.3029 675.592 
z
" style="fill:#808080;opacity:0.2;"/>
   </g>
   <g id="patch_13">
    <path clip-path="url(#p542af5801f)" d="M 142.707614 675.592 
L 150.231386 675.592 
L 150.231386 675.592 
L 142.707614 675.592 
z
" style="fill:#808080;opacity:0.2;"/>
   </g>
   <g id="patch_14">
    <path clip-path="url(#p542af5801f)" d="M 152.112329 675.592 
L 159.6361 675.592 
L 159.6361 675.592 
L 152.112329 675.592 
z
" style="fill:#808080;opacity:0.2;"/>
   </g>
   <g id="patch_15">
    <path clip-path="url(#p542af5801f)" d="M 161.517043 675.592 
L 169.040814 675.592 
L 169.040814 675.592 
L 161.517043 675.592 
z
" style="fill:#808080;opacity:0.2;"/>
   </g>
   <g id="patch_16">
    <path clip-path="url(#p542af5801f)" d="M 170.921757 675.592 
L 178.445529 675.592 
L 178.445529 515.590377 
L 170.921757 515.590377 
z
" style="fill:#808080;opacity:0.2;"/>
   </g>
   <g id="patch_17">
    <path clip-path="url(#p542af5801f)" d="M 180.326471 675.592 
L 187.850243 675.592 
L 187.850243 675.592 
L 180.326471 675.592 
z
" style="fill:#808080;opacity:0.2;"/>
   </g>
   <g id="patch_18">
    <path clip-path="url(#p542af5801f)" d="M 189.731186 675.592 
L 197.254957 675.592 
L 197.254957 515.590377 
L 189.731186 515.590377 
z
" style="fill:#808080;opacity:0.2;"/>
   </g>
   <g id="patch_19">
    <path clip-path="url(#p542af5801f)" d="M 199.1359 675.592 
L 206.659671 675.592 
L 206.659671 595.591189 
L 199.1359 595.591189 
z
" style="fill:#808080;opacity:0.2;"/>
   </g>
   <g id="patch_20">
    <path clip-path="url(#p542af5801f)" d="M 208.540614 675.592 
L 216.064386 675.592 
L 216.064386 675.592 
L 208.540614 675.592 
z
" style="fill:#808080;opacity:0.2;"/>
   </g>
   <g id="patch_21">
    <path clip-path="url(#p542af5801f)" d="M 217.945329 675.592 
L 225.4691 675.592 
L 225.4691 675.592 
L 217.945329 675.592 
z
" style="fill:#808080;opacity:0.2;"/>
   </g>
   <g id="patch_22">
    <path clip-path="url(#p542af5801f)" d="M 227.350043 675.592 
L 234.873814 675.592 
L 234.873814 595.591189 
L 227.350043 595.591189 
z
" style="fill:#808080;opacity:0.2;"/>
   </g>
   <g id="patch_23">
    <path clip-path="url(#p542af5801f)" d="M 236.754757 675.592 
L 244.278529 675.592 
L 244.278529 435.589566 
L 236.754757 435.589566 
z
" style="fill:#808080;opacity:0.2;"/>
   </g>
   <g id="patch_24">
    <path clip-path="url(#p542af5801f)" d="M 246.159471 675.592 
L 253.683243 675.592 
L 253.683243 675.592 
L 246.159471 675.592 
z
" style="fill:#808080;opacity:0.2;"/>
   </g>
   <g id="patch_25">
    <path clip-path="url(#p542af5801f)" d="M 255.564186 675.592 
L 263.087957 675.592 
L 263.087957 675.592 
L 255.564186 675.592 
z
" style="fill:#808080;opacity:0.2;"/>
   </g>
   <g id="patch_26">
    <path clip-path="url(#p542af5801f)" d="M 264.9689 675.592 
L 272.492671 675.592 
L 272.492671 675.592 
L 264.9689 675.592 
z
" style="fill:#808080;opacity:0.2;"/>
   </g>
   <g id="patch_27">
    <path clip-path="url(#p542af5801f)" d="M 274.373614 675.592 
L 281.897386 675.592 
L 281.897386 515.590377 
L 274.373614 515.590377 
z
" style="fill:#808080;opacity:0.2;"/>
   </g>
   <g id="patch_28">
    <path clip-path="url(#p542af5801f)" d="M 283.778329 675.592 
L 291.3021 675.592 
L 291.3021 675.592 
L 283.778329 675.592 
z
" style="fill:#808080;opacity:0.2;"/>
   </g>
   <g id="patch_29">
    <path clip-path="url(#p542af5801f)" d="M 293.183043 675.592 
L 300.706814 675.592 
L 300.706814 675.592 
L 293.183043 675.592 
z
" style="fill:#808080;opacity:0.2;"/>
   </g>
   <g id="patch_30">
    <path clip-path="url(#p542af5801f)" d="M 302.587757 675.592 
L 310.111529 675.592 
L 310.111529 515.590377 
L 302.587757 515.590377 
z
" style="fill:#808080;opacity:0.2;"/>
   </g>
   <g id="patch_31">
    <path clip-path="url(#p542af5801f)" d="M 311.992471 675.592 
L 319.516243 675.592 
L 319.516243 515.590377 
L 311.992471 515.590377 
z
" style="fill:#808080;opacity:0.2;"/>
   </g>
   <g id="patch_32">
    <path clip-path="url(#p542af5801f)" d="M 321.397186 675.592 
L 328.920957 675.592 
L 328.920957 515.590377 
L 321.397186 515.590377 
z
" style="fill:#808080;opacity:0.2;"/>
   </g>
   <g id="patch_33">
    <path clip-path="url(#p542af5801f)" d="M 330.8019 675.592 
L 338.325671 675.592 
L 338.325671 408.922629 
L 330.8019 408.922629 
z
" style="fill:#808080;opacity:0.2;"/>
   </g>
   <g id="patch_34">
    <path clip-path="url(#p542af5801f)" d="M 340.206614 675.592 
L 347.730386 675.592 
L 347.730386 462.256503 
L 340.206614 462.256503 
z
" style="fill:#808080;opacity:0.2;"/>
   </g>
   <g id="patch_35">
    <path clip-path="url(#p542af5801f)" d="M 349.611329 675.592 
L 357.1351 675.592 
L 357.1351 115.586321 
L 349.611329 115.586321 
z
" style="fill:#808080;opacity:0.2;"/>
   </g>
   <g id="patch_36">
    <path clip-path="url(#p542af5801f)" d="M 359.016043 675.592 
L 366.539814 675.592 
L 366.539814 675.592 
L 359.016043 675.592 
z
" style="fill:#808080;opacity:0.2;"/>
   </g>
   <g id="patch_37">
    <path clip-path="url(#p542af5801f)" d="M 368.420757 675.592 
L 375.944529 675.592 
L 375.944529 675.592 
L 368.420757 675.592 
z
" style="fill:#808080;opacity:0.2;"/>
   </g>
   <g id="patch_38">
    <path clip-path="url(#p542af5801f)" d="M 377.825471 675.592 
L 385.349243 675.592 
L 385.349243 515.590377 
L 377.825471 515.590377 
z
" style="fill:#808080;opacity:0.2;"/>
   </g>
   <g id="patch_39">
    <path clip-path="url(#p542af5801f)" d="M 387.230186 675.592 
L 394.753957 675.592 
L 394.753957 515.590377 
L 387.230186 515.590377 
z
" style="fill:#808080;opacity:0.2;"/>
   </g>
   <g id="patch_40">
    <path clip-path="url(#p542af5801f)" d="M 396.6349 675.592 
L 404.158671 675.592 
L 404.158671 355.588755 
L 396.6349 355.588755 
z
" style="fill:#808080;opacity:0.2;"/>
   </g>
   <g id="patch_41">
    <path clip-path="url(#p542af5801f)" d="M 406.039614 675.592 
L 413.563386 675.592 
L 413.563386 675.592 
L 406.039614 675.592 
z
" style="fill:#808080;opacity:0.2;"/>
   </g>
   <g id="patch_42">
    <path clip-path="url(#p542af5801f)" d="M 415.444329 675.592 
L 422.9681 675.592 
L 422.9681 555.590783 
L 415.444329 555.590783 
z
" style="fill:#808080;opacity:0.2;"/>
   </g>
   <g id="patch_43">
    <path clip-path="url(#p542af5801f)" d="M 424.849043 675.592 
L 432.372814 675.592 
L 432.372814 395.58916 
L 424.849043 395.58916 
z
" style="fill:#808080;opacity:0.2;"/>
   </g>
   <g id="patch_44">
    <path clip-path="url(#p542af5801f)" d="M 434.253757 675.592 
L 441.777529 675.592 
L 441.777529 475.589972 
L 434.253757 475.589972 
z
" style="fill:#808080;opacity:0.2;"/>
   </g>
   <g id="patch_45">
    <path clip-path="url(#p542af5801f)" d="M 443.658471 675.592 
L 451.182243 675.592 
L 451.182243 475.589972 
L 443.658471 475.589972 
z
" style="fill:#808080;opacity:0.2;"/>
   </g>
   <g id="patch_46">
    <path clip-path="url(#p542af5801f)" d="M 453.063186 675.592 
L 460.586957 675.592 
L 460.586957 455.589769 
L 453.063186 455.589769 
z
" style="fill:#808080;opacity:0.2;"/>
   </g>
   <g id="patch_47">
    <path clip-path="url(#p542af5801f)" d="M 462.4679 675.592 
L 469.991671 675.592 
L 469.991671 495.590174 
L 462.4679 495.590174 
z
" style="fill:#808080;opacity:0.2;"/>
   </g>
   <g id="patch_48">
    <path clip-path="url(#p542af5801f)" d="M 471.872614 675.592 
L 479.396386 675.592 
L 479.396386 315.588349 
L 471.872614 315.588349 
z
" style="fill:#808080;opacity:0.2;"/>
   </g>
   <g id="patch_49">
    <path clip-path="url(#p542af5801f)" d="M 481.277329 675.592 
L 488.8011 675.592 
L 488.8011 595.591189 
L 481.277329 595.591189 
z
" style="fill:#808080;opacity:0.2;"/>
   </g>
   <g id="patch_50">
    <path clip-path="url(#p542af5801f)" d="M 490.682043 675.592 
L 498.205814 675.592 
L 498.205814 595.591189 
L 490.682043 595.591189 
z
" style="fill:#808080;opacity:0.2;"/>
   </g>
   <g id="patch_51">
    <path clip-path="url(#p542af5801f)" d="M 500.086757 675.592 
L 507.610529 675.592 
L 507.610529 635.591594 
L 500.086757 635.591594 
z
" style="fill:#808080;opacity:0.2;"/>
   </g>
   <g id="patch_52">
    <path clip-path="url(#p542af5801f)" d="M 509.491471 675.592 
L 517.015243 675.592 
L 517.015243 643.591675 
L 509.491471 643.591675 
z
" style="fill:#808080;opacity:0.2;"/>
   </g>
   <g id="patch_53">
    <path clip-path="url(#p542af5801f)" d="M 518.896186 675.592 
L 526.419957 675.592 
L 526.419957 147.586645 
L 518.896186 147.586645 
z
" style="fill:#808080;opacity:0.2;"/>
   </g>
   <g id="patch_54">
    <path clip-path="url(#p542af5801f)" d="M 528.3009 675.592 
L 535.824671 675.592 
L 535.824671 526.257152 
L 528.3009 526.257152 
z
" style="fill:#808080;opacity:0.2;"/>
   </g>
   <g id="patch_55">
    <path clip-path="url(#p542af5801f)" d="M 537.705614 675.592 
L 545.229386 675.592 
L 545.229386 200.920519 
L 537.705614 200.920519 
z
" style="fill:#808080;opacity:0.2;"/>
   </g>
   <g id="patch_56">
    <path clip-path="url(#p542af5801f)" d="M 547.110329 675.592 
L 554.6341 675.592 
L 554.6341 579.591026 
L 547.110329 579.591026 
z
" style="fill:#808080;opacity:0.2;"/>
   </g>
   <g id="patch_57">
    <path clip-path="url(#p542af5801f)" d="M 556.515043 675.592 
L 564.038814 675.592 
L 564.038814 515.590377 
L 556.515043 515.590377 
z
" style="fill:#808080;opacity:0.2;"/>
   </g>
   <g id="patch_58">
    <path clip-path="url(#p542af5801f)" d="M 565.919757 675.592 
L 573.443529 675.592 
L 573.443529 675.592 
L 565.919757 675.592 
z
" style="fill:#808080;opacity:0.2;"/>
   </g>
   <g id="patch_59">
    <path clip-path="url(#p542af5801f)" d="M 575.324471 675.592 
L 582.848243 675.592 
L 582.848243 675.592 
L 575.324471 675.592 
z
" style="fill:#808080;opacity:0.2;"/>
   </g>
   <g id="patch_60">
    <path clip-path="url(#p542af5801f)" d="M 584.729186 675.592 
L 592.252957 675.592 
L 592.252957 643.591675 
L 584.729186 643.591675 
z
" style="fill:#808080;opacity:0.2;"/>
   </g>
   <g id="patch_61">
    <path clip-path="url(#p542af5801f)" d="M 594.1339 675.592 
L 601.657671 675.592 
L 601.657671 483.590053 
L 594.1339 483.590053 
z
" style="fill:#808080;opacity:0.2;"/>
   </g>
   <g id="patch_62">
    <path clip-path="url(#p542af5801f)" d="M 603.538614 675.592 
L 611.062386 675.592 
L 611.062386 675.592 
L 603.538614 675.592 
z
" style="fill:#808080;opacity:0.2;"/>
   </g>
   <g id="patch_63">
    <path clip-path="url(#p542af5801f)" d="M 612.943329 675.592 
L 620.4671 675.592 
L 620.4671 675.592 
L 612.943329 675.592 
z
" style="fill:#808080;opacity:0.2;"/>
   </g>
   <g id="patch_64">
    <path clip-path="url(#p542af5801f)" d="M 622.348043 675.592 
L 629.871814 675.592 
L 629.871814 675.592 
L 622.348043 675.592 
z
" style="fill:#808080;opacity:0.2;"/>
   </g>
   <g id="patch_65">
    <path clip-path="url(#p542af5801f)" d="M 631.752757 675.592 
L 639.276529 675.592 
L 639.276529 430.256179 
L 631.752757 430.256179 
z
" style="fill:#808080;opacity:0.2;"/>
   </g>
   <g id="patch_66">
    <path clip-path="url(#p542af5801f)" d="M 641.157471 675.592 
L 648.681243 675.592 
L 648.681243 376.922304 
L 641.157471 376.922304 
z
" style="fill:#808080;opacity:0.2;"/>
   </g>
   <g id="patch_67">
    <path clip-path="url(#p542af5801f)" d="M 650.562186 675.592 
L 658.085957 675.592 
L 658.085957 355.588755 
L 650.562186 355.588755 
z
" style="fill:#808080;opacity:0.2;"/>
   </g>
   <g id="patch_68">
    <path clip-path="url(#p542af5801f)" d="M 659.9669 675.592 
L 667.490671 675.592 
L 667.490671 451.589728 
L 659.9669 451.589728 
z
" style="fill:#808080;opacity:0.2;"/>
   </g>
   <g id="patch_69">
    <path clip-path="url(#p542af5801f)" d="M 669.371614 675.592 
L 676.895386 675.592 
L 676.895386 515.590377 
L 669.371614 515.590377 
z
" style="fill:#808080;opacity:0.2;"/>
   </g>
   <g id="patch_70">
    <path clip-path="url(#p542af5801f)" d="M 678.776329 675.592 
L 686.3001 675.592 
L 686.3001 270.254556 
L 678.776329 270.254556 
z
" style="fill:#808080;opacity:0.2;"/>
   </g>
   <g id="patch_71">
    <path clip-path="url(#p542af5801f)" d="M 688.181043 675.592 
L 695.704814 675.592 
L 695.704814 408.922629 
L 688.181043 408.922629 
z
" style="fill:#808080;opacity:0.2;"/>
   </g>
   <g id="patch_72">
    <path clip-path="url(#p542af5801f)" d="M 697.585757 675.592 
L 705.109529 675.592 
L 705.109529 643.591675 
L 697.585757 643.591675 
z
" style="fill:#808080;opacity:0.2;"/>
   </g>
   <g id="matplotlib.axis_1">
    <g id="xtick_1">
     <g id="line2d_1">
      <defs>
       <path d="M 0 0 
L 0 3.5 
" id="m931da6e967" style="stroke:#000000;stroke-width:0.8;"/>
      </defs>
      <g>
       <use style="stroke:#000000;stroke-width:0.8;" x="47.72" xlink:href="#m931da6e967" y="675.592"/>
      </g>
     </g>
     <g id="text_1">
      <!-- −5 -->
      <defs>
       <path d="M 10.59375 35.5 
L 73.1875 35.5 
L 73.1875 27.203125 
L 10.59375 27.203125 
z
" id="DejaVuSans-8722"/>
       <path d="M 10.796875 72.90625 
L 49.515625 72.90625 
L 49.515625 64.59375 
L 19.828125 64.59375 
L 19.828125 46.734375 
Q 21.96875 47.46875 24.109375 47.828125 
Q 26.265625 48.1875 28.421875 48.1875 
Q 40.625 48.1875 47.75 41.5 
Q 54.890625 34.8125 54.890625 23.390625 
Q 54.890625 11.625 47.5625 5.09375 
Q 40.234375 -1.421875 26.90625 -1.421875 
Q 22.3125 -1.421875 17.546875 -0.640625 
Q 12.796875 0.140625 7.71875 1.703125 
L 7.71875 11.625 
Q 12.109375 9.234375 16.796875 8.0625 
Q 21.484375 6.890625 26.703125 6.890625 
Q 35.15625 6.890625 40.078125 11.328125 
Q 45.015625 15.765625 45.015625 23.390625 
Q 45.015625 31 40.078125 35.4375 
Q 35.15625 39.890625 26.703125 39.890625 
Q 22.75 39.890625 18.8125 39.015625 
Q 14.890625 38.140625 10.796875 36.28125 
z
" id="DejaVuSans-53"/>
      </defs>
      <g transform="translate(40.348906 690.190437)scale(0.1 -0.1)">
       <use xlink:href="#DejaVuSans-8722"/>
       <use x="83.789062" xlink:href="#DejaVuSans-53"/>
      </g>
     </g>
    </g>
    <g id="xtick_2">
     <g id="line2d_2">
      <g>
       <use style="stroke:#000000;stroke-width:0.8;" x="141.767143" xlink:href="#m931da6e967" y="675.592"/>
      </g>
     </g>
     <g id="text_2">
      <!-- −4 -->
      <defs>
       <path d="M 37.796875 64.3125 
L 12.890625 25.390625 
L 37.796875 25.390625 
z
M 35.203125 72.90625 
L 47.609375 72.90625 
L 47.609375 25.390625 
L 58.015625 25.390625 
L 58.015625 17.1875 
L 47.609375 17.1875 
L 47.609375 0 
L 37.796875 0 
L 37.796875 17.1875 
L 4.890625 17.1875 
L 4.890625 26.703125 
z
" id="DejaVuSans-52"/>
      </defs>
      <g transform="translate(134.396049 690.190437)scale(0.1 -0.1)">
       <use xlink:href="#DejaVuSans-8722"/>
       <use x="83.789062" xlink:href="#DejaVuSans-52"/>
      </g>
     </g>
    </g>
    <g id="xtick_3">
     <g id="line2d_3">
      <g>
       <use style="stroke:#000000;stroke-width:0.8;" x="235.814286" xlink:href="#m931da6e967" y="675.592"/>
      </g>
     </g>
     <g id="text_3">
      <!-- −3 -->
      <defs>
       <path d="M 40.578125 39.3125 
Q 47.65625 37.796875 51.625 33 
Q 55.609375 28.21875 55.609375 21.1875 
Q 55.609375 10.40625 48.1875 4.484375 
Q 40.765625 -1.421875 27.09375 -1.421875 
Q 22.515625 -1.421875 17.65625 -0.515625 
Q 12.796875 0.390625 7.625 2.203125 
L 7.625 11.71875 
Q 11.71875 9.328125 16.59375 8.109375 
Q 21.484375 6.890625 26.8125 6.890625 
Q 36.078125 6.890625 40.9375 10.546875 
Q 45.796875 14.203125 45.796875 21.1875 
Q 45.796875 27.640625 41.28125 31.265625 
Q 36.765625 34.90625 28.71875 34.90625 
L 20.21875 34.90625 
L 20.21875 43.015625 
L 29.109375 43.015625 
Q 36.375 43.015625 40.234375 45.921875 
Q 44.09375 48.828125 44.09375 54.296875 
Q 44.09375 59.90625 40.109375 62.90625 
Q 36.140625 65.921875 28.71875 65.921875 
Q 24.65625 65.921875 20.015625 65.03125 
Q 15.375 64.15625 9.8125 62.3125 
L 9.8125 71.09375 
Q 15.4375 72.65625 20.34375 73.4375 
Q 25.25 74.21875 29.59375 74.21875 
Q 40.828125 74.21875 47.359375 69.109375 
Q 53.90625 64.015625 53.90625 55.328125 
Q 53.90625 49.265625 50.4375 45.09375 
Q 46.96875 40.921875 40.578125 39.3125 
z
" id="DejaVuSans-51"/>
      </defs>
      <g transform="translate(228.443192 690.190437)scale(0.1 -0.1)">
       <use xlink:href="#DejaVuSans-8722"/>
       <use x="83.789062" xlink:href="#DejaVuSans-51"/>
      </g>
     </g>
    </g>
    <g id="xtick_4">
     <g id="line2d_4">
      <g>
       <use style="stroke:#000000;stroke-width:0.8;" x="329.861429" xlink:href="#m931da6e967" y="675.592"/>
      </g>
     </g>
     <g id="text_4">
      <!-- −2 -->
      <defs>
       <path d="M 19.1875 8.296875 
L 53.609375 8.296875 
L 53.609375 0 
L 7.328125 0 
L 7.328125 8.296875 
Q 12.9375 14.109375 22.625 23.890625 
Q 32.328125 33.6875 34.8125 36.53125 
Q 39.546875 41.84375 41.421875 45.53125 
Q 43.3125 49.21875 43.3125 52.78125 
Q 43.3125 58.59375 39.234375 62.25 
Q 35.15625 65.921875 28.609375 65.921875 
Q 23.96875 65.921875 18.8125 64.3125 
Q 13.671875 62.703125 7.8125 59.421875 
L 7.8125 69.390625 
Q 13.765625 71.78125 18.9375 73 
Q 24.125 74.21875 28.421875 74.21875 
Q 39.75 74.21875 46.484375 68.546875 
Q 53.21875 62.890625 53.21875 53.421875 
Q 53.21875 48.921875 51.53125 44.890625 
Q 49.859375 40.875 45.40625 35.40625 
Q 44.1875 33.984375 37.640625 27.21875 
Q 31.109375 20.453125 19.1875 8.296875 
z
" id="DejaVuSans-50"/>
      </defs>
      <g transform="translate(322.490335 690.190437)scale(0.1 -0.1)">
       <use xlink:href="#DejaVuSans-8722"/>
       <use x="83.789062" xlink:href="#DejaVuSans-50"/>
      </g>
     </g>
    </g>
    <g id="xtick_5">
     <g id="line2d_5">
      <g>
       <use style="stroke:#000000;stroke-width:0.8;" x="423.908571" xlink:href="#m931da6e967" y="675.592"/>
      </g>
     </g>
     <g id="text_5">
      <!-- −1 -->
      <defs>
       <path d="M 12.40625 8.296875 
L 28.515625 8.296875 
L 28.515625 63.921875 
L 10.984375 60.40625 
L 10.984375 69.390625 
L 28.421875 72.90625 
L 38.28125 72.90625 
L 38.28125 8.296875 
L 54.390625 8.296875 
L 54.390625 0 
L 12.40625 0 
z
" id="DejaVuSans-49"/>
      </defs>
      <g transform="translate(416.537478 690.190437)scale(0.1 -0.1)">
       <use xlink:href="#DejaVuSans-8722"/>
       <use x="83.789062" xlink:href="#DejaVuSans-49"/>
      </g>
     </g>
    </g>
    <g id="xtick_6">
     <g id="line2d_6">
      <g>
       <use style="stroke:#000000;stroke-width:0.8;" x="517.955714" xlink:href="#m931da6e967" y="675.592"/>
      </g>
     </g>
     <g id="text_6">
      <!-- 0 -->
      <defs>
       <path d="M 31.78125 66.40625 
Q 24.171875 66.40625 20.328125 58.90625 
Q 16.5 51.421875 16.5 36.375 
Q 16.5 21.390625 20.328125 13.890625 
Q 24.171875 6.390625 31.78125 6.390625 
Q 39.453125 6.390625 43.28125 13.890625 
Q 47.125 21.390625 47.125 36.375 
Q 47.125 51.421875 43.28125 58.90625 
Q 39.453125 66.40625 31.78125 66.40625 
z
M 31.78125 74.21875 
Q 44.046875 74.21875 50.515625 64.515625 
Q 56.984375 54.828125 56.984375 36.375 
Q 56.984375 17.96875 50.515625 8.265625 
Q 44.046875 -1.421875 31.78125 -1.421875 
Q 19.53125 -1.421875 13.0625 8.265625 
Q 6.59375 17.96875 6.59375 36.375 
Q 6.59375 54.828125 13.0625 64.515625 
Q 19.53125 74.21875 31.78125 74.21875 
z
" id="DejaVuSans-48"/>
      </defs>
      <g transform="translate(514.774464 690.190437)scale(0.1 -0.1)">
       <use xlink:href="#DejaVuSans-48"/>
      </g>
     </g>
    </g>
    <g id="xtick_7">
     <g id="line2d_7">
      <g>
       <use style="stroke:#000000;stroke-width:0.8;" x="612.002857" xlink:href="#m931da6e967" y="675.592"/>
      </g>
     </g>
     <g id="text_7">
      <!-- 1 -->
      <g transform="translate(608.821607 690.190437)scale(0.1 -0.1)">
       <use xlink:href="#DejaVuSans-49"/>
      </g>
     </g>
    </g>
    <g id="xtick_8">
     <g id="line2d_8">
      <g>
       <use style="stroke:#000000;stroke-width:0.8;" x="706.05" xlink:href="#m931da6e967" y="675.592"/>
      </g>
     </g>
     <g id="text_8">
      <!-- 2 -->
      <g transform="translate(702.86875 690.190437)scale(0.1 -0.1)">
       <use xlink:href="#DejaVuSans-50"/>
      </g>
     </g>
    </g>
    <g id="text_9">
     <!-- ln $K_\mathrm{S}$ -->
     <defs>
      <path d="M 9.421875 75.984375 
L 18.40625 75.984375 
L 18.40625 0 
L 9.421875 0 
z
" id="DejaVuSans-108"/>
      <path d="M 54.890625 33.015625 
L 54.890625 0 
L 45.90625 0 
L 45.90625 32.71875 
Q 45.90625 40.484375 42.875 44.328125 
Q 39.84375 48.1875 33.796875 48.1875 
Q 26.515625 48.1875 22.3125 43.546875 
Q 18.109375 38.921875 18.109375 30.90625 
L 18.109375 0 
L 9.078125 0 
L 9.078125 54.6875 
L 18.109375 54.6875 
L 18.109375 46.1875 
Q 21.34375 51.125 25.703125 53.5625 
Q 30.078125 56 35.796875 56 
Q 45.21875 56 50.046875 50.171875 
Q 54.890625 44.34375 54.890625 33.015625 
z
" id="DejaVuSans-110"/>
      <path id="DejaVuSans-32"/>
      <path d="M 16.890625 72.90625 
L 26.8125 72.90625 
L 20.796875 42.1875 
L 59.078125 72.90625 
L 72.21875 72.90625 
L 28.90625 38.09375 
L 60.59375 0 
L 48.578125 0 
L 19.484375 35.5 
L 12.59375 0 
L 2.6875 0 
z
" id="DejaVuSans-Oblique-75"/>
      <path d="M 53.515625 70.515625 
L 53.515625 60.890625 
Q 47.90625 63.578125 42.921875 64.890625 
Q 37.9375 66.21875 33.296875 66.21875 
Q 25.25 66.21875 20.875 63.09375 
Q 16.5 59.96875 16.5 54.203125 
Q 16.5 49.359375 19.40625 46.890625 
Q 22.3125 44.4375 30.421875 42.921875 
L 36.375 41.703125 
Q 47.40625 39.59375 52.65625 34.296875 
Q 57.90625 29 57.90625 20.125 
Q 57.90625 9.515625 50.796875 4.046875 
Q 43.703125 -1.421875 29.984375 -1.421875 
Q 24.8125 -1.421875 18.96875 -0.25 
Q 13.140625 0.921875 6.890625 3.21875 
L 6.890625 13.375 
Q 12.890625 10.015625 18.65625 8.296875 
Q 24.421875 6.59375 29.984375 6.59375 
Q 38.421875 6.59375 43.015625 9.90625 
Q 47.609375 13.234375 47.609375 19.390625 
Q 47.609375 24.75 44.3125 27.78125 
Q 41.015625 30.8125 33.5 32.328125 
L 27.484375 33.5 
Q 16.453125 35.6875 11.515625 40.375 
Q 6.59375 45.0625 6.59375 53.421875 
Q 6.59375 63.09375 13.40625 68.65625 
Q 20.21875 74.21875 32.171875 74.21875 
Q 37.3125 74.21875 42.625 73.28125 
Q 47.953125 72.359375 53.515625 70.515625 
z
" id="DejaVuSans-83"/>
     </defs>
     <g transform="translate(365.085 703.868562)scale(0.1 -0.1)">
      <use transform="translate(0 0.015625)" xlink:href="#DejaVuSans-108"/>
      <use transform="translate(27.783203 0.015625)" xlink:href="#DejaVuSans-110"/>
      <use transform="translate(91.162109 0.015625)" xlink:href="#DejaVuSans-32"/>
      <use transform="translate(122.949219 0.015625)" xlink:href="#DejaVuSans-Oblique-75"/>
      <use transform="translate(188.525391 -16.390625)scale(0.7)" xlink:href="#DejaVuSans-83"/>
     </g>
    </g>
   </g>
   <g id="matplotlib.axis_2">
    <g id="ytick_1">
     <g id="line2d_9">
      <defs>
       <path d="M 0 0 
L -3.5 0 
" id="m1eca3ce213" style="stroke:#000000;stroke-width:0.8;"/>
      </defs>
      <g>
       <use style="stroke:#000000;stroke-width:0.8;" x="47.72" xlink:href="#m1eca3ce213" y="675.592"/>
      </g>
     </g>
     <g id="text_10">
      <!-- 0.0 -->
      <defs>
       <path d="M 10.6875 12.40625 
L 21 12.40625 
L 21 0 
L 10.6875 0 
z
" id="DejaVuSans-46"/>
      </defs>
      <g transform="translate(24.816875 679.391219)scale(0.1 -0.1)">
       <use xlink:href="#DejaVuSans-48"/>
       <use x="63.623047" xlink:href="#DejaVuSans-46"/>
       <use x="95.410156" xlink:href="#DejaVuSans-48"/>
      </g>
     </g>
    </g>
    <g id="ytick_2">
     <g id="line2d_10">
      <g>
       <use style="stroke:#000000;stroke-width:0.8;" x="47.72" xlink:href="#m1eca3ce213" y="589.83113"/>
      </g>
     </g>
     <g id="text_11">
      <!-- 0.1 -->
      <g transform="translate(24.816875 593.630349)scale(0.1 -0.1)">
       <use xlink:href="#DejaVuSans-48"/>
       <use x="63.623047" xlink:href="#DejaVuSans-46"/>
       <use x="95.410156" xlink:href="#DejaVuSans-49"/>
      </g>
     </g>
    </g>
    <g id="ytick_3">
     <g id="line2d_11">
      <g>
       <use style="stroke:#000000;stroke-width:0.8;" x="47.72" xlink:href="#m1eca3ce213" y="504.07026"/>
      </g>
     </g>
     <g id="text_12">
      <!-- 0.2 -->
      <g transform="translate(24.816875 507.869479)scale(0.1 -0.1)">
       <use xlink:href="#DejaVuSans-48"/>
       <use x="63.623047" xlink:href="#DejaVuSans-46"/>
       <use x="95.410156" xlink:href="#DejaVuSans-50"/>
      </g>
     </g>
    </g>
    <g id="ytick_4">
     <g id="line2d_12">
      <g>
       <use style="stroke:#000000;stroke-width:0.8;" x="47.72" xlink:href="#m1eca3ce213" y="418.309391"/>
      </g>
     </g>
     <g id="text_13">
      <!-- 0.3 -->
      <g transform="translate(24.816875 422.108609)scale(0.1 -0.1)">
       <use xlink:href="#DejaVuSans-48"/>
       <use x="63.623047" xlink:href="#DejaVuSans-46"/>
       <use x="95.410156" xlink:href="#DejaVuSans-51"/>
      </g>
     </g>
    </g>
    <g id="ytick_5">
     <g id="line2d_13">
      <g>
       <use style="stroke:#000000;stroke-width:0.8;" x="47.72" xlink:href="#m1eca3ce213" y="332.548521"/>
      </g>
     </g>
     <g id="text_14">
      <!-- 0.4 -->
      <g transform="translate(24.816875 336.34774)scale(0.1 -0.1)">
       <use xlink:href="#DejaVuSans-48"/>
       <use x="63.623047" xlink:href="#DejaVuSans-46"/>
       <use x="95.410156" xlink:href="#DejaVuSans-52"/>
      </g>
     </g>
    </g>
    <g id="ytick_6">
     <g id="line2d_14">
      <g>
       <use style="stroke:#000000;stroke-width:0.8;" x="47.72" xlink:href="#m1eca3ce213" y="246.787651"/>
      </g>
     </g>
     <g id="text_15">
      <!-- 0.5 -->
      <g transform="translate(24.816875 250.58687)scale(0.1 -0.1)">
       <use xlink:href="#DejaVuSans-48"/>
       <use x="63.623047" xlink:href="#DejaVuSans-46"/>
       <use x="95.410156" xlink:href="#DejaVuSans-53"/>
      </g>
     </g>
    </g>
    <g id="ytick_7">
     <g id="line2d_15">
      <g>
       <use style="stroke:#000000;stroke-width:0.8;" x="47.72" xlink:href="#m1eca3ce213" y="161.026781"/>
      </g>
     </g>
     <g id="text_16">
      <!-- 0.6 -->
      <defs>
       <path d="M 33.015625 40.375 
Q 26.375 40.375 22.484375 35.828125 
Q 18.609375 31.296875 18.609375 23.390625 
Q 18.609375 15.53125 22.484375 10.953125 
Q 26.375 6.390625 33.015625 6.390625 
Q 39.65625 6.390625 43.53125 10.953125 
Q 47.40625 15.53125 47.40625 23.390625 
Q 47.40625 31.296875 43.53125 35.828125 
Q 39.65625 40.375 33.015625 40.375 
z
M 52.59375 71.296875 
L 52.59375 62.3125 
Q 48.875 64.0625 45.09375 64.984375 
Q 41.3125 65.921875 37.59375 65.921875 
Q 27.828125 65.921875 22.671875 59.328125 
Q 17.53125 52.734375 16.796875 39.40625 
Q 19.671875 43.65625 24.015625 45.921875 
Q 28.375 48.1875 33.59375 48.1875 
Q 44.578125 48.1875 50.953125 41.515625 
Q 57.328125 34.859375 57.328125 23.390625 
Q 57.328125 12.15625 50.6875 5.359375 
Q 44.046875 -1.421875 33.015625 -1.421875 
Q 20.359375 -1.421875 13.671875 8.265625 
Q 6.984375 17.96875 6.984375 36.375 
Q 6.984375 53.65625 15.1875 63.9375 
Q 23.390625 74.21875 37.203125 74.21875 
Q 40.921875 74.21875 44.703125 73.484375 
Q 48.484375 72.75 52.59375 71.296875 
z
" id="DejaVuSans-54"/>
      </defs>
      <g transform="translate(24.816875 164.826)scale(0.1 -0.1)">
       <use xlink:href="#DejaVuSans-48"/>
       <use x="63.623047" xlink:href="#DejaVuSans-46"/>
       <use x="95.410156" xlink:href="#DejaVuSans-54"/>
      </g>
     </g>
    </g>
    <g id="ytick_8">
     <g id="line2d_16">
      <g>
       <use style="stroke:#000000;stroke-width:0.8;" x="47.72" xlink:href="#m1eca3ce213" y="75.265912"/>
      </g>
     </g>
     <g id="text_17">
      <!-- 0.7 -->
      <defs>
       <path d="M 8.203125 72.90625 
L 55.078125 72.90625 
L 55.078125 68.703125 
L 28.609375 0 
L 18.3125 0 
L 43.21875 64.59375 
L 8.203125 64.59375 
z
" id="DejaVuSans-55"/>
      </defs>
      <g transform="translate(24.816875 79.06513)scale(0.1 -0.1)">
       <use xlink:href="#DejaVuSans-48"/>
       <use x="63.623047" xlink:href="#DejaVuSans-46"/>
       <use x="95.410156" xlink:href="#DejaVuSans-55"/>
      </g>
     </g>
    </g>
    <g id="text_18">
     <!-- Density of retained duplicates -->
     <defs>
      <path d="M 19.671875 64.796875 
L 19.671875 8.109375 
L 31.59375 8.109375 
Q 46.6875 8.109375 53.6875 14.9375 
Q 60.6875 21.78125 60.6875 36.53125 
Q 60.6875 51.171875 53.6875 57.984375 
Q 46.6875 64.796875 31.59375 64.796875 
z
M 9.8125 72.90625 
L 30.078125 72.90625 
Q 51.265625 72.90625 61.171875 64.09375 
Q 71.09375 55.28125 71.09375 36.53125 
Q 71.09375 17.671875 61.125 8.828125 
Q 51.171875 0 30.078125 0 
L 9.8125 0 
z
" id="DejaVuSans-68"/>
      <path d="M 56.203125 29.59375 
L 56.203125 25.203125 
L 14.890625 25.203125 
Q 15.484375 15.921875 20.484375 11.0625 
Q 25.484375 6.203125 34.421875 6.203125 
Q 39.59375 6.203125 44.453125 7.46875 
Q 49.3125 8.734375 54.109375 11.28125 
L 54.109375 2.78125 
Q 49.265625 0.734375 44.1875 -0.34375 
Q 39.109375 -1.421875 33.890625 -1.421875 
Q 20.796875 -1.421875 13.15625 6.1875 
Q 5.515625 13.8125 5.515625 26.8125 
Q 5.515625 40.234375 12.765625 48.109375 
Q 20.015625 56 32.328125 56 
Q 43.359375 56 49.78125 48.890625 
Q 56.203125 41.796875 56.203125 29.59375 
z
M 47.21875 32.234375 
Q 47.125 39.59375 43.09375 43.984375 
Q 39.0625 48.390625 32.421875 48.390625 
Q 24.90625 48.390625 20.390625 44.140625 
Q 15.875 39.890625 15.1875 32.171875 
z
" id="DejaVuSans-101"/>
      <path d="M 44.28125 53.078125 
L 44.28125 44.578125 
Q 40.484375 46.53125 36.375 47.5 
Q 32.28125 48.484375 27.875 48.484375 
Q 21.1875 48.484375 17.84375 46.4375 
Q 14.5 44.390625 14.5 40.28125 
Q 14.5 37.15625 16.890625 35.375 
Q 19.28125 33.59375 26.515625 31.984375 
L 29.59375 31.296875 
Q 39.15625 29.25 43.1875 25.515625 
Q 47.21875 21.78125 47.21875 15.09375 
Q 47.21875 7.46875 41.1875 3.015625 
Q 35.15625 -1.421875 24.609375 -1.421875 
Q 20.21875 -1.421875 15.453125 -0.5625 
Q 10.6875 0.296875 5.421875 2 
L 5.421875 11.28125 
Q 10.40625 8.6875 15.234375 7.390625 
Q 20.0625 6.109375 24.8125 6.109375 
Q 31.15625 6.109375 34.5625 8.28125 
Q 37.984375 10.453125 37.984375 14.40625 
Q 37.984375 18.0625 35.515625 20.015625 
Q 33.0625 21.96875 24.703125 23.78125 
L 21.578125 24.515625 
Q 13.234375 26.265625 9.515625 29.90625 
Q 5.8125 33.546875 5.8125 39.890625 
Q 5.8125 47.609375 11.28125 51.796875 
Q 16.75 56 26.8125 56 
Q 31.78125 56 36.171875 55.265625 
Q 40.578125 54.546875 44.28125 53.078125 
z
" id="DejaVuSans-115"/>
      <path d="M 9.421875 54.6875 
L 18.40625 54.6875 
L 18.40625 0 
L 9.421875 0 
z
M 9.421875 75.984375 
L 18.40625 75.984375 
L 18.40625 64.59375 
L 9.421875 64.59375 
z
" id="DejaVuSans-105"/>
      <path d="M 18.3125 70.21875 
L 18.3125 54.6875 
L 36.8125 54.6875 
L 36.8125 47.703125 
L 18.3125 47.703125 
L 18.3125 18.015625 
Q 18.3125 11.328125 20.140625 9.421875 
Q 21.96875 7.515625 27.59375 7.515625 
L 36.8125 7.515625 
L 36.8125 0 
L 27.59375 0 
Q 17.1875 0 13.234375 3.875 
Q 9.28125 7.765625 9.28125 18.015625 
L 9.28125 47.703125 
L 2.6875 47.703125 
L 2.6875 54.6875 
L 9.28125 54.6875 
L 9.28125 70.21875 
z
" id="DejaVuSans-116"/>
      <path d="M 32.171875 -5.078125 
Q 28.375 -14.84375 24.75 -17.8125 
Q 21.140625 -20.796875 15.09375 -20.796875 
L 7.90625 -20.796875 
L 7.90625 -13.28125 
L 13.1875 -13.28125 
Q 16.890625 -13.28125 18.9375 -11.515625 
Q 21 -9.765625 23.484375 -3.21875 
L 25.09375 0.875 
L 2.984375 54.6875 
L 12.5 54.6875 
L 29.59375 11.921875 
L 46.6875 54.6875 
L 56.203125 54.6875 
z
" id="DejaVuSans-121"/>
      <path d="M 30.609375 48.390625 
Q 23.390625 48.390625 19.1875 42.75 
Q 14.984375 37.109375 14.984375 27.296875 
Q 14.984375 17.484375 19.15625 11.84375 
Q 23.34375 6.203125 30.609375 6.203125 
Q 37.796875 6.203125 41.984375 11.859375 
Q 46.1875 17.53125 46.1875 27.296875 
Q 46.1875 37.015625 41.984375 42.703125 
Q 37.796875 48.390625 30.609375 48.390625 
z
M 30.609375 56 
Q 42.328125 56 49.015625 48.375 
Q 55.71875 40.765625 55.71875 27.296875 
Q 55.71875 13.875 49.015625 6.21875 
Q 42.328125 -1.421875 30.609375 -1.421875 
Q 18.84375 -1.421875 12.171875 6.21875 
Q 5.515625 13.875 5.515625 27.296875 
Q 5.515625 40.765625 12.171875 48.375 
Q 18.84375 56 30.609375 56 
z
" id="DejaVuSans-111"/>
      <path d="M 37.109375 75.984375 
L 37.109375 68.5 
L 28.515625 68.5 
Q 23.6875 68.5 21.796875 66.546875 
Q 19.921875 64.59375 19.921875 59.515625 
L 19.921875 54.6875 
L 34.71875 54.6875 
L 34.71875 47.703125 
L 19.921875 47.703125 
L 19.921875 0 
L 10.890625 0 
L 10.890625 47.703125 
L 2.296875 47.703125 
L 2.296875 54.6875 
L 10.890625 54.6875 
L 10.890625 58.5 
Q 10.890625 67.625 15.140625 71.796875 
Q 19.390625 75.984375 28.609375 75.984375 
z
" id="DejaVuSans-102"/>
      <path d="M 41.109375 46.296875 
Q 39.59375 47.171875 37.8125 47.578125 
Q 36.03125 48 33.890625 48 
Q 26.265625 48 22.1875 43.046875 
Q 18.109375 38.09375 18.109375 28.8125 
L 18.109375 0 
L 9.078125 0 
L 9.078125 54.6875 
L 18.109375 54.6875 
L 18.109375 46.1875 
Q 20.953125 51.171875 25.484375 53.578125 
Q 30.03125 56 36.53125 56 
Q 37.453125 56 38.578125 55.875 
Q 39.703125 55.765625 41.0625 55.515625 
z
" id="DejaVuSans-114"/>
      <path d="M 34.28125 27.484375 
Q 23.390625 27.484375 19.1875 25 
Q 14.984375 22.515625 14.984375 16.5 
Q 14.984375 11.71875 18.140625 8.90625 
Q 21.296875 6.109375 26.703125 6.109375 
Q 34.1875 6.109375 38.703125 11.40625 
Q 43.21875 16.703125 43.21875 25.484375 
L 43.21875 27.484375 
z
M 52.203125 31.203125 
L 52.203125 0 
L 43.21875 0 
L 43.21875 8.296875 
Q 40.140625 3.328125 35.546875 0.953125 
Q 30.953125 -1.421875 24.3125 -1.421875 
Q 15.921875 -1.421875 10.953125 3.296875 
Q 6 8.015625 6 15.921875 
Q 6 25.140625 12.171875 29.828125 
Q 18.359375 34.515625 30.609375 34.515625 
L 43.21875 34.515625 
L 43.21875 35.40625 
Q 43.21875 41.609375 39.140625 45 
Q 35.0625 48.390625 27.6875 48.390625 
Q 23 48.390625 18.546875 47.265625 
Q 14.109375 46.140625 10.015625 43.890625 
L 10.015625 52.203125 
Q 14.9375 54.109375 19.578125 55.046875 
Q 24.21875 56 28.609375 56 
Q 40.484375 56 46.34375 49.84375 
Q 52.203125 43.703125 52.203125 31.203125 
z
" id="DejaVuSans-97"/>
      <path d="M 45.40625 46.390625 
L 45.40625 75.984375 
L 54.390625 75.984375 
L 54.390625 0 
L 45.40625 0 
L 45.40625 8.203125 
Q 42.578125 3.328125 38.25 0.953125 
Q 33.9375 -1.421875 27.875 -1.421875 
Q 17.96875 -1.421875 11.734375 6.484375 
Q 5.515625 14.40625 5.515625 27.296875 
Q 5.515625 40.1875 11.734375 48.09375 
Q 17.96875 56 27.875 56 
Q 33.9375 56 38.25 53.625 
Q 42.578125 51.265625 45.40625 46.390625 
z
M 14.796875 27.296875 
Q 14.796875 17.390625 18.875 11.75 
Q 22.953125 6.109375 30.078125 6.109375 
Q 37.203125 6.109375 41.296875 11.75 
Q 45.40625 17.390625 45.40625 27.296875 
Q 45.40625 37.203125 41.296875 42.84375 
Q 37.203125 48.484375 30.078125 48.484375 
Q 22.953125 48.484375 18.875 42.84375 
Q 14.796875 37.203125 14.796875 27.296875 
z
" id="DejaVuSans-100"/>
      <path d="M 8.5 21.578125 
L 8.5 54.6875 
L 17.484375 54.6875 
L 17.484375 21.921875 
Q 17.484375 14.15625 20.5 10.265625 
Q 23.53125 6.390625 29.59375 6.390625 
Q 36.859375 6.390625 41.078125 11.03125 
Q 45.3125 15.671875 45.3125 23.6875 
L 45.3125 54.6875 
L 54.296875 54.6875 
L 54.296875 0 
L 45.3125 0 
L 45.3125 8.40625 
Q 42.046875 3.421875 37.71875 1 
Q 33.40625 -1.421875 27.6875 -1.421875 
Q 18.265625 -1.421875 13.375 4.4375 
Q 8.5 10.296875 8.5 21.578125 
z
M 31.109375 56 
z
" id="DejaVuSans-117"/>
      <path d="M 18.109375 8.203125 
L 18.109375 -20.796875 
L 9.078125 -20.796875 
L 9.078125 54.6875 
L 18.109375 54.6875 
L 18.109375 46.390625 
Q 20.953125 51.265625 25.265625 53.625 
Q 29.59375 56 35.59375 56 
Q 45.5625 56 51.78125 48.09375 
Q 58.015625 40.1875 58.015625 27.296875 
Q 58.015625 14.40625 51.78125 6.484375 
Q 45.5625 -1.421875 35.59375 -1.421875 
Q 29.59375 -1.421875 25.265625 0.953125 
Q 20.953125 3.328125 18.109375 8.203125 
z
M 48.6875 27.296875 
Q 48.6875 37.203125 44.609375 42.84375 
Q 40.53125 48.484375 33.40625 48.484375 
Q 26.265625 48.484375 22.1875 42.84375 
Q 18.109375 37.203125 18.109375 27.296875 
Q 18.109375 17.390625 22.1875 11.75 
Q 26.265625 6.109375 33.40625 6.109375 
Q 40.53125 6.109375 44.609375 11.75 
Q 48.6875 17.390625 48.6875 27.296875 
z
" id="DejaVuSans-112"/>
      <path d="M 48.78125 52.59375 
L 48.78125 44.1875 
Q 44.96875 46.296875 41.140625 47.34375 
Q 37.3125 48.390625 33.40625 48.390625 
Q 24.65625 48.390625 19.8125 42.84375 
Q 14.984375 37.3125 14.984375 27.296875 
Q 14.984375 17.28125 19.8125 11.734375 
Q 24.65625 6.203125 33.40625 6.203125 
Q 37.3125 6.203125 41.140625 7.25 
Q 44.96875 8.296875 48.78125 10.40625 
L 48.78125 2.09375 
Q 45.015625 0.34375 40.984375 -0.53125 
Q 36.96875 -1.421875 32.421875 -1.421875 
Q 20.0625 -1.421875 12.78125 6.34375 
Q 5.515625 14.109375 5.515625 27.296875 
Q 5.515625 40.671875 12.859375 48.328125 
Q 20.21875 56 33.015625 56 
Q 37.15625 56 41.109375 55.140625 
Q 45.0625 54.296875 48.78125 52.59375 
z
" id="DejaVuSans-99"/>
     </defs>
     <g transform="translate(18.737188 427.153656)rotate(-90)scale(0.1 -0.1)">
      <use xlink:href="#DejaVuSans-68"/>
      <use x="77.001953" xlink:href="#DejaVuSans-101"/>
      <use x="138.525391" xlink:href="#DejaVuSans-110"/>
      <use x="201.904297" xlink:href="#DejaVuSans-115"/>
      <use x="254.003906" xlink:href="#DejaVuSans-105"/>
      <use x="281.787109" xlink:href="#DejaVuSans-116"/>
      <use x="320.996094" xlink:href="#DejaVuSans-121"/>
      <use x="380.175781" xlink:href="#DejaVuSans-32"/>
      <use x="411.962891" xlink:href="#DejaVuSans-111"/>
      <use x="473.144531" xlink:href="#DejaVuSans-102"/>
      <use x="508.349609" xlink:href="#DejaVuSans-32"/>
      <use x="540.136719" xlink:href="#DejaVuSans-114"/>
      <use x="579" xlink:href="#DejaVuSans-101"/>
      <use x="640.523438" xlink:href="#DejaVuSans-116"/>
      <use x="679.732422" xlink:href="#DejaVuSans-97"/>
      <use x="741.011719" xlink:href="#DejaVuSans-105"/>
      <use x="768.794922" xlink:href="#DejaVuSans-110"/>
      <use x="832.173828" xlink:href="#DejaVuSans-101"/>
      <use x="893.697266" xlink:href="#DejaVuSans-100"/>
      <use x="957.173828" xlink:href="#DejaVuSans-32"/>
      <use x="988.960938" xlink:href="#DejaVuSans-100"/>
      <use x="1052.4375" xlink:href="#DejaVuSans-117"/>
      <use x="1115.816406" xlink:href="#DejaVuSans-112"/>
      <use x="1179.292969" xlink:href="#DejaVuSans-108"/>
      <use x="1207.076172" xlink:href="#DejaVuSans-105"/>
      <use x="1234.859375" xlink:href="#DejaVuSans-99"/>
      <use x="1289.839844" xlink:href="#DejaVuSans-97"/>
      <use x="1351.119141" xlink:href="#DejaVuSans-116"/>
      <use x="1390.328125" xlink:href="#DejaVuSans-101"/>
      <use x="1451.851562" xlink:href="#DejaVuSans-115"/>
     </g>
    </g>
   </g>
   <g id="line2d_17">
    <path clip-path="url(#p542af5801f)" d="M -1 657.706035 
L 2.161156 656.705985 
L 5.522927 655.859213 
L 8.884699 655.264629 
L 12.24647 654.943609 
L 15.608242 654.904769 
L 18.970013 655.1429 
L 22.331784 655.638817 
L 25.693556 656.360151 
L 30.736213 657.766215 
L 45.864184 662.497167 
L 49.225956 663.274376 
L 52.587727 663.84576 
L 55.949499 664.180413 
L 59.31127 664.260028 
L 62.673041 664.07967 
L 66.034813 663.647905 
L 69.396584 662.98627 
L 72.758356 662.128084 
L 77.801013 660.5691 
L 91.248098 656.099682 
L 94.60987 655.196861 
L 97.971641 654.460797 
L 101.333413 653.911242 
L 104.695184 653.552624 
L 108.056955 653.373268 
L 113.099613 653.376359 
L 126.546698 653.749365 
L 129.90847 653.584583 
L 133.270241 653.195137 
L 136.632013 652.534888 
L 139.993784 651.571534 
L 143.355555 650.288746 
L 146.717327 648.687205 
L 150.079098 646.784492 
L 153.44087 644.613873 
L 156.802641 642.222085 
L 161.845298 638.346773 
L 173.611498 629.103106 
L 178.654155 625.547353 
L 182.015927 623.425622 
L 185.377698 621.531647 
L 188.739469 619.875329 
L 192.101241 618.45428 
L 195.463012 617.255572 
L 198.824784 616.258216 
L 202.186555 615.436133 
L 207.229212 614.47059 
L 212.271869 613.749331 
L 218.995412 613.060086 
L 225.718955 612.623699 
L 232.442498 612.442307 
L 239.166041 612.519042 
L 254.294012 612.934659 
L 257.655783 612.786808 
L 261.017555 612.414265 
L 264.379326 611.740525 
L 267.741098 610.687023 
L 269.421983 609.993611 
L 271.102869 609.17666 
L 272.783755 608.227365 
L 274.464641 607.137469 
L 276.145526 605.899376 
L 277.826412 604.506262 
L 279.507298 602.952176 
L 281.188183 601.232144 
L 282.869069 599.34226 
L 286.230841 595.043198 
L 289.592612 590.048369 
L 292.954383 584.373205 
L 296.316155 578.056851 
L 299.677926 571.163099 
L 303.039698 563.780465 
L 308.082355 552.041562 
L 319.848555 524.147317 
L 323.210326 516.808728 
L 326.572098 510.065571 
L 329.933869 504.072499 
L 331.614755 501.39964 
L 333.29564 498.961712 
L 334.976526 496.770541 
L 336.657412 494.835706 
L 338.338297 493.164393 
L 340.019183 491.761285 
L 341.700069 490.628475 
L 343.380955 489.765433 
L 345.06184 489.169004 
L 346.742726 488.83345 
L 348.423612 488.750532 
L 350.104497 488.909634 
L 351.785383 489.297922 
L 353.466269 489.900542 
L 355.147155 490.700842 
L 356.82804 491.680622 
L 358.508926 492.82041 
L 361.870697 495.497467 
L 365.232469 498.561725 
L 376.998669 509.929674 
L 380.36044 512.762519 
L 383.722212 515.205782 
L 387.083983 517.186033 
L 388.764869 517.985955 
L 390.445754 518.652961 
L 392.12664 519.184039 
L 393.807526 519.577339 
L 395.488412 519.832089 
L 397.169297 519.948521 
L 398.850183 519.927798 
L 400.531069 519.771955 
L 402.211954 519.483843 
L 403.89284 519.067093 
L 405.573726 518.526081 
L 408.935497 517.092389 
L 412.297269 515.23209 
L 415.65904 513.005755 
L 419.020811 510.485084 
L 424.063469 506.335255 
L 432.467897 499.242908 
L 435.829669 496.650301 
L 439.19144 494.354827 
L 442.553211 492.452404 
L 444.234097 491.674981 
L 445.914983 491.025304 
L 447.595868 490.510629 
L 449.276754 490.136698 
L 450.95764 489.9076 
L 452.638526 489.825645 
L 454.319411 489.891264 
L 456.000297 490.102927 
L 457.681183 490.457085 
L 459.362068 490.948145 
L 461.042954 491.568473 
L 464.404726 493.156423 
L 467.766497 495.121185 
L 472.809154 498.49192 
L 477.851811 501.913894 
L 481.213583 503.953405 
L 484.575354 505.617192 
L 486.25624 506.264736 
L 487.937125 506.769629 
L 489.618011 507.119781 
L 491.298897 507.305637 
L 492.979783 507.320447 
L 494.660668 507.160483 
L 496.341554 506.825216 
L 498.02244 506.317439 
L 499.703325 505.643338 
L 501.384211 504.812494 
L 504.745983 502.735521 
L 508.107754 500.227559 
L 518.193068 492.132175 
L 519.873954 491.008878 
L 521.55484 490.03176 
L 523.235725 489.230014 
L 524.916611 488.631209 
L 526.597497 488.260829 
L 528.278382 488.141839 
L 529.959268 488.294299 
L 531.640154 488.735023 
L 533.32104 489.477297 
L 535.001925 490.530652 
L 536.682811 491.900711 
L 538.363697 493.589091 
L 540.044582 495.593382 
L 541.725468 497.907188 
L 543.406354 500.520233 
L 545.08724 503.418532 
L 546.768125 506.584613 
L 550.129897 513.634514 
L 553.491668 521.472009 
L 558.534325 534.191173 
L 566.938754 555.818426 
L 570.300525 563.883734 
L 573.662297 571.27585 
L 577.024068 577.807726 
L 578.704954 580.701714 
L 580.385839 583.325727 
L 582.066725 585.665963 
L 583.747611 587.710738 
L 585.428496 589.450431 
L 587.109382 590.877413 
L 588.790268 591.985962 
L 590.471154 592.77218 
L 592.152039 593.233902 
L 593.832925 593.370617 
L 595.513811 593.183392 
L 597.194696 592.674799 
L 598.875582 591.848866 
L 600.556468 590.711026 
L 602.237354 589.268085 
L 603.918239 587.5282 
L 605.599125 585.500856 
L 607.280011 583.196864 
L 608.960896 580.628346 
L 610.641782 577.808733 
L 614.003554 571.476406 
L 617.365325 564.332851 
L 620.727096 556.530279 
L 625.769753 543.965302 
L 637.535953 513.960386 
L 640.897725 506.091591 
L 644.259496 498.875917 
L 647.621268 492.47603 
L 649.302153 489.627367 
L 650.983039 487.034278 
L 652.663925 484.710925 
L 654.344811 482.66991 
L 656.025696 480.922233 
L 657.706582 479.477274 
L 659.387468 478.342772 
L 661.068353 477.524817 
L 662.749239 477.02785 
L 664.430125 476.854663 
L 666.11101 477.006402 
L 667.791896 477.482576 
L 669.472782 478.281064 
L 671.153668 479.398129 
L 672.834553 480.828428 
L 674.515439 482.565041 
L 676.196325 484.599486 
L 677.87721 486.921763 
L 679.558096 489.52039 
L 681.238982 492.382465 
L 684.600753 498.83868 
L 687.962525 506.161822 
L 691.324296 514.206751 
L 694.686068 522.816424 
L 699.728725 536.432318 
L 711.494925 568.750703 
L 716.537582 581.788497 
L 721 592.561742 
L 721 592.561742 
" style="fill:none;stroke:#000000;stroke-linecap:square;"/>
   </g>
   <g id="line2d_18">
    <path clip-path="url(#p542af5801f)" d="M -1 661.084746 
L 7.203813 660.734032 
L 17.289127 660.556087 
L 29.055327 660.584777 
L 60.992156 660.820764 
L 71.07747 660.60181 
L 79.481898 660.194354 
L 86.205441 659.682704 
L 92.928984 658.976404 
L 99.652527 658.048135 
L 106.37607 656.870579 
L 113.099613 655.416417 
L 118.14227 654.127838 
L 123.184927 652.656777 
L 128.227584 650.991707 
L 133.270241 649.123274 
L 139.993784 646.345909 
L 146.717327 643.311561 
L 155.121755 639.274282 
L 180.335041 626.973962 
L 187.058584 624.010128 
L 193.782127 621.304032 
L 200.505669 618.88915 
L 205.548327 617.288681 
L 210.590984 615.884065 
L 215.633641 614.689037 
L 220.676298 613.717329 
L 225.718955 612.982676 
L 230.761612 612.498811 
L 235.804269 612.279468 
L 240.846926 612.304015 
L 250.932241 612.418037 
L 254.294012 612.266191 
L 257.655783 611.924376 
L 261.017555 611.335567 
L 264.379326 610.44274 
L 267.741098 609.188868 
L 271.102869 607.516928 
L 274.464641 605.369894 
L 276.145526 604.100396 
L 277.826412 602.69074 
L 279.507298 601.133798 
L 281.188183 599.422442 
L 282.869069 597.549544 
L 284.549955 595.507975 
L 287.911726 590.890314 
L 291.273498 585.541497 
L 294.635269 579.549814 
L 297.99704 573.03262 
L 303.039698 562.528207 
L 309.76324 547.778336 
L 316.486783 533.038791 
L 321.52944 522.555674 
L 324.891212 516.059131 
L 328.252983 510.093263 
L 331.614755 504.775423 
L 333.29564 502.396186 
L 334.976526 500.222965 
L 336.657412 498.270427 
L 338.338297 496.553243 
L 340.019183 495.086081 
L 341.700069 493.878997 
L 343.380955 492.923594 
L 345.06184 492.206859 
L 346.742726 491.715781 
L 348.423612 491.437348 
L 350.104497 491.358548 
L 351.785383 491.46637 
L 353.466269 491.747802 
L 355.147155 492.189832 
L 356.82804 492.77945 
L 358.508926 493.503642 
L 361.870697 495.303704 
L 365.232469 497.485926 
L 368.59424 499.946214 
L 375.317783 505.284617 
L 380.36044 509.244148 
L 383.722212 511.667579 
L 387.083983 513.796562 
L 390.445754 515.527005 
L 392.12664 516.210244 
L 393.807526 516.754813 
L 395.488412 517.151138 
L 397.169297 517.4034 
L 398.850183 517.519218 
L 400.531069 517.50621 
L 402.211954 517.371994 
L 405.573726 516.770416 
L 408.935497 515.775434 
L 412.297269 514.447996 
L 415.65904 512.849053 
L 419.020811 511.039554 
L 424.063469 508.06384 
L 435.829669 500.966952 
L 439.19144 499.174056 
L 442.553211 497.597251 
L 445.914983 496.297486 
L 449.276754 495.319942 
L 452.638526 494.646721 
L 456.000297 494.244161 
L 459.362068 494.078595 
L 462.72384 494.116358 
L 467.766497 494.480603 
L 472.809154 495.112974 
L 482.894468 496.727614 
L 489.618011 497.69852 
L 494.660668 498.179831 
L 498.02244 498.320027 
L 503.065097 498.230373 
L 516.512182 497.625395 
L 519.873954 497.740495 
L 523.235725 498.091179 
L 526.597497 498.741971 
L 529.959268 499.757394 
L 533.32104 501.201973 
L 535.001925 502.10536 
L 536.682811 503.140231 
L 538.363697 504.314653 
L 540.044582 505.636691 
L 541.725468 507.11441 
L 543.406354 508.755876 
L 545.08724 510.569155 
L 546.768125 512.562311 
L 548.449011 514.743411 
L 550.129897 517.120519 
L 553.491668 522.457038 
L 556.853439 528.446469 
L 560.215211 534.925426 
L 565.257868 545.204317 
L 573.662297 562.468813 
L 577.024068 568.944624 
L 580.385839 574.929651 
L 583.747611 580.260508 
L 585.428496 582.629565 
L 587.109382 584.773811 
L 588.790268 586.672821 
L 590.471154 588.306174 
L 592.152039 589.653445 
L 593.832925 590.694212 
L 595.513811 591.408051 
L 597.194696 591.77454 
L 598.875582 591.773255 
L 600.556468 591.383774 
L 602.237354 590.585672 
L 603.918239 589.366269 
L 605.599125 587.743848 
L 607.280011 585.744438 
L 608.960896 583.394064 
L 610.641782 580.718752 
L 612.322668 577.744529 
L 614.003554 574.497422 
L 617.365325 567.288659 
L 620.727096 559.300675 
L 624.088868 550.741681 
L 630.812411 532.743509 
L 635.855068 519.294552 
L 639.216839 510.74263 
L 642.578611 502.764861 
L 645.940382 495.569456 
L 647.621268 492.330206 
L 649.302153 489.364627 
L 650.983039 486.698744 
L 652.663925 484.358585 
L 654.344811 482.370175 
L 656.025696 480.753324 
L 657.706582 479.502972 
L 659.387468 478.607841 
L 661.068353 478.056655 
L 662.749239 477.838136 
L 664.430125 477.941007 
L 666.11101 478.35399 
L 667.791896 479.065809 
L 669.472782 480.065186 
L 671.153668 481.340844 
L 672.834553 482.881506 
L 674.515439 484.675895 
L 676.196325 486.712732 
L 677.87721 488.980742 
L 679.558096 491.468646 
L 682.919868 497.059031 
L 686.281639 503.393668 
L 689.64341 510.38234 
L 693.005182 517.934828 
L 696.366953 525.960915 
L 701.40961 538.690693 
L 708.133153 556.479292 
L 719.899353 587.825995 
L 721 590.654853 
L 721 590.654853 
" style="fill:none;stroke:#0000ff;stroke-linecap:square;"/>
   </g>
   <g id="line2d_19">
    <path clip-path="url(#p542af5801f)" d="M 664.512582 675.592 
L 664.512582 28.32 
" style="fill:none;stroke:#ff0000;stroke-dasharray:3.7,1.6;stroke-dashoffset:0;"/>
   </g>
   <g id="patch_73">
    <path d="M 47.72 675.592 
L 47.72 28.32 
" style="fill:none;stroke:#000000;stroke-linecap:square;stroke-linejoin:miter;stroke-width:0.8;"/>
   </g>
   <g id="patch_74">
    <path d="M 706.05 675.592 
L 706.05 28.32 
" style="fill:none;stroke:#000000;stroke-linecap:square;stroke-linejoin:miter;stroke-width:0.8;"/>
   </g>
   <g id="patch_75">
    <path d="M 47.72 675.592 
L 706.05 675.592 
" style="fill:none;stroke:#000000;stroke-linecap:square;stroke-linejoin:miter;stroke-width:0.8;"/>
   </g>
   <g id="patch_76">
    <path d="M 47.72 28.32 
L 706.05 28.32 
" style="fill:none;stroke:#000000;stroke-linecap:square;stroke-linejoin:miter;stroke-width:0.8;"/>
   </g>
   <g id="text_19">
    <!-- KDE and spline of log-transformed $K_\mathrm{S}$ of species egu1000.fasta.tsv.ks.tsv -->
    <defs>
     <path d="M 9.8125 72.90625 
L 19.671875 72.90625 
L 19.671875 42.09375 
L 52.390625 72.90625 
L 65.09375 72.90625 
L 28.90625 38.921875 
L 67.671875 0 
L 54.6875 0 
L 19.671875 35.109375 
L 19.671875 0 
L 9.8125 0 
z
" id="DejaVuSans-75"/>
     <path d="M 9.8125 72.90625 
L 55.90625 72.90625 
L 55.90625 64.59375 
L 19.671875 64.59375 
L 19.671875 43.015625 
L 54.390625 43.015625 
L 54.390625 34.71875 
L 19.671875 34.71875 
L 19.671875 8.296875 
L 56.78125 8.296875 
L 56.78125 0 
L 9.8125 0 
z
" id="DejaVuSans-69"/>
     <path d="M 45.40625 27.984375 
Q 45.40625 37.75 41.375 43.109375 
Q 37.359375 48.484375 30.078125 48.484375 
Q 22.859375 48.484375 18.828125 43.109375 
Q 14.796875 37.75 14.796875 27.984375 
Q 14.796875 18.265625 18.828125 12.890625 
Q 22.859375 7.515625 30.078125 7.515625 
Q 37.359375 7.515625 41.375 12.890625 
Q 45.40625 18.265625 45.40625 27.984375 
z
M 54.390625 6.78125 
Q 54.390625 -7.171875 48.1875 -13.984375 
Q 42 -20.796875 29.203125 -20.796875 
Q 24.46875 -20.796875 20.265625 -20.09375 
Q 16.0625 -19.390625 12.109375 -17.921875 
L 12.109375 -9.1875 
Q 16.0625 -11.328125 19.921875 -12.34375 
Q 23.78125 -13.375 27.78125 -13.375 
Q 36.625 -13.375 41.015625 -8.765625 
Q 45.40625 -4.15625 45.40625 5.171875 
L 45.40625 9.625 
Q 42.625 4.78125 38.28125 2.390625 
Q 33.9375 0 27.875 0 
Q 17.828125 0 11.671875 7.65625 
Q 5.515625 15.328125 5.515625 27.984375 
Q 5.515625 40.671875 11.671875 48.328125 
Q 17.828125 56 27.875 56 
Q 33.9375 56 38.28125 53.609375 
Q 42.625 51.21875 45.40625 46.390625 
L 45.40625 54.6875 
L 54.390625 54.6875 
z
" id="DejaVuSans-103"/>
     <path d="M 4.890625 31.390625 
L 31.203125 31.390625 
L 31.203125 23.390625 
L 4.890625 23.390625 
z
" id="DejaVuSans-45"/>
     <path d="M 52 44.1875 
Q 55.375 50.25 60.0625 53.125 
Q 64.75 56 71.09375 56 
Q 79.640625 56 84.28125 50.015625 
Q 88.921875 44.046875 88.921875 33.015625 
L 88.921875 0 
L 79.890625 0 
L 79.890625 32.71875 
Q 79.890625 40.578125 77.09375 44.375 
Q 74.3125 48.1875 68.609375 48.1875 
Q 61.625 48.1875 57.5625 43.546875 
Q 53.515625 38.921875 53.515625 30.90625 
L 53.515625 0 
L 44.484375 0 
L 44.484375 32.71875 
Q 44.484375 40.625 41.703125 44.40625 
Q 38.921875 48.1875 33.109375 48.1875 
Q 26.21875 48.1875 22.15625 43.53125 
Q 18.109375 38.875 18.109375 30.90625 
L 18.109375 0 
L 9.078125 0 
L 9.078125 54.6875 
L 18.109375 54.6875 
L 18.109375 46.1875 
Q 21.1875 51.21875 25.484375 53.609375 
Q 29.78125 56 35.6875 56 
Q 41.65625 56 45.828125 52.96875 
Q 50 49.953125 52 44.1875 
z
" id="DejaVuSans-109"/>
     <path d="M 2.984375 54.6875 
L 12.5 54.6875 
L 29.59375 8.796875 
L 46.6875 54.6875 
L 56.203125 54.6875 
L 35.6875 0 
L 23.484375 0 
z
" id="DejaVuSans-118"/>
     <path d="M 9.078125 75.984375 
L 18.109375 75.984375 
L 18.109375 31.109375 
L 44.921875 54.6875 
L 56.390625 54.6875 
L 27.390625 29.109375 
L 57.625 0 
L 45.90625 0 
L 18.109375 26.703125 
L 18.109375 0 
L 9.078125 0 
z
" id="DejaVuSans-107"/>
    </defs>
    <g transform="translate(157.345 22.32)scale(0.12 -0.12)">
     <use transform="translate(0 0.015625)" xlink:href="#DejaVuSans-75"/>
     <use transform="translate(65.576172 0.015625)" xlink:href="#DejaVuSans-68"/>
     <use transform="translate(142.578125 0.015625)" xlink:href="#DejaVuSans-69"/>
     <use transform="translate(205.761719 0.015625)" xlink:href="#DejaVuSans-32"/>
     <use transform="translate(237.548828 0.015625)" xlink:href="#DejaVuSans-97"/>
     <use transform="translate(298.828125 0.015625)" xlink:href="#DejaVuSans-110"/>
     <use transform="translate(362.207031 0.015625)" xlink:href="#DejaVuSans-100"/>
     <use transform="translate(425.683594 0.015625)" xlink:href="#DejaVuSans-32"/>
     <use transform="translate(457.470703 0.015625)" xlink:href="#DejaVuSans-115"/>
     <use transform="translate(509.570312 0.015625)" xlink:href="#DejaVuSans-112"/>
     <use transform="translate(573.046875 0.015625)" xlink:href="#DejaVuSans-108"/>
     <use transform="translate(600.830078 0.015625)" xlink:href="#DejaVuSans-105"/>
     <use transform="translate(628.613281 0.015625)" xlink:href="#DejaVuSans-110"/>
     <use transform="translate(691.992188 0.015625)" xlink:href="#DejaVuSans-101"/>
     <use transform="translate(753.515625 0.015625)" xlink:href="#DejaVuSans-32"/>
     <use transform="translate(785.302734 0.015625)" xlink:href="#DejaVuSans-111"/>
     <use transform="translate(846.484375 0.015625)" xlink:href="#DejaVuSans-102"/>
     <use transform="translate(881.689453 0.015625)" xlink:href="#DejaVuSans-32"/>
     <use transform="translate(913.476562 0.015625)" xlink:href="#DejaVuSans-108"/>
     <use transform="translate(941.259766 0.015625)" xlink:href="#DejaVuSans-111"/>
     <use transform="translate(1002.441406 0.015625)" xlink:href="#DejaVuSans-103"/>
     <use transform="translate(1065.917969 0.015625)" xlink:href="#DejaVuSans-45"/>
     <use transform="translate(1102.001953 0.015625)" xlink:href="#DejaVuSans-116"/>
     <use transform="translate(1141.210938 0.015625)" xlink:href="#DejaVuSans-114"/>
     <use transform="translate(1182.324219 0.015625)" xlink:href="#DejaVuSans-97"/>
     <use transform="translate(1243.603516 0.015625)" xlink:href="#DejaVuSans-110"/>
     <use transform="translate(1306.982422 0.015625)" xlink:href="#DejaVuSans-115"/>
     <use transform="translate(1359.082031 0.015625)" xlink:href="#DejaVuSans-102"/>
     <use transform="translate(1394.287109 0.015625)" xlink:href="#DejaVuSans-111"/>
     <use transform="translate(1455.46875 0.015625)" xlink:href="#DejaVuSans-114"/>
     <use transform="translate(1496.582031 0.015625)" xlink:href="#DejaVuSans-109"/>
     <use transform="translate(1593.994141 0.015625)" xlink:href="#DejaVuSans-101"/>
     <use transform="translate(1655.517578 0.015625)" xlink:href="#DejaVuSans-100"/>
     <use transform="translate(1718.994141 0.015625)" xlink:href="#DejaVuSans-32"/>
     <use transform="translate(1750.78125 0.015625)" xlink:href="#DejaVuSans-Oblique-75"/>
     <use transform="translate(1816.357422 -16.390625)scale(0.7)" xlink:href="#DejaVuSans-83"/>
     <use transform="translate(1863.525391 0.015625)" xlink:href="#DejaVuSans-32"/>
     <use transform="translate(1895.3125 0.015625)" xlink:href="#DejaVuSans-111"/>
     <use transform="translate(1956.494141 0.015625)" xlink:href="#DejaVuSans-102"/>
     <use transform="translate(1991.699219 0.015625)" xlink:href="#DejaVuSans-32"/>
     <use transform="translate(2023.486328 0.015625)" xlink:href="#DejaVuSans-115"/>
     <use transform="translate(2075.585938 0.015625)" xlink:href="#DejaVuSans-112"/>
     <use transform="translate(2139.0625 0.015625)" xlink:href="#DejaVuSans-101"/>
     <use transform="translate(2200.585938 0.015625)" xlink:href="#DejaVuSans-99"/>
     <use transform="translate(2255.566406 0.015625)" xlink:href="#DejaVuSans-105"/>
     <use transform="translate(2283.349609 0.015625)" xlink:href="#DejaVuSans-101"/>
     <use transform="translate(2344.873047 0.015625)" xlink:href="#DejaVuSans-115"/>
     <use transform="translate(2396.972656 0.015625)" xlink:href="#DejaVuSans-32"/>
     <use transform="translate(2428.759766 0.015625)" xlink:href="#DejaVuSans-101"/>
     <use transform="translate(2490.283203 0.015625)" xlink:href="#DejaVuSans-103"/>
     <use transform="translate(2553.759766 0.015625)" xlink:href="#DejaVuSans-117"/>
     <use transform="translate(2617.138672 0.015625)" xlink:href="#DejaVuSans-49"/>
     <use transform="translate(2680.761719 0.015625)" xlink:href="#DejaVuSans-48"/>
     <use transform="translate(2744.384766 0.015625)" xlink:href="#DejaVuSans-48"/>
     <use transform="translate(2808.007812 0.015625)" xlink:href="#DejaVuSans-48"/>
     <use transform="translate(2871.630859 0.015625)" xlink:href="#DejaVuSans-46"/>
     <use transform="translate(2903.417969 0.015625)" xlink:href="#DejaVuSans-102"/>
     <use transform="translate(2938.623047 0.015625)" xlink:href="#DejaVuSans-97"/>
     <use transform="translate(2999.902344 0.015625)" xlink:href="#DejaVuSans-115"/>
     <use transform="translate(3052.001953 0.015625)" xlink:href="#DejaVuSans-116"/>
     <use transform="translate(3091.210938 0.015625)" xlink:href="#DejaVuSans-97"/>
     <use transform="translate(3152.490234 0.015625)" xlink:href="#DejaVuSans-46"/>
     <use transform="translate(3184.277344 0.015625)" xlink:href="#DejaVuSans-116"/>
     <use transform="translate(3223.486328 0.015625)" xlink:href="#DejaVuSans-115"/>
     <use transform="translate(3275.585938 0.015625)" xlink:href="#DejaVuSans-118"/>
     <use transform="translate(3334.765625 0.015625)" xlink:href="#DejaVuSans-46"/>
     <use transform="translate(3366.552734 0.015625)" xlink:href="#DejaVuSans-107"/>
     <use transform="translate(3424.462891 0.015625)" xlink:href="#DejaVuSans-115"/>
     <use transform="translate(3476.5625 0.015625)" xlink:href="#DejaVuSans-46"/>
     <use transform="translate(3508.349609 0.015625)" xlink:href="#DejaVuSans-116"/>
     <use transform="translate(3547.558594 0.015625)" xlink:href="#DejaVuSans-115"/>
     <use transform="translate(3599.658203 0.015625)" xlink:href="#DejaVuSans-118"/>
    </g>
   </g>
   <g id="legend_1">
    <g id="line2d_20">
     <path d="M 58.52 44.038125 
L 82.52 44.038125 
" style="fill:none;stroke:#000000;stroke-linecap:square;"/>
    </g>
    <g id="line2d_21"/>
    <g id="text_20">
     <!-- KDE -->
     <g transform="translate(92.12 48.238125)scale(0.12 -0.12)">
      <use xlink:href="#DejaVuSans-75"/>
      <use x="65.576172" xlink:href="#DejaVuSans-68"/>
      <use x="142.578125" xlink:href="#DejaVuSans-69"/>
     </g>
    </g>
    <g id="line2d_22">
     <path d="M 58.52 61.651875 
L 82.52 61.651875 
" style="fill:none;stroke:#0000ff;stroke-linecap:square;"/>
    </g>
    <g id="line2d_23"/>
    <g id="text_21">
     <!-- Spline on KDE -->
     <g transform="translate(92.12 65.851875)scale(0.12 -0.12)">
      <use xlink:href="#DejaVuSans-83"/>
      <use x="63.476562" xlink:href="#DejaVuSans-112"/>
      <use x="126.953125" xlink:href="#DejaVuSans-108"/>
      <use x="154.736328" xlink:href="#DejaVuSans-105"/>
      <use x="182.519531" xlink:href="#DejaVuSans-110"/>
      <use x="245.898438" xlink:href="#DejaVuSans-101"/>
      <use x="307.421875" xlink:href="#DejaVuSans-32"/>
      <use x="339.208984" xlink:href="#DejaVuSans-111"/>
      <use x="400.390625" xlink:href="#DejaVuSans-110"/>
      <use x="463.769531" xlink:href="#DejaVuSans-32"/>
      <use x="495.556641" xlink:href="#DejaVuSans-75"/>
      <use x="561.132812" xlink:href="#DejaVuSans-68"/>
      <use x="638.134766" xlink:href="#DejaVuSans-69"/>
     </g>
    </g>
    <g id="line2d_24">
     <path d="M 58.52 79.265625 
L 82.52 79.265625 
" style="fill:none;stroke:#ff0000;stroke-dasharray:3.7,1.6;stroke-dashoffset:0;"/>
    </g>
    <g id="line2d_25"/>
    <g id="text_22">
     <!-- Reflection boundary -->
     <defs>
      <path d="M 44.390625 34.1875 
Q 47.5625 33.109375 50.5625 29.59375 
Q 53.5625 26.078125 56.59375 19.921875 
L 66.609375 0 
L 56 0 
L 46.6875 18.703125 
Q 43.0625 26.03125 39.671875 28.421875 
Q 36.28125 30.8125 30.421875 30.8125 
L 19.671875 30.8125 
L 19.671875 0 
L 9.8125 0 
L 9.8125 72.90625 
L 32.078125 72.90625 
Q 44.578125 72.90625 50.734375 67.671875 
Q 56.890625 62.453125 56.890625 51.90625 
Q 56.890625 45.015625 53.6875 40.46875 
Q 50.484375 35.9375 44.390625 34.1875 
z
M 19.671875 64.796875 
L 19.671875 38.921875 
L 32.078125 38.921875 
Q 39.203125 38.921875 42.84375 42.21875 
Q 46.484375 45.515625 46.484375 51.90625 
Q 46.484375 58.296875 42.84375 61.546875 
Q 39.203125 64.796875 32.078125 64.796875 
z
" id="DejaVuSans-82"/>
      <path d="M 48.6875 27.296875 
Q 48.6875 37.203125 44.609375 42.84375 
Q 40.53125 48.484375 33.40625 48.484375 
Q 26.265625 48.484375 22.1875 42.84375 
Q 18.109375 37.203125 18.109375 27.296875 
Q 18.109375 17.390625 22.1875 11.75 
Q 26.265625 6.109375 33.40625 6.109375 
Q 40.53125 6.109375 44.609375 11.75 
Q 48.6875 17.390625 48.6875 27.296875 
z
M 18.109375 46.390625 
Q 20.953125 51.265625 25.265625 53.625 
Q 29.59375 56 35.59375 56 
Q 45.5625 56 51.78125 48.09375 
Q 58.015625 40.1875 58.015625 27.296875 
Q 58.015625 14.40625 51.78125 6.484375 
Q 45.5625 -1.421875 35.59375 -1.421875 
Q 29.59375 -1.421875 25.265625 0.953125 
Q 20.953125 3.328125 18.109375 8.203125 
L 18.109375 0 
L 9.078125 0 
L 9.078125 75.984375 
L 18.109375 75.984375 
z
" id="DejaVuSans-98"/>
     </defs>
     <g transform="translate(92.12 83.465625)scale(0.12 -0.12)">
      <use xlink:href="#DejaVuSans-82"/>
      <use x="64.982422" xlink:href="#DejaVuSans-101"/>
      <use x="126.505859" xlink:href="#DejaVuSans-102"/>
      <use x="161.710938" xlink:href="#DejaVuSans-108"/>
      <use x="189.494141" xlink:href="#DejaVuSans-101"/>
      <use x="251.017578" xlink:href="#DejaVuSans-99"/>
      <use x="305.998047" xlink:href="#DejaVuSans-116"/>
      <use x="345.207031" xlink:href="#DejaVuSans-105"/>
      <use x="372.990234" xlink:href="#DejaVuSans-111"/>
      <use x="434.171875" xlink:href="#DejaVuSans-110"/>
      <use x="497.550781" xlink:href="#DejaVuSans-32"/>
      <use x="529.337891" xlink:href="#DejaVuSans-98"/>
      <use x="592.814453" xlink:href="#DejaVuSans-111"/>
      <use x="653.996094" xlink:href="#DejaVuSans-117"/>
      <use x="717.375" xlink:href="#DejaVuSans-110"/>
      <use x="780.753906" xlink:href="#DejaVuSans-100"/>
      <use x="844.230469" xlink:href="#DejaVuSans-97"/>
      <use x="905.509766" xlink:href="#DejaVuSans-114"/>
      <use x="946.623047" xlink:href="#DejaVuSans-121"/>
     </g>
    </g>
   </g>
  </g>
 </g>
 <defs>
  <clipPath id="p542af5801f">
   <rect height="647.272" width="658.33" x="47.72" y="28.32"/>
  </clipPath>
 </defs>
</svg>
