<?xml version="1.0" encoding="utf-8" standalone="no"?>
<!DOCTYPE svg PUBLIC "-//W3C//DTD SVG 1.1//EN"
  "http://www.w3.org/Graphics/SVG/1.1/DTD/svg11.dtd">
<!-- Created with matplotlib (https://matplotlib.org/) -->
<svg height="345.6pt" version="1.1" viewBox="0 0 460.8 345.6" width="460.8pt" xmlns="http://www.w3.org/2000/svg" xmlns:xlink="http://www.w3.org/1999/xlink">
 <defs>
  <style type="text/css">
*{stroke-linecap:butt;stroke-linejoin:round;}
  </style>
 </defs>
 <g id="figure_1">
  <g id="patch_1">
   <path d="M 0 345.6 
L 460.8 345.6 
L 460.8 0 
L 0 0 
z
" style="fill:#ffffff;"/>
  </g>
  <g id="axes_1">
   <g id="patch_2">
    <path d="M 39.27 156.135249 
L 228.89 156.135249 
L 228.89 51.84 
L 39.27 51.84 
z
" style="fill:#ffffff;"/>
   </g>
   <g id="patch_3">
    <path clip-path="url(#pa3f6d1a0ec)" d="M 39.64924 156.135249 
L 42.68316 156.135249 
L 42.68316 77.717769 
L 39.64924 77.717769 
z
" style="fill:#808080;"/>
   </g>
   <g id="patch_4">
    <path clip-path="url(#pa3f6d1a0ec)" d="M 43.44164 156.135249 
L 46.47556 156.135249 
L 46.47556 56.80644 
L 43.44164 56.80644 
z
" style="fill:#808080;"/>
   </g>
   <g id="patch_5">
    <path clip-path="url(#pa3f6d1a0ec)" d="M 47.23404 156.135249 
L 50.26796 156.135249 
L 50.26796 114.312593 
L 47.23404 114.312593 
z
" style="fill:#808080;"/>
   </g>
   <g id="patch_6">
    <path clip-path="url(#pa3f6d1a0ec)" d="M 51.02644 156.135249 
L 54.06036 156.135249 
L 54.06036 129.996089 
L 51.02644 129.996089 
z
" style="fill:#808080;"/>
   </g>
   <g id="patch_7">
    <path clip-path="url(#pa3f6d1a0ec)" d="M 54.81884 156.135249 
L 57.85276 156.135249 
L 57.85276 129.996089 
L 54.81884 129.996089 
z
" style="fill:#808080;"/>
   </g>
   <g id="patch_8">
    <path clip-path="url(#pa3f6d1a0ec)" d="M 58.61124 156.135249 
L 61.64516 156.135249 
L 61.64516 129.996089 
L 58.61124 129.996089 
z
" style="fill:#808080;"/>
   </g>
   <g id="patch_9">
    <path clip-path="url(#pa3f6d1a0ec)" d="M 62.40364 156.135249 
L 65.43756 156.135249 
L 65.43756 132.610005 
L 62.40364 132.610005 
z
" style="fill:#808080;"/>
   </g>
   <g id="patch_10">
    <path clip-path="url(#pa3f6d1a0ec)" d="M 66.19604 156.135249 
L 69.22996 156.135249 
L 69.22996 146.986543 
L 66.19604 146.986543 
z
" style="fill:#808080;"/>
   </g>
   <g id="patch_11">
    <path clip-path="url(#pa3f6d1a0ec)" d="M 69.98844 156.135249 
L 73.02236 156.135249 
L 73.02236 152.214375 
L 69.98844 152.214375 
z
" style="fill:#808080;"/>
   </g>
   <g id="patch_12">
    <path clip-path="url(#pa3f6d1a0ec)" d="M 73.78084 156.135249 
L 76.81476 156.135249 
L 76.81476 154.044116 
L 73.78084 154.044116 
z
" style="fill:#808080;"/>
   </g>
   <g id="patch_13">
    <path clip-path="url(#pa3f6d1a0ec)" d="M 77.57324 156.135249 
L 80.60716 156.135249 
L 80.60716 121.631558 
L 77.57324 121.631558 
z
" style="fill:#808080;"/>
   </g>
   <g id="patch_14">
    <path clip-path="url(#pa3f6d1a0ec)" d="M 81.36564 156.135249 
L 84.39956 156.135249 
L 84.39956 150.907417 
L 81.36564 150.907417 
z
" style="fill:#808080;"/>
   </g>
   <g id="patch_15">
    <path clip-path="url(#pa3f6d1a0ec)" d="M 85.15804 156.135249 
L 88.19196 156.135249 
L 88.19196 136.61801 
L 85.15804 136.61801 
z
" style="fill:#808080;"/>
   </g>
   <g id="patch_16">
    <path clip-path="url(#pa3f6d1a0ec)" d="M 88.95044 156.135249 
L 91.98436 156.135249 
L 91.98436 139.057665 
L 88.95044 139.057665 
z
" style="fill:#808080;"/>
   </g>
   <g id="patch_17">
    <path clip-path="url(#pa3f6d1a0ec)" d="M 92.74284 156.135249 
L 95.77676 156.135249 
L 95.77676 150.907417 
L 92.74284 150.907417 
z
" style="fill:#808080;"/>
   </g>
   <g id="patch_18">
    <path clip-path="url(#pa3f6d1a0ec)" d="M 96.53524 156.135249 
L 99.56916 156.135249 
L 99.56916 145.679585 
L 96.53524 145.679585 
z
" style="fill:#808080;"/>
   </g>
   <g id="patch_19">
    <path clip-path="url(#pa3f6d1a0ec)" d="M 100.32764 156.135249 
L 103.36156 156.135249 
L 103.36156 156.135249 
L 100.32764 156.135249 
z
" style="fill:#808080;"/>
   </g>
   <g id="patch_20">
    <path clip-path="url(#pa3f6d1a0ec)" d="M 104.12004 156.135249 
L 107.15396 156.135249 
L 107.15396 156.135249 
L 104.12004 156.135249 
z
" style="fill:#808080;"/>
   </g>
   <g id="patch_21">
    <path clip-path="url(#pa3f6d1a0ec)" d="M 107.91244 156.135249 
L 110.94636 156.135249 
L 110.94636 156.135249 
L 107.91244 156.135249 
z
" style="fill:#808080;"/>
   </g>
   <g id="patch_22">
    <path clip-path="url(#pa3f6d1a0ec)" d="M 111.70484 156.135249 
L 114.73876 156.135249 
L 114.73876 156.135249 
L 111.70484 156.135249 
z
" style="fill:#808080;"/>
   </g>
   <g id="patch_23">
    <path clip-path="url(#pa3f6d1a0ec)" d="M 115.49724 156.135249 
L 118.53116 156.135249 
L 118.53116 156.135249 
L 115.49724 156.135249 
z
" style="fill:#808080;"/>
   </g>
   <g id="patch_24">
    <path clip-path="url(#pa3f6d1a0ec)" d="M 119.28964 156.135249 
L 122.32356 156.135249 
L 122.32356 154.044116 
L 119.28964 154.044116 
z
" style="fill:#808080;"/>
   </g>
   <g id="patch_25">
    <path clip-path="url(#pa3f6d1a0ec)" d="M 123.08204 156.135249 
L 126.11596 156.135249 
L 126.11596 154.044116 
L 123.08204 154.044116 
z
" style="fill:#808080;"/>
   </g>
   <g id="patch_26">
    <path clip-path="url(#pa3f6d1a0ec)" d="M 126.87444 156.135249 
L 129.90836 156.135249 
L 129.90836 145.679585 
L 126.87444 145.679585 
z
" style="fill:#808080;"/>
   </g>
   <g id="patch_27">
    <path clip-path="url(#pa3f6d1a0ec)" d="M 130.66684 156.135249 
L 133.70076 156.135249 
L 133.70076 156.135249 
L 130.66684 156.135249 
z
" style="fill:#808080;"/>
   </g>
   <g id="patch_28">
    <path clip-path="url(#pa3f6d1a0ec)" d="M 134.45924 156.135249 
L 137.49316 156.135249 
L 137.49316 156.135249 
L 134.45924 156.135249 
z
" style="fill:#808080;"/>
   </g>
   <g id="patch_29">
    <path clip-path="url(#pa3f6d1a0ec)" d="M 138.25164 156.135249 
L 141.28556 156.135249 
L 141.28556 156.135249 
L 138.25164 156.135249 
z
" style="fill:#808080;"/>
   </g>
   <g id="patch_30">
    <path clip-path="url(#pa3f6d1a0ec)" d="M 142.04404 156.135249 
L 145.07796 156.135249 
L 145.07796 156.135249 
L 142.04404 156.135249 
z
" style="fill:#808080;"/>
   </g>
   <g id="patch_31">
    <path clip-path="url(#pa3f6d1a0ec)" d="M 145.83644 156.135249 
L 148.87036 156.135249 
L 148.87036 156.135249 
L 145.83644 156.135249 
z
" style="fill:#808080;"/>
   </g>
   <g id="patch_32">
    <path clip-path="url(#pa3f6d1a0ec)" d="M 149.62884 156.135249 
L 152.66276 156.135249 
L 152.66276 156.135249 
L 149.62884 156.135249 
z
" style="fill:#808080;"/>
   </g>
   <g id="patch_33">
    <path clip-path="url(#pa3f6d1a0ec)" d="M 153.42124 156.135249 
L 156.45516 156.135249 
L 156.45516 156.135249 
L 153.42124 156.135249 
z
" style="fill:#808080;"/>
   </g>
   <g id="patch_34">
    <path clip-path="url(#pa3f6d1a0ec)" d="M 157.21364 156.135249 
L 160.24756 156.135249 
L 160.24756 156.135249 
L 157.21364 156.135249 
z
" style="fill:#808080;"/>
   </g>
   <g id="patch_35">
    <path clip-path="url(#pa3f6d1a0ec)" d="M 161.00604 156.135249 
L 164.03996 156.135249 
L 164.03996 156.135249 
L 161.00604 156.135249 
z
" style="fill:#808080;"/>
   </g>
   <g id="patch_36">
    <path clip-path="url(#pa3f6d1a0ec)" d="M 164.79844 156.135249 
L 167.83236 156.135249 
L 167.83236 150.558895 
L 164.79844 150.558895 
z
" style="fill:#808080;"/>
   </g>
   <g id="patch_37">
    <path clip-path="url(#pa3f6d1a0ec)" d="M 168.59084 156.135249 
L 171.62476 156.135249 
L 171.62476 152.650028 
L 168.59084 152.650028 
z
" style="fill:#808080;"/>
   </g>
   <g id="patch_38">
    <path clip-path="url(#pa3f6d1a0ec)" d="M 172.38324 156.135249 
L 175.41716 156.135249 
L 175.41716 149.164806 
L 172.38324 149.164806 
z
" style="fill:#808080;"/>
   </g>
   <g id="patch_39">
    <path clip-path="url(#pa3f6d1a0ec)" d="M 176.17564 156.135249 
L 179.20956 156.135249 
L 179.20956 152.650028 
L 176.17564 152.650028 
z
" style="fill:#808080;"/>
   </g>
   <g id="patch_40">
    <path clip-path="url(#pa3f6d1a0ec)" d="M 179.96804 156.135249 
L 183.00196 156.135249 
L 183.00196 143.588452 
L 179.96804 143.588452 
z
" style="fill:#808080;"/>
   </g>
   <g id="patch_41">
    <path clip-path="url(#pa3f6d1a0ec)" d="M 183.76044 156.135249 
L 186.79436 156.135249 
L 186.79436 152.650028 
L 183.76044 152.650028 
z
" style="fill:#808080;"/>
   </g>
   <g id="patch_42">
    <path clip-path="url(#pa3f6d1a0ec)" d="M 187.55284 156.135249 
L 190.58676 156.135249 
L 190.58676 156.135249 
L 187.55284 156.135249 
z
" style="fill:#808080;"/>
   </g>
   <g id="patch_43">
    <path clip-path="url(#pa3f6d1a0ec)" d="M 191.34524 156.135249 
L 194.37916 156.135249 
L 194.37916 145.679585 
L 191.34524 145.679585 
z
" style="fill:#808080;"/>
   </g>
   <g id="patch_44">
    <path clip-path="url(#pa3f6d1a0ec)" d="M 195.13764 156.135249 
L 198.17156 156.135249 
L 198.17156 156.135249 
L 195.13764 156.135249 
z
" style="fill:#808080;"/>
   </g>
   <g id="patch_45">
    <path clip-path="url(#pa3f6d1a0ec)" d="M 198.93004 156.135249 
L 201.96396 156.135249 
L 201.96396 145.679585 
L 198.93004 145.679585 
z
" style="fill:#808080;"/>
   </g>
   <g id="patch_46">
    <path clip-path="url(#pa3f6d1a0ec)" d="M 202.72244 156.135249 
L 205.75636 156.135249 
L 205.75636 156.135249 
L 202.72244 156.135249 
z
" style="fill:#808080;"/>
   </g>
   <g id="patch_47">
    <path clip-path="url(#pa3f6d1a0ec)" d="M 206.51484 156.135249 
L 209.54876 156.135249 
L 209.54876 156.135249 
L 206.51484 156.135249 
z
" style="fill:#808080;"/>
   </g>
   <g id="patch_48">
    <path clip-path="url(#pa3f6d1a0ec)" d="M 210.30724 156.135249 
L 213.34116 156.135249 
L 213.34116 156.135249 
L 210.30724 156.135249 
z
" style="fill:#808080;"/>
   </g>
   <g id="patch_49">
    <path clip-path="url(#pa3f6d1a0ec)" d="M 214.09964 156.135249 
L 217.13356 156.135249 
L 217.13356 154.044116 
L 214.09964 154.044116 
z
" style="fill:#808080;"/>
   </g>
   <g id="patch_50">
    <path clip-path="url(#pa3f6d1a0ec)" d="M 217.89204 156.135249 
L 220.92596 156.135249 
L 220.92596 145.679585 
L 217.89204 145.679585 
z
" style="fill:#808080;"/>
   </g>
   <g id="patch_51">
    <path clip-path="url(#pa3f6d1a0ec)" d="M 221.68444 156.135249 
L 224.71836 156.135249 
L 224.71836 156.135249 
L 221.68444 156.135249 
z
" style="fill:#808080;"/>
   </g>
   <g id="patch_52">
    <path clip-path="url(#pa3f6d1a0ec)" d="M 225.47684 156.135249 
L 228.51076 156.135249 
L 228.51076 156.135249 
L 225.47684 156.135249 
z
" style="fill:#808080;"/>
   </g>
   <g id="patch_53">
    <path clip-path="url(#pa3f6d1a0ec)" d="M 39.808233 156.135249 
L 42.688151 156.135249 
L 42.688151 77.717769 
L 39.808233 77.717769 
z
" style="fill:#808080;"/>
   </g>
   <g id="patch_54">
    <path clip-path="url(#pa3f6d1a0ec)" d="M 43.40813 156.135249 
L 46.288049 156.135249 
L 46.288049 56.80644 
L 43.40813 56.80644 
z
" style="fill:#808080;"/>
   </g>
   <g id="patch_55">
    <path clip-path="url(#pa3f6d1a0ec)" d="M 47.008028 156.135249 
L 49.887946 156.135249 
L 49.887946 114.312593 
L 47.008028 114.312593 
z
" style="fill:#808080;"/>
   </g>
   <g id="patch_56">
    <path clip-path="url(#pa3f6d1a0ec)" d="M 50.607926 156.135249 
L 53.487844 156.135249 
L 53.487844 140.451753 
L 50.607926 140.451753 
z
" style="fill:#808080;"/>
   </g>
   <g id="patch_57">
    <path clip-path="url(#pa3f6d1a0ec)" d="M 54.207824 156.135249 
L 57.087742 156.135249 
L 57.087742 122.154341 
L 54.207824 122.154341 
z
" style="fill:#808080;"/>
   </g>
   <g id="patch_58">
    <path clip-path="url(#pa3f6d1a0ec)" d="M 57.807721 156.135249 
L 60.68764 156.135249 
L 60.68764 127.382173 
L 57.807721 127.382173 
z
" style="fill:#808080;"/>
   </g>
   <g id="patch_59">
    <path clip-path="url(#pa3f6d1a0ec)" d="M 61.407619 156.135249 
L 64.287537 156.135249 
L 64.287537 132.610005 
L 61.407619 132.610005 
z
" style="fill:#808080;"/>
   </g>
   <g id="patch_60">
    <path clip-path="url(#pa3f6d1a0ec)" d="M 65.007517 156.135249 
L 67.887435 156.135249 
L 67.887435 146.986543 
L 65.007517 146.986543 
z
" style="fill:#808080;"/>
   </g>
   <g id="patch_61">
    <path clip-path="url(#pa3f6d1a0ec)" d="M 68.607415 156.135249 
L 71.487333 156.135249 
L 71.487333 152.214375 
L 68.607415 152.214375 
z
" style="fill:#808080;"/>
   </g>
   <g id="patch_62">
    <path clip-path="url(#pa3f6d1a0ec)" d="M 72.207313 156.135249 
L 75.087231 156.135249 
L 75.087231 155.089683 
L 72.207313 155.089683 
z
" style="fill:#808080;"/>
   </g>
   <g id="patch_63">
    <path clip-path="url(#pa3f6d1a0ec)" d="M 75.80721 156.135249 
L 78.687129 156.135249 
L 78.687129 141.497319 
L 75.80721 141.497319 
z
" style="fill:#808080;"/>
   </g>
   <g id="patch_64">
    <path clip-path="url(#pa3f6d1a0ec)" d="M 79.407108 156.135249 
L 82.287026 156.135249 
L 82.287026 135.223921 
L 79.407108 135.223921 
z
" style="fill:#808080;"/>
   </g>
   <g id="patch_65">
    <path clip-path="url(#pa3f6d1a0ec)" d="M 83.007006 156.135249 
L 85.886924 156.135249 
L 85.886924 134.875399 
L 83.007006 134.875399 
z
" style="fill:#808080;"/>
   </g>
   <g id="patch_66">
    <path clip-path="url(#pa3f6d1a0ec)" d="M 86.606904 156.135249 
L 89.486822 156.135249 
L 89.486822 141.148797 
L 86.606904 141.148797 
z
" style="fill:#808080;"/>
   </g>
   <g id="patch_67">
    <path clip-path="url(#pa3f6d1a0ec)" d="M 90.206801 156.135249 
L 93.08672 156.135249 
L 93.08672 150.558895 
L 90.206801 150.558895 
z
" style="fill:#808080;"/>
   </g>
   <g id="patch_68">
    <path clip-path="url(#pa3f6d1a0ec)" d="M 93.806699 156.135249 
L 96.686617 156.135249 
L 96.686617 140.451753 
L 93.806699 140.451753 
z
" style="fill:#808080;"/>
   </g>
   <g id="patch_69">
    <path clip-path="url(#pa3f6d1a0ec)" d="M 97.406597 156.135249 
L 100.286515 156.135249 
L 100.286515 156.135249 
L 97.406597 156.135249 
z
" style="fill:#808080;"/>
   </g>
   <g id="patch_70">
    <path clip-path="url(#pa3f6d1a0ec)" d="M 101.006495 156.135249 
L 103.886413 156.135249 
L 103.886413 156.135249 
L 101.006495 156.135249 
z
" style="fill:#808080;"/>
   </g>
   <g id="patch_71">
    <path clip-path="url(#pa3f6d1a0ec)" d="M 104.606393 156.135249 
L 107.486311 156.135249 
L 107.486311 156.135249 
L 104.606393 156.135249 
z
" style="fill:#808080;"/>
   </g>
   <g id="patch_72">
    <path clip-path="url(#pa3f6d1a0ec)" d="M 108.20629 156.135249 
L 111.086209 156.135249 
L 111.086209 156.135249 
L 108.20629 156.135249 
z
" style="fill:#808080;"/>
   </g>
   <g id="patch_73">
    <path clip-path="url(#pa3f6d1a0ec)" d="M 111.806188 156.135249 
L 114.686106 156.135249 
L 114.686106 156.135249 
L 111.806188 156.135249 
z
" style="fill:#808080;"/>
   </g>
   <g id="patch_74">
    <path clip-path="url(#pa3f6d1a0ec)" d="M 115.406086 156.135249 
L 118.286004 156.135249 
L 118.286004 156.135249 
L 115.406086 156.135249 
z
" style="fill:#808080;"/>
   </g>
   <g id="patch_75">
    <path clip-path="url(#pa3f6d1a0ec)" d="M 119.005984 156.135249 
L 121.885902 156.135249 
L 121.885902 154.044116 
L 119.005984 154.044116 
z
" style="fill:#808080;"/>
   </g>
   <g id="patch_76">
    <path clip-path="url(#pa3f6d1a0ec)" d="M 122.605881 156.135249 
L 125.4858 156.135249 
L 125.4858 154.044116 
L 122.605881 154.044116 
z
" style="fill:#808080;"/>
   </g>
   <g id="patch_77">
    <path clip-path="url(#pa3f6d1a0ec)" d="M 126.205779 156.135249 
L 129.085697 156.135249 
L 129.085697 145.679585 
L 126.205779 145.679585 
z
" style="fill:#808080;"/>
   </g>
   <g id="patch_78">
    <path clip-path="url(#pa3f6d1a0ec)" d="M 129.805677 156.135249 
L 132.685595 156.135249 
L 132.685595 156.135249 
L 129.805677 156.135249 
z
" style="fill:#808080;"/>
   </g>
   <g id="patch_79">
    <path clip-path="url(#pa3f6d1a0ec)" d="M 133.405575 156.135249 
L 136.285493 156.135249 
L 136.285493 156.135249 
L 133.405575 156.135249 
z
" style="fill:#808080;"/>
   </g>
   <g id="patch_80">
    <path clip-path="url(#pa3f6d1a0ec)" d="M 137.005473 156.135249 
L 139.885391 156.135249 
L 139.885391 156.135249 
L 137.005473 156.135249 
z
" style="fill:#808080;"/>
   </g>
   <g id="patch_81">
    <path clip-path="url(#pa3f6d1a0ec)" d="M 140.60537 156.135249 
L 143.485289 156.135249 
L 143.485289 156.135249 
L 140.60537 156.135249 
z
" style="fill:#808080;"/>
   </g>
   <g id="patch_82">
    <path clip-path="url(#pa3f6d1a0ec)" d="M 144.205268 156.135249 
L 147.085186 156.135249 
L 147.085186 156.135249 
L 144.205268 156.135249 
z
" style="fill:#808080;"/>
   </g>
   <g id="patch_83">
    <path clip-path="url(#pa3f6d1a0ec)" d="M 147.805166 156.135249 
L 150.685084 156.135249 
L 150.685084 156.135249 
L 147.805166 156.135249 
z
" style="fill:#808080;"/>
   </g>
   <g id="patch_84">
    <path clip-path="url(#pa3f6d1a0ec)" d="M 151.405064 156.135249 
L 154.284982 156.135249 
L 154.284982 156.135249 
L 151.405064 156.135249 
z
" style="fill:#808080;"/>
   </g>
   <g id="patch_85">
    <path clip-path="url(#pa3f6d1a0ec)" d="M 155.004961 156.135249 
L 157.88488 156.135249 
L 157.88488 156.135249 
L 155.004961 156.135249 
z
" style="fill:#808080;"/>
   </g>
   <g id="patch_86">
    <path clip-path="url(#pa3f6d1a0ec)" d="M 158.604859 156.135249 
L 161.484777 156.135249 
L 161.484777 156.135249 
L 158.604859 156.135249 
z
" style="fill:#808080;"/>
   </g>
   <g id="patch_87">
    <path clip-path="url(#pa3f6d1a0ec)" d="M 162.204757 156.135249 
L 165.084675 156.135249 
L 165.084675 154.044116 
L 162.204757 154.044116 
z
" style="fill:#808080;"/>
   </g>
   <g id="patch_88">
    <path clip-path="url(#pa3f6d1a0ec)" d="M 165.804655 156.135249 
L 168.684573 156.135249 
L 168.684573 152.650028 
L 165.804655 152.650028 
z
" style="fill:#808080;"/>
   </g>
   <g id="patch_89">
    <path clip-path="url(#pa3f6d1a0ec)" d="M 169.404553 156.135249 
L 172.284471 156.135249 
L 172.284471 152.650028 
L 169.404553 152.650028 
z
" style="fill:#808080;"/>
   </g>
   <g id="patch_90">
    <path clip-path="url(#pa3f6d1a0ec)" d="M 173.00445 156.135249 
L 175.884369 156.135249 
L 175.884369 149.164806 
L 173.00445 149.164806 
z
" style="fill:#808080;"/>
   </g>
   <g id="patch_91">
    <path clip-path="url(#pa3f6d1a0ec)" d="M 176.604348 156.135249 
L 179.484266 156.135249 
L 179.484266 152.650028 
L 176.604348 152.650028 
z
" style="fill:#808080;"/>
   </g>
   <g id="patch_92">
    <path clip-path="url(#pa3f6d1a0ec)" d="M 180.204246 156.135249 
L 183.084164 156.135249 
L 183.084164 143.588452 
L 180.204246 143.588452 
z
" style="fill:#808080;"/>
   </g>
   <g id="patch_93">
    <path clip-path="url(#pa3f6d1a0ec)" d="M 183.804144 156.135249 
L 186.684062 156.135249 
L 186.684062 152.650028 
L 183.804144 152.650028 
z
" style="fill:#808080;"/>
   </g>
   <g id="patch_94">
    <path clip-path="url(#pa3f6d1a0ec)" d="M 187.404041 156.135249 
L 190.28396 156.135249 
L 190.28396 156.135249 
L 187.404041 156.135249 
z
" style="fill:#808080;"/>
   </g>
   <g id="patch_95">
    <path clip-path="url(#pa3f6d1a0ec)" d="M 191.003939 156.135249 
L 193.883857 156.135249 
L 193.883857 145.679585 
L 191.003939 145.679585 
z
" style="fill:#808080;"/>
   </g>
   <g id="patch_96">
    <path clip-path="url(#pa3f6d1a0ec)" d="M 194.603837 156.135249 
L 197.483755 156.135249 
L 197.483755 156.135249 
L 194.603837 156.135249 
z
" style="fill:#808080;"/>
   </g>
   <g id="patch_97">
    <path clip-path="url(#pa3f6d1a0ec)" d="M 198.203735 156.135249 
L 201.083653 156.135249 
L 201.083653 156.135249 
L 198.203735 156.135249 
z
" style="fill:#808080;"/>
   </g>
   <g id="patch_98">
    <path clip-path="url(#pa3f6d1a0ec)" d="M 201.803632 156.135249 
L 204.683551 156.135249 
L 204.683551 145.679585 
L 201.803632 145.679585 
z
" style="fill:#808080;"/>
   </g>
   <g id="patch_99">
    <path clip-path="url(#pa3f6d1a0ec)" d="M 205.40353 156.135249 
L 208.283448 156.135249 
L 208.283448 156.135249 
L 205.40353 156.135249 
z
" style="fill:#808080;"/>
   </g>
   <g id="patch_100">
    <path clip-path="url(#pa3f6d1a0ec)" d="M 209.003428 156.135249 
L 211.883346 156.135249 
L 211.883346 156.135249 
L 209.003428 156.135249 
z
" style="fill:#808080;"/>
   </g>
   <g id="patch_101">
    <path clip-path="url(#pa3f6d1a0ec)" d="M 212.603326 156.135249 
L 215.483244 156.135249 
L 215.483244 156.135249 
L 212.603326 156.135249 
z
" style="fill:#808080;"/>
   </g>
   <g id="patch_102">
    <path clip-path="url(#pa3f6d1a0ec)" d="M 216.203224 156.135249 
L 219.083142 156.135249 
L 219.083142 143.588452 
L 216.203224 143.588452 
z
" style="fill:#808080;"/>
   </g>
   <g id="matplotlib.axis_1">
    <g id="xtick_1">
     <g id="line2d_1">
      <defs>
       <path d="M 0 0 
L 0 3.5 
" id="me78f6007a9" style="stroke:#000000;stroke-width:0.8;"/>
      </defs>
      <g>
       <use style="stroke:#000000;stroke-width:0.8;" x="39.27" xlink:href="#me78f6007a9" y="157.135249"/>
      </g>
     </g>
     <g id="text_1">
      <!-- 0 -->
      <defs>
       <path d="M 31.78125 66.40625 
Q 24.171875 66.40625 20.328125 58.90625 
Q 16.5 51.421875 16.5 36.375 
Q 16.5 21.390625 20.328125 13.890625 
Q 24.171875 6.390625 31.78125 6.390625 
Q 39.453125 6.390625 43.28125 13.890625 
Q 47.125 21.390625 47.125 36.375 
Q 47.125 51.421875 43.28125 58.90625 
Q 39.453125 66.40625 31.78125 66.40625 
z
M 31.78125 74.21875 
Q 44.046875 74.21875 50.515625 64.515625 
Q 56.984375 54.828125 56.984375 36.375 
Q 56.984375 17.96875 50.515625 8.265625 
Q 44.046875 -1.421875 31.78125 -1.421875 
Q 19.53125 -1.421875 13.0625 8.265625 
Q 6.59375 17.96875 6.59375 36.375 
Q 6.59375 54.828125 13.0625 64.515625 
Q 19.53125 74.21875 31.78125 74.21875 
z
" id="DejaVuSans-48"/>
      </defs>
      <g transform="translate(36.08875 171.733687)scale(0.1 -0.1)">
       <use xlink:href="#DejaVuSans-48"/>
      </g>
     </g>
    </g>
    <g id="xtick_2">
     <g id="line2d_2">
      <g>
       <use style="stroke:#000000;stroke-width:0.8;" x="77.194" xlink:href="#me78f6007a9" y="157.135249"/>
      </g>
     </g>
     <g id="text_2">
      <!-- 1 -->
      <defs>
       <path d="M 12.40625 8.296875 
L 28.515625 8.296875 
L 28.515625 63.921875 
L 10.984375 60.40625 
L 10.984375 69.390625 
L 28.421875 72.90625 
L 38.28125 72.90625 
L 38.28125 8.296875 
L 54.390625 8.296875 
L 54.390625 0 
L 12.40625 0 
z
" id="DejaVuSans-49"/>
      </defs>
      <g transform="translate(74.01275 171.733687)scale(0.1 -0.1)">
       <use xlink:href="#DejaVuSans-49"/>
      </g>
     </g>
    </g>
    <g id="xtick_3">
     <g id="line2d_3">
      <g>
       <use style="stroke:#000000;stroke-width:0.8;" x="115.118" xlink:href="#me78f6007a9" y="157.135249"/>
      </g>
     </g>
     <g id="text_3">
      <!-- 2 -->
      <defs>
       <path d="M 19.1875 8.296875 
L 53.609375 8.296875 
L 53.609375 0 
L 7.328125 0 
L 7.328125 8.296875 
Q 12.9375 14.109375 22.625 23.890625 
Q 32.328125 33.6875 34.8125 36.53125 
Q 39.546875 41.84375 41.421875 45.53125 
Q 43.3125 49.21875 43.3125 52.78125 
Q 43.3125 58.59375 39.234375 62.25 
Q 35.15625 65.921875 28.609375 65.921875 
Q 23.96875 65.921875 18.8125 64.3125 
Q 13.671875 62.703125 7.8125 59.421875 
L 7.8125 69.390625 
Q 13.765625 71.78125 18.9375 73 
Q 24.125 74.21875 28.421875 74.21875 
Q 39.75 74.21875 46.484375 68.546875 
Q 53.21875 62.890625 53.21875 53.421875 
Q 53.21875 48.921875 51.53125 44.890625 
Q 49.859375 40.875 45.40625 35.40625 
Q 44.1875 33.984375 37.640625 27.21875 
Q 31.109375 20.453125 19.1875 8.296875 
z
" id="DejaVuSans-50"/>
      </defs>
      <g transform="translate(111.93675 171.733687)scale(0.1 -0.1)">
       <use xlink:href="#DejaVuSans-50"/>
      </g>
     </g>
    </g>
    <g id="xtick_4">
     <g id="line2d_4">
      <g>
       <use style="stroke:#000000;stroke-width:0.8;" x="153.042" xlink:href="#me78f6007a9" y="157.135249"/>
      </g>
     </g>
     <g id="text_4">
      <!-- 3 -->
      <defs>
       <path d="M 40.578125 39.3125 
Q 47.65625 37.796875 51.625 33 
Q 55.609375 28.21875 55.609375 21.1875 
Q 55.609375 10.40625 48.1875 4.484375 
Q 40.765625 -1.421875 27.09375 -1.421875 
Q 22.515625 -1.421875 17.65625 -0.515625 
Q 12.796875 0.390625 7.625 2.203125 
L 7.625 11.71875 
Q 11.71875 9.328125 16.59375 8.109375 
Q 21.484375 6.890625 26.8125 6.890625 
Q 36.078125 6.890625 40.9375 10.546875 
Q 45.796875 14.203125 45.796875 21.1875 
Q 45.796875 27.640625 41.28125 31.265625 
Q 36.765625 34.90625 28.71875 34.90625 
L 20.21875 34.90625 
L 20.21875 43.015625 
L 29.109375 43.015625 
Q 36.375 43.015625 40.234375 45.921875 
Q 44.09375 48.828125 44.09375 54.296875 
Q 44.09375 59.90625 40.109375 62.90625 
Q 36.140625 65.921875 28.71875 65.921875 
Q 24.65625 65.921875 20.015625 65.03125 
Q 15.375 64.15625 9.8125 62.3125 
L 9.8125 71.09375 
Q 15.4375 72.65625 20.34375 73.4375 
Q 25.25 74.21875 29.59375 74.21875 
Q 40.828125 74.21875 47.359375 69.109375 
Q 53.90625 64.015625 53.90625 55.328125 
Q 53.90625 49.265625 50.4375 45.09375 
Q 46.96875 40.921875 40.578125 39.3125 
z
" id="DejaVuSans-51"/>
      </defs>
      <g transform="translate(149.86075 171.733687)scale(0.1 -0.1)">
       <use xlink:href="#DejaVuSans-51"/>
      </g>
     </g>
    </g>
    <g id="xtick_5">
     <g id="line2d_5">
      <g>
       <use style="stroke:#000000;stroke-width:0.8;" x="190.966" xlink:href="#me78f6007a9" y="157.135249"/>
      </g>
     </g>
     <g id="text_5">
      <!-- 4 -->
      <defs>
       <path d="M 37.796875 64.3125 
L 12.890625 25.390625 
L 37.796875 25.390625 
z
M 35.203125 72.90625 
L 47.609375 72.90625 
L 47.609375 25.390625 
L 58.015625 25.390625 
L 58.015625 17.1875 
L 47.609375 17.1875 
L 47.609375 0 
L 37.796875 0 
L 37.796875 17.1875 
L 4.890625 17.1875 
L 4.890625 26.703125 
z
" id="DejaVuSans-52"/>
      </defs>
      <g transform="translate(187.78475 171.733687)scale(0.1 -0.1)">
       <use xlink:href="#DejaVuSans-52"/>
      </g>
     </g>
    </g>
    <g id="xtick_6">
     <g id="line2d_6">
      <g>
       <use style="stroke:#000000;stroke-width:0.8;" x="228.89" xlink:href="#me78f6007a9" y="157.135249"/>
      </g>
     </g>
     <g id="text_6">
      <!-- 5 -->
      <defs>
       <path d="M 10.796875 72.90625 
L 49.515625 72.90625 
L 49.515625 64.59375 
L 19.828125 64.59375 
L 19.828125 46.734375 
Q 21.96875 47.46875 24.109375 47.828125 
Q 26.265625 48.1875 28.421875 48.1875 
Q 40.625 48.1875 47.75 41.5 
Q 54.890625 34.8125 54.890625 23.390625 
Q 54.890625 11.625 47.5625 5.09375 
Q 40.234375 -1.421875 26.90625 -1.421875 
Q 22.3125 -1.421875 17.546875 -0.640625 
Q 12.796875 0.140625 7.71875 1.703125 
L 7.71875 11.625 
Q 12.109375 9.234375 16.796875 8.0625 
Q 21.484375 6.890625 26.703125 6.890625 
Q 35.15625 6.890625 40.078125 11.328125 
Q 45.015625 15.765625 45.015625 23.390625 
Q 45.015625 31 40.078125 35.4375 
Q 35.15625 39.890625 26.703125 39.890625 
Q 22.75 39.890625 18.8125 39.015625 
Q 14.890625 38.140625 10.796875 36.28125 
z
" id="DejaVuSans-53"/>
      </defs>
      <g transform="translate(225.70875 171.733687)scale(0.1 -0.1)">
       <use xlink:href="#DejaVuSans-53"/>
      </g>
     </g>
    </g>
    <g id="text_7">
     <!-- $K_\mathrm{S}$ -->
     <defs>
      <path d="M 16.890625 72.90625 
L 26.8125 72.90625 
L 20.796875 42.1875 
L 59.078125 72.90625 
L 72.21875 72.90625 
L 28.90625 38.09375 
L 60.59375 0 
L 48.578125 0 
L 19.484375 35.5 
L 12.59375 0 
L 2.6875 0 
z
" id="DejaVuSans-Oblique-75"/>
      <path d="M 53.515625 70.515625 
L 53.515625 60.890625 
Q 47.90625 63.578125 42.921875 64.890625 
Q 37.9375 66.21875 33.296875 66.21875 
Q 25.25 66.21875 20.875 63.09375 
Q 16.5 59.96875 16.5 54.203125 
Q 16.5 49.359375 19.40625 46.890625 
Q 22.3125 44.4375 30.421875 42.921875 
L 36.375 41.703125 
Q 47.40625 39.59375 52.65625 34.296875 
Q 57.90625 29 57.90625 20.125 
Q 57.90625 9.515625 50.796875 4.046875 
Q 43.703125 -1.421875 29.984375 -1.421875 
Q 24.8125 -1.421875 18.96875 -0.25 
Q 13.140625 0.921875 6.890625 3.21875 
L 6.890625 13.375 
Q 12.890625 10.015625 18.65625 8.296875 
Q 24.421875 6.59375 29.984375 6.59375 
Q 38.421875 6.59375 43.015625 9.90625 
Q 47.609375 13.234375 47.609375 19.390625 
Q 47.609375 24.75 44.3125 27.78125 
Q 41.015625 30.8125 33.5 32.328125 
L 27.484375 33.5 
Q 16.453125 35.6875 11.515625 40.375 
Q 6.59375 45.0625 6.59375 53.421875 
Q 6.59375 63.09375 13.40625 68.65625 
Q 20.21875 74.21875 32.171875 74.21875 
Q 37.3125 74.21875 42.625 73.28125 
Q 47.953125 72.359375 53.515625 70.515625 
z
" id="DejaVuSans-83"/>
     </defs>
     <g transform="translate(128.43 185.411812)scale(0.1 -0.1)">
      <use transform="translate(0 0.09375)" xlink:href="#DejaVuSans-Oblique-75"/>
      <use transform="translate(65.576172 -16.3125)scale(0.7)" xlink:href="#DejaVuSans-83"/>
     </g>
    </g>
   </g>
   <g id="matplotlib.axis_2">
    <g id="ytick_1">
     <g id="line2d_7">
      <defs>
       <path d="M 0 0 
L -3.5 0 
" id="mb8c0272d50" style="stroke:#000000;stroke-width:0.8;"/>
      </defs>
      <g>
       <use style="stroke:#000000;stroke-width:0.8;" x="38.27" xlink:href="#mb8c0272d50" y="156.135249"/>
      </g>
     </g>
     <g id="text_8">
      <!-- 0 -->
      <g transform="translate(24.9075 159.934468)scale(0.1 -0.1)">
       <use xlink:href="#DejaVuSans-48"/>
      </g>
     </g>
    </g>
    <g id="ytick_2">
     <g id="line2d_8">
      <g>
       <use style="stroke:#000000;stroke-width:0.8;" x="38.27" xlink:href="#mb8c0272d50" y="135.223921"/>
      </g>
     </g>
     <g id="text_9">
      <!-- 2 -->
      <g transform="translate(24.9075 139.02314)scale(0.1 -0.1)">
       <use xlink:href="#DejaVuSans-50"/>
      </g>
     </g>
    </g>
    <g id="ytick_3">
     <g id="line2d_9">
      <g>
       <use style="stroke:#000000;stroke-width:0.8;" x="38.27" xlink:href="#mb8c0272d50" y="114.312593"/>
      </g>
     </g>
     <g id="text_10">
      <!-- 4 -->
      <g transform="translate(24.9075 118.111812)scale(0.1 -0.1)">
       <use xlink:href="#DejaVuSans-52"/>
      </g>
     </g>
    </g>
    <g id="ytick_4">
     <g id="line2d_10">
      <g>
       <use style="stroke:#000000;stroke-width:0.8;" x="38.27" xlink:href="#mb8c0272d50" y="93.401265"/>
      </g>
     </g>
     <g id="text_11">
      <!-- 6 -->
      <defs>
       <path d="M 33.015625 40.375 
Q 26.375 40.375 22.484375 35.828125 
Q 18.609375 31.296875 18.609375 23.390625 
Q 18.609375 15.53125 22.484375 10.953125 
Q 26.375 6.390625 33.015625 6.390625 
Q 39.65625 6.390625 43.53125 10.953125 
Q 47.40625 15.53125 47.40625 23.390625 
Q 47.40625 31.296875 43.53125 35.828125 
Q 39.65625 40.375 33.015625 40.375 
z
M 52.59375 71.296875 
L 52.59375 62.3125 
Q 48.875 64.0625 45.09375 64.984375 
Q 41.3125 65.921875 37.59375 65.921875 
Q 27.828125 65.921875 22.671875 59.328125 
Q 17.53125 52.734375 16.796875 39.40625 
Q 19.671875 43.65625 24.015625 45.921875 
Q 28.375 48.1875 33.59375 48.1875 
Q 44.578125 48.1875 50.953125 41.515625 
Q 57.328125 34.859375 57.328125 23.390625 
Q 57.328125 12.15625 50.6875 5.359375 
Q 44.046875 -1.421875 33.015625 -1.421875 
Q 20.359375 -1.421875 13.671875 8.265625 
Q 6.984375 17.96875 6.984375 36.375 
Q 6.984375 53.65625 15.1875 63.9375 
Q 23.390625 74.21875 37.203125 74.21875 
Q 40.921875 74.21875 44.703125 73.484375 
Q 48.484375 72.75 52.59375 71.296875 
z
" id="DejaVuSans-54"/>
      </defs>
      <g transform="translate(24.9075 97.200483)scale(0.1 -0.1)">
       <use xlink:href="#DejaVuSans-54"/>
      </g>
     </g>
    </g>
    <g id="ytick_5">
     <g id="line2d_11">
      <g>
       <use style="stroke:#000000;stroke-width:0.8;" x="38.27" xlink:href="#mb8c0272d50" y="72.489937"/>
      </g>
     </g>
     <g id="text_12">
      <!-- 8 -->
      <defs>
       <path d="M 31.78125 34.625 
Q 24.75 34.625 20.71875 30.859375 
Q 16.703125 27.09375 16.703125 20.515625 
Q 16.703125 13.921875 20.71875 10.15625 
Q 24.75 6.390625 31.78125 6.390625 
Q 38.8125 6.390625 42.859375 10.171875 
Q 46.921875 13.96875 46.921875 20.515625 
Q 46.921875 27.09375 42.890625 30.859375 
Q 38.875 34.625 31.78125 34.625 
z
M 21.921875 38.8125 
Q 15.578125 40.375 12.03125 44.71875 
Q 8.5 49.078125 8.5 55.328125 
Q 8.5 64.0625 14.71875 69.140625 
Q 20.953125 74.21875 31.78125 74.21875 
Q 42.671875 74.21875 48.875 69.140625 
Q 55.078125 64.0625 55.078125 55.328125 
Q 55.078125 49.078125 51.53125 44.71875 
Q 48 40.375 41.703125 38.8125 
Q 48.828125 37.15625 52.796875 32.3125 
Q 56.78125 27.484375 56.78125 20.515625 
Q 56.78125 9.90625 50.3125 4.234375 
Q 43.84375 -1.421875 31.78125 -1.421875 
Q 19.734375 -1.421875 13.25 4.234375 
Q 6.78125 9.90625 6.78125 20.515625 
Q 6.78125 27.484375 10.78125 32.3125 
Q 14.796875 37.15625 21.921875 38.8125 
z
M 18.3125 54.390625 
Q 18.3125 48.734375 21.84375 45.5625 
Q 25.390625 42.390625 31.78125 42.390625 
Q 38.140625 42.390625 41.71875 45.5625 
Q 45.3125 48.734375 45.3125 54.390625 
Q 45.3125 60.0625 41.71875 63.234375 
Q 38.140625 66.40625 31.78125 66.40625 
Q 25.390625 66.40625 21.84375 63.234375 
Q 18.3125 60.0625 18.3125 54.390625 
z
" id="DejaVuSans-56"/>
      </defs>
      <g transform="translate(24.9075 76.289155)scale(0.1 -0.1)">
       <use xlink:href="#DejaVuSans-56"/>
      </g>
     </g>
    </g>
    <g id="text_13">
     <!-- Duplications -->
     <defs>
      <path d="M 19.671875 64.796875 
L 19.671875 8.109375 
L 31.59375 8.109375 
Q 46.6875 8.109375 53.6875 14.9375 
Q 60.6875 21.78125 60.6875 36.53125 
Q 60.6875 51.171875 53.6875 57.984375 
Q 46.6875 64.796875 31.59375 64.796875 
z
M 9.8125 72.90625 
L 30.078125 72.90625 
Q 51.265625 72.90625 61.171875 64.09375 
Q 71.09375 55.28125 71.09375 36.53125 
Q 71.09375 17.671875 61.125 8.828125 
Q 51.171875 0 30.078125 0 
L 9.8125 0 
z
" id="DejaVuSans-68"/>
      <path d="M 8.5 21.578125 
L 8.5 54.6875 
L 17.484375 54.6875 
L 17.484375 21.921875 
Q 17.484375 14.15625 20.5 10.265625 
Q 23.53125 6.390625 29.59375 6.390625 
Q 36.859375 6.390625 41.078125 11.03125 
Q 45.3125 15.671875 45.3125 23.6875 
L 45.3125 54.6875 
L 54.296875 54.6875 
L 54.296875 0 
L 45.3125 0 
L 45.3125 8.40625 
Q 42.046875 3.421875 37.71875 1 
Q 33.40625 -1.421875 27.6875 -1.421875 
Q 18.265625 -1.421875 13.375 4.4375 
Q 8.5 10.296875 8.5 21.578125 
z
M 31.109375 56 
z
" id="DejaVuSans-117"/>
      <path d="M 18.109375 8.203125 
L 18.109375 -20.796875 
L 9.078125 -20.796875 
L 9.078125 54.6875 
L 18.109375 54.6875 
L 18.109375 46.390625 
Q 20.953125 51.265625 25.265625 53.625 
Q 29.59375 56 35.59375 56 
Q 45.5625 56 51.78125 48.09375 
Q 58.015625 40.1875 58.015625 27.296875 
Q 58.015625 14.40625 51.78125 6.484375 
Q 45.5625 -1.421875 35.59375 -1.421875 
Q 29.59375 -1.421875 25.265625 0.953125 
Q 20.953125 3.328125 18.109375 8.203125 
z
M 48.6875 27.296875 
Q 48.6875 37.203125 44.609375 42.84375 
Q 40.53125 48.484375 33.40625 48.484375 
Q 26.265625 48.484375 22.1875 42.84375 
Q 18.109375 37.203125 18.109375 27.296875 
Q 18.109375 17.390625 22.1875 11.75 
Q 26.265625 6.109375 33.40625 6.109375 
Q 40.53125 6.109375 44.609375 11.75 
Q 48.6875 17.390625 48.6875 27.296875 
z
" id="DejaVuSans-112"/>
      <path d="M 9.421875 75.984375 
L 18.40625 75.984375 
L 18.40625 0 
L 9.421875 0 
z
" id="DejaVuSans-108"/>
      <path d="M 9.421875 54.6875 
L 18.40625 54.6875 
L 18.40625 0 
L 9.421875 0 
z
M 9.421875 75.984375 
L 18.40625 75.984375 
L 18.40625 64.59375 
L 9.421875 64.59375 
z
" id="DejaVuSans-105"/>
      <path d="M 48.78125 52.59375 
L 48.78125 44.1875 
Q 44.96875 46.296875 41.140625 47.34375 
Q 37.3125 48.390625 33.40625 48.390625 
Q 24.65625 48.390625 19.8125 42.84375 
Q 14.984375 37.3125 14.984375 27.296875 
Q 14.984375 17.28125 19.8125 11.734375 
Q 24.65625 6.203125 33.40625 6.203125 
Q 37.3125 6.203125 41.140625 7.25 
Q 44.96875 8.296875 48.78125 10.40625 
L 48.78125 2.09375 
Q 45.015625 0.34375 40.984375 -0.53125 
Q 36.96875 -1.421875 32.421875 -1.421875 
Q 20.0625 -1.421875 12.78125 6.34375 
Q 5.515625 14.109375 5.515625 27.296875 
Q 5.515625 40.671875 12.859375 48.328125 
Q 20.21875 56 33.015625 56 
Q 37.15625 56 41.109375 55.140625 
Q 45.0625 54.296875 48.78125 52.59375 
z
" id="DejaVuSans-99"/>
      <path d="M 34.28125 27.484375 
Q 23.390625 27.484375 19.1875 25 
Q 14.984375 22.515625 14.984375 16.5 
Q 14.984375 11.71875 18.140625 8.90625 
Q 21.296875 6.109375 26.703125 6.109375 
Q 34.1875 6.109375 38.703125 11.40625 
Q 43.21875 16.703125 43.21875 25.484375 
L 43.21875 27.484375 
z
M 52.203125 31.203125 
L 52.203125 0 
L 43.21875 0 
L 43.21875 8.296875 
Q 40.140625 3.328125 35.546875 0.953125 
Q 30.953125 -1.421875 24.3125 -1.421875 
Q 15.921875 -1.421875 10.953125 3.296875 
Q 6 8.015625 6 15.921875 
Q 6 25.140625 12.171875 29.828125 
Q 18.359375 34.515625 30.609375 34.515625 
L 43.21875 34.515625 
L 43.21875 35.40625 
Q 43.21875 41.609375 39.140625 45 
Q 35.0625 48.390625 27.6875 48.390625 
Q 23 48.390625 18.546875 47.265625 
Q 14.109375 46.140625 10.015625 43.890625 
L 10.015625 52.203125 
Q 14.9375 54.109375 19.578125 55.046875 
Q 24.21875 56 28.609375 56 
Q 40.484375 56 46.34375 49.84375 
Q 52.203125 43.703125 52.203125 31.203125 
z
" id="DejaVuSans-97"/>
      <path d="M 18.3125 70.21875 
L 18.3125 54.6875 
L 36.8125 54.6875 
L 36.8125 47.703125 
L 18.3125 47.703125 
L 18.3125 18.015625 
Q 18.3125 11.328125 20.140625 9.421875 
Q 21.96875 7.515625 27.59375 7.515625 
L 36.8125 7.515625 
L 36.8125 0 
L 27.59375 0 
Q 17.1875 0 13.234375 3.875 
Q 9.28125 7.765625 9.28125 18.015625 
L 9.28125 47.703125 
L 2.6875 47.703125 
L 2.6875 54.6875 
L 9.28125 54.6875 
L 9.28125 70.21875 
z
" id="DejaVuSans-116"/>
      <path d="M 30.609375 48.390625 
Q 23.390625 48.390625 19.1875 42.75 
Q 14.984375 37.109375 14.984375 27.296875 
Q 14.984375 17.484375 19.15625 11.84375 
Q 23.34375 6.203125 30.609375 6.203125 
Q 37.796875 6.203125 41.984375 11.859375 
Q 46.1875 17.53125 46.1875 27.296875 
Q 46.1875 37.015625 41.984375 42.703125 
Q 37.796875 48.390625 30.609375 48.390625 
z
M 30.609375 56 
Q 42.328125 56 49.015625 48.375 
Q 55.71875 40.765625 55.71875 27.296875 
Q 55.71875 13.875 49.015625 6.21875 
Q 42.328125 -1.421875 30.609375 -1.421875 
Q 18.84375 -1.421875 12.171875 6.21875 
Q 5.515625 13.875 5.515625 27.296875 
Q 5.515625 40.765625 12.171875 48.375 
Q 18.84375 56 30.609375 56 
z
" id="DejaVuSans-111"/>
      <path d="M 54.890625 33.015625 
L 54.890625 0 
L 45.90625 0 
L 45.90625 32.71875 
Q 45.90625 40.484375 42.875 44.328125 
Q 39.84375 48.1875 33.796875 48.1875 
Q 26.515625 48.1875 22.3125 43.546875 
Q 18.109375 38.921875 18.109375 30.90625 
L 18.109375 0 
L 9.078125 0 
L 9.078125 54.6875 
L 18.109375 54.6875 
L 18.109375 46.1875 
Q 21.34375 51.125 25.703125 53.5625 
Q 30.078125 56 35.796875 56 
Q 45.21875 56 50.046875 50.171875 
Q 54.890625 44.34375 54.890625 33.015625 
z
" id="DejaVuSans-110"/>
      <path d="M 44.28125 53.078125 
L 44.28125 44.578125 
Q 40.484375 46.53125 36.375 47.5 
Q 32.28125 48.484375 27.875 48.484375 
Q 21.1875 48.484375 17.84375 46.4375 
Q 14.5 44.390625 14.5 40.28125 
Q 14.5 37.15625 16.890625 35.375 
Q 19.28125 33.59375 26.515625 31.984375 
L 29.59375 31.296875 
Q 39.15625 29.25 43.1875 25.515625 
Q 47.21875 21.78125 47.21875 15.09375 
Q 47.21875 7.46875 41.1875 3.015625 
Q 35.15625 -1.421875 24.609375 -1.421875 
Q 20.21875 -1.421875 15.453125 -0.5625 
Q 10.6875 0.296875 5.421875 2 
L 5.421875 11.28125 
Q 10.40625 8.6875 15.234375 7.390625 
Q 20.0625 6.109375 24.8125 6.109375 
Q 31.15625 6.109375 34.5625 8.28125 
Q 37.984375 10.453125 37.984375 14.40625 
Q 37.984375 18.0625 35.515625 20.015625 
Q 33.0625 21.96875 24.703125 23.78125 
L 21.578125 24.515625 
Q 13.234375 26.265625 9.515625 29.90625 
Q 5.8125 33.546875 5.8125 39.890625 
Q 5.8125 47.609375 11.28125 51.796875 
Q 16.75 56 26.8125 56 
Q 31.78125 56 36.171875 55.265625 
Q 40.578125 54.546875 44.28125 53.078125 
z
" id="DejaVuSans-115"/>
     </defs>
     <g transform="translate(18.827813 134.954031)rotate(-90)scale(0.1 -0.1)">
      <use xlink:href="#DejaVuSans-68"/>
      <use x="77.001953" xlink:href="#DejaVuSans-117"/>
      <use x="140.380859" xlink:href="#DejaVuSans-112"/>
      <use x="203.857422" xlink:href="#DejaVuSans-108"/>
      <use x="231.640625" xlink:href="#DejaVuSans-105"/>
      <use x="259.423828" xlink:href="#DejaVuSans-99"/>
      <use x="314.404297" xlink:href="#DejaVuSans-97"/>
      <use x="375.683594" xlink:href="#DejaVuSans-116"/>
      <use x="414.892578" xlink:href="#DejaVuSans-105"/>
      <use x="442.675781" xlink:href="#DejaVuSans-111"/>
      <use x="503.857422" xlink:href="#DejaVuSans-110"/>
      <use x="567.236328" xlink:href="#DejaVuSans-115"/>
     </g>
    </g>
   </g>
   <g id="patch_103">
    <path d="M 38.27 156.135249 
L 38.27 51.84 
" style="fill:none;stroke:#000000;stroke-linecap:square;stroke-linejoin:miter;stroke-width:0.8;"/>
   </g>
   <g id="patch_104">
    <path d="M 39.27 157.135249 
L 228.89 157.135249 
" style="fill:none;stroke:#000000;stroke-linecap:square;stroke-linejoin:miter;stroke-width:0.8;"/>
   </g>
  </g>
  <g id="axes_2">
   <g id="patch_105">
    <path d="M 260.38 156.135249 
L 450 156.135249 
L 450 51.84 
L 260.38 51.84 
z
" style="fill:#ffffff;"/>
   </g>
   <g id="patch_106">
    <path clip-path="url(#p10bb649cfb)" d="M 268.999091 156.135249 
L 271.768277 156.135249 
L 271.768277 156.135249 
L 268.999091 156.135249 
z
" style="fill:#808080;"/>
   </g>
   <g id="patch_107">
    <path clip-path="url(#p10bb649cfb)" d="M 272.460573 156.135249 
L 275.229759 156.135249 
L 275.229759 156.135249 
L 272.460573 156.135249 
z
" style="fill:#808080;"/>
   </g>
   <g id="patch_108">
    <path clip-path="url(#p10bb649cfb)" d="M 275.922055 156.135249 
L 278.691241 156.135249 
L 278.691241 156.135249 
L 275.922055 156.135249 
z
" style="fill:#808080;"/>
   </g>
   <g id="patch_109">
    <path clip-path="url(#p10bb649cfb)" d="M 279.383538 156.135249 
L 282.152724 156.135249 
L 282.152724 156.135249 
L 279.383538 156.135249 
z
" style="fill:#808080;"/>
   </g>
   <g id="patch_110">
    <path clip-path="url(#p10bb649cfb)" d="M 282.84502 156.135249 
L 285.614206 156.135249 
L 285.614206 156.135249 
L 282.84502 156.135249 
z
" style="fill:#808080;"/>
   </g>
   <g id="patch_111">
    <path clip-path="url(#p10bb649cfb)" d="M 286.306502 156.135249 
L 289.075688 156.135249 
L 289.075688 156.135249 
L 286.306502 156.135249 
z
" style="fill:#808080;"/>
   </g>
   <g id="patch_112">
    <path clip-path="url(#p10bb649cfb)" d="M 289.767985 156.135249 
L 292.537171 156.135249 
L 292.537171 156.135249 
L 289.767985 156.135249 
z
" style="fill:#808080;"/>
   </g>
   <g id="patch_113">
    <path clip-path="url(#p10bb649cfb)" d="M 293.229467 156.135249 
L 295.998653 156.135249 
L 295.998653 156.135249 
L 293.229467 156.135249 
z
" style="fill:#808080;"/>
   </g>
   <g id="patch_114">
    <path clip-path="url(#p10bb649cfb)" d="M 296.690949 156.135249 
L 299.460135 156.135249 
L 299.460135 156.135249 
L 296.690949 156.135249 
z
" style="fill:#808080;"/>
   </g>
   <g id="patch_115">
    <path clip-path="url(#p10bb649cfb)" d="M 300.152432 156.135249 
L 302.921617 156.135249 
L 302.921617 156.135249 
L 300.152432 156.135249 
z
" style="fill:#808080;"/>
   </g>
   <g id="patch_116">
    <path clip-path="url(#p10bb649cfb)" d="M 303.613914 156.135249 
L 306.3831 156.135249 
L 306.3831 156.135249 
L 303.613914 156.135249 
z
" style="fill:#808080;"/>
   </g>
   <g id="patch_117">
    <path clip-path="url(#p10bb649cfb)" d="M 307.075396 156.135249 
L 309.844582 156.135249 
L 309.844582 156.135249 
L 307.075396 156.135249 
z
" style="fill:#808080;"/>
   </g>
   <g id="patch_118">
    <path clip-path="url(#p10bb649cfb)" d="M 310.536878 156.135249 
L 313.306064 156.135249 
L 313.306064 156.135249 
L 310.536878 156.135249 
z
" style="fill:#808080;"/>
   </g>
   <g id="patch_119">
    <path clip-path="url(#p10bb649cfb)" d="M 313.998361 156.135249 
L 316.767547 156.135249 
L 316.767547 156.135249 
L 313.998361 156.135249 
z
" style="fill:#808080;"/>
   </g>
   <g id="patch_120">
    <path clip-path="url(#p10bb649cfb)" d="M 317.459843 156.135249 
L 320.229029 156.135249 
L 320.229029 156.135249 
L 317.459843 156.135249 
z
" style="fill:#808080;"/>
   </g>
   <g id="patch_121">
    <path clip-path="url(#p10bb649cfb)" d="M 320.921325 156.135249 
L 323.690511 156.135249 
L 323.690511 156.135249 
L 320.921325 156.135249 
z
" style="fill:#808080;"/>
   </g>
   <g id="patch_122">
    <path clip-path="url(#p10bb649cfb)" d="M 324.382808 156.135249 
L 327.151993 156.135249 
L 327.151993 137.511098 
L 324.382808 137.511098 
z
" style="fill:#808080;"/>
   </g>
   <g id="patch_123">
    <path clip-path="url(#p10bb649cfb)" d="M 327.84429 156.135249 
L 330.613476 156.135249 
L 330.613476 156.135249 
L 327.84429 156.135249 
z
" style="fill:#808080;"/>
   </g>
   <g id="patch_124">
    <path clip-path="url(#p10bb649cfb)" d="M 331.305772 156.135249 
L 334.074958 156.135249 
L 334.074958 156.135249 
L 331.305772 156.135249 
z
" style="fill:#808080;"/>
   </g>
   <g id="patch_125">
    <path clip-path="url(#p10bb649cfb)" d="M 334.767254 156.135249 
L 337.53644 156.135249 
L 337.53644 156.135249 
L 334.767254 156.135249 
z
" style="fill:#808080;"/>
   </g>
   <g id="patch_126">
    <path clip-path="url(#p10bb649cfb)" d="M 338.228737 156.135249 
L 340.997923 156.135249 
L 340.997923 137.511098 
L 338.228737 137.511098 
z
" style="fill:#808080;"/>
   </g>
   <g id="patch_127">
    <path clip-path="url(#p10bb649cfb)" d="M 341.690219 156.135249 
L 344.459405 156.135249 
L 344.459405 156.135249 
L 341.690219 156.135249 
z
" style="fill:#808080;"/>
   </g>
   <g id="patch_128">
    <path clip-path="url(#p10bb649cfb)" d="M 345.151701 156.135249 
L 347.920887 156.135249 
L 347.920887 156.135249 
L 345.151701 156.135249 
z
" style="fill:#808080;"/>
   </g>
   <g id="patch_129">
    <path clip-path="url(#p10bb649cfb)" d="M 348.613184 156.135249 
L 351.382369 156.135249 
L 351.382369 137.511098 
L 348.613184 137.511098 
z
" style="fill:#808080;"/>
   </g>
   <g id="patch_130">
    <path clip-path="url(#p10bb649cfb)" d="M 352.074666 156.135249 
L 354.843852 156.135249 
L 354.843852 156.135249 
L 352.074666 156.135249 
z
" style="fill:#808080;"/>
   </g>
   <g id="patch_131">
    <path clip-path="url(#p10bb649cfb)" d="M 355.536148 156.135249 
L 358.305334 156.135249 
L 358.305334 128.199022 
L 355.536148 128.199022 
z
" style="fill:#808080;"/>
   </g>
   <g id="patch_132">
    <path clip-path="url(#p10bb649cfb)" d="M 358.997631 156.135249 
L 361.766816 156.135249 
L 361.766816 137.511098 
L 358.997631 137.511098 
z
" style="fill:#808080;"/>
   </g>
   <g id="patch_133">
    <path clip-path="url(#p10bb649cfb)" d="M 362.459113 156.135249 
L 365.228299 156.135249 
L 365.228299 137.511098 
L 362.459113 137.511098 
z
" style="fill:#808080;"/>
   </g>
   <g id="patch_134">
    <path clip-path="url(#p10bb649cfb)" d="M 365.920595 156.135249 
L 368.689781 156.135249 
L 368.689781 137.511098 
L 365.920595 137.511098 
z
" style="fill:#808080;"/>
   </g>
   <g id="patch_135">
    <path clip-path="url(#p10bb649cfb)" d="M 369.382077 156.135249 
L 372.151263 156.135249 
L 372.151263 156.135249 
L 369.382077 156.135249 
z
" style="fill:#808080;"/>
   </g>
   <g id="patch_136">
    <path clip-path="url(#p10bb649cfb)" d="M 372.84356 156.135249 
L 375.612746 156.135249 
L 375.612746 100.262794 
L 372.84356 100.262794 
z
" style="fill:#808080;"/>
   </g>
   <g id="patch_137">
    <path clip-path="url(#p10bb649cfb)" d="M 376.305042 156.135249 
L 379.074228 156.135249 
L 379.074228 100.262794 
L 376.305042 100.262794 
z
" style="fill:#808080;"/>
   </g>
   <g id="patch_138">
    <path clip-path="url(#p10bb649cfb)" d="M 379.766524 156.135249 
L 382.53571 156.135249 
L 382.53571 90.950718 
L 379.766524 90.950718 
z
" style="fill:#808080;"/>
   </g>
   <g id="patch_139">
    <path clip-path="url(#p10bb649cfb)" d="M 383.228007 156.135249 
L 385.997192 156.135249 
L 385.997192 137.511098 
L 383.228007 137.511098 
z
" style="fill:#808080;"/>
   </g>
   <g id="patch_140">
    <path clip-path="url(#p10bb649cfb)" d="M 386.689489 156.135249 
L 389.458675 156.135249 
L 389.458675 100.262794 
L 386.689489 100.262794 
z
" style="fill:#808080;"/>
   </g>
   <g id="patch_141">
    <path clip-path="url(#p10bb649cfb)" d="M 390.150971 156.135249 
L 392.920157 156.135249 
L 392.920157 114.230908 
L 390.150971 114.230908 
z
" style="fill:#808080;"/>
   </g>
   <g id="patch_142">
    <path clip-path="url(#p10bb649cfb)" d="M 393.612453 156.135249 
L 396.381639 156.135249 
L 396.381639 104.918832 
L 393.612453 104.918832 
z
" style="fill:#808080;"/>
   </g>
   <g id="patch_143">
    <path clip-path="url(#p10bb649cfb)" d="M 397.073936 156.135249 
L 399.843122 156.135249 
L 399.843122 90.950718 
L 397.073936 90.950718 
z
" style="fill:#808080;"/>
   </g>
   <g id="patch_144">
    <path clip-path="url(#p10bb649cfb)" d="M 400.535418 156.135249 
L 403.304604 156.135249 
L 403.304604 116.558927 
L 400.535418 116.558927 
z
" style="fill:#808080;"/>
   </g>
   <g id="patch_145">
    <path clip-path="url(#p10bb649cfb)" d="M 403.9969 156.135249 
L 406.766086 156.135249 
L 406.766086 145.426362 
L 403.9969 145.426362 
z
" style="fill:#808080;"/>
   </g>
   <g id="patch_146">
    <path clip-path="url(#p10bb649cfb)" d="M 407.458383 156.135249 
L 410.227568 156.135249 
L 410.227568 56.80644 
L 407.458383 56.80644 
z
" style="fill:#808080;"/>
   </g>
   <g id="patch_147">
    <path clip-path="url(#p10bb649cfb)" d="M 410.919865 156.135249 
L 413.689051 156.135249 
L 413.689051 91.571523 
L 410.919865 91.571523 
z
" style="fill:#808080;"/>
   </g>
   <g id="patch_148">
    <path clip-path="url(#p10bb649cfb)" d="M 414.381347 156.135249 
L 417.150533 156.135249 
L 417.150533 156.135249 
L 414.381347 156.135249 
z
" style="fill:#808080;"/>
   </g>
   <g id="patch_149">
    <path clip-path="url(#p10bb649cfb)" d="M 417.842829 156.135249 
L 420.612015 156.135249 
L 420.612015 130.061437 
L 417.842829 130.061437 
z
" style="fill:#808080;"/>
   </g>
   <g id="patch_150">
    <path clip-path="url(#p10bb649cfb)" d="M 421.304312 156.135249 
L 424.073498 156.135249 
L 424.073498 156.135249 
L 421.304312 156.135249 
z
" style="fill:#808080;"/>
   </g>
   <g id="patch_151">
    <path clip-path="url(#p10bb649cfb)" d="M 424.765794 156.135249 
L 427.53498 156.135249 
L 427.53498 92.813134 
L 424.765794 92.813134 
z
" style="fill:#808080;"/>
   </g>
   <g id="patch_152">
    <path clip-path="url(#p10bb649cfb)" d="M 428.227276 156.135249 
L 430.996462 156.135249 
L 430.996462 96.537964 
L 428.227276 96.537964 
z
" style="fill:#808080;"/>
   </g>
   <g id="patch_153">
    <path clip-path="url(#p10bb649cfb)" d="M 431.688759 156.135249 
L 434.457945 156.135249 
L 434.457945 156.135249 
L 431.688759 156.135249 
z
" style="fill:#808080;"/>
   </g>
   <g id="patch_154">
    <path clip-path="url(#p10bb649cfb)" d="M 435.150241 156.135249 
L 437.919427 156.135249 
L 437.919427 156.135249 
L 435.150241 156.135249 
z
" style="fill:#808080;"/>
   </g>
   <g id="patch_155">
    <path clip-path="url(#p10bb649cfb)" d="M 438.611723 156.135249 
L 441.380909 156.135249 
L 441.380909 156.135249 
L 438.611723 156.135249 
z
" style="fill:#808080;"/>
   </g>
   <g id="matplotlib.axis_3">
    <g id="xtick_7">
     <g id="line2d_12">
      <g>
       <use style="stroke:#000000;stroke-width:0.8;" x="268.652943" xlink:href="#me78f6007a9" y="157.135249"/>
      </g>
     </g>
     <g id="text_14">
      <!-- 4 -->
      <defs>
       <path d="M 10.59375 35.5 
L 73.1875 35.5 
L 73.1875 27.203125 
L 10.59375 27.203125 
z
" id="DejaVuSans-8722"/>
      </defs>
      <g transform="translate(261.281849 171.733687)scale(0.1 -0.1)">
       <use xlink:href="#DejaVuSans-8722"/>
       <use x="83.789062" xlink:href="#DejaVuSans-52"/>
      </g>
     </g>
    </g>
    <g id="xtick_8">
     <g id="line2d_13">
      <g>
       <use style="stroke:#000000;stroke-width:0.8;" x="303.267766" xlink:href="#me78f6007a9" y="157.135249"/>
      </g>
     </g>
     <g id="text_15">
      <!-- 3 -->
      <g transform="translate(295.896672 171.733687)scale(0.1 -0.1)">
       <use xlink:href="#DejaVuSans-8722"/>
       <use x="83.789062" xlink:href="#DejaVuSans-51"/>
      </g>
     </g>
    </g>
    <g id="xtick_9">
     <g id="line2d_14">
      <g>
       <use style="stroke:#000000;stroke-width:0.8;" x="337.882589" xlink:href="#me78f6007a9" y="157.135249"/>
      </g>
     </g>
     <g id="text_16">
      <!-- 2 -->
      <g transform="translate(330.511495 171.733687)scale(0.1 -0.1)">
       <use xlink:href="#DejaVuSans-8722"/>
       <use x="83.789062" xlink:href="#DejaVuSans-50"/>
      </g>
     </g>
    </g>
    <g id="xtick_10">
     <g id="line2d_15">
      <g>
       <use style="stroke:#000000;stroke-width:0.8;" x="372.497411" xlink:href="#me78f6007a9" y="157.135249"/>
      </g>
     </g>
     <g id="text_17">
      <!-- 1 -->
      <g transform="translate(365.126318 171.733687)scale(0.1 -0.1)">
       <use xlink:href="#DejaVuSans-8722"/>
       <use x="83.789062" xlink:href="#DejaVuSans-49"/>
      </g>
     </g>
    </g>
    <g id="xtick_11">
     <g id="line2d_16">
      <g>
       <use style="stroke:#000000;stroke-width:0.8;" x="407.112234" xlink:href="#me78f6007a9" y="157.135249"/>
      </g>
     </g>
     <g id="text_18">
      <!-- 0 -->
      <g transform="translate(403.930984 171.733687)scale(0.1 -0.1)">
       <use xlink:href="#DejaVuSans-48"/>
      </g>
     </g>
    </g>
    <g id="xtick_12">
     <g id="line2d_17">
      <g>
       <use style="stroke:#000000;stroke-width:0.8;" x="441.727057" xlink:href="#me78f6007a9" y="157.135249"/>
      </g>
     </g>
     <g id="text_19">
      <!-- 1 -->
      <g transform="translate(438.545807 171.733687)scale(0.1 -0.1)">
       <use xlink:href="#DejaVuSans-49"/>
      </g>
     </g>
    </g>
    <g id="text_20">
     <!-- $\log_{10}K_\mathrm{S}$ -->
     <defs>
      <path d="M 45.40625 27.984375 
Q 45.40625 37.75 41.375 43.109375 
Q 37.359375 48.484375 30.078125 48.484375 
Q 22.859375 48.484375 18.828125 43.109375 
Q 14.796875 37.75 14.796875 27.984375 
Q 14.796875 18.265625 18.828125 12.890625 
Q 22.859375 7.515625 30.078125 7.515625 
Q 37.359375 7.515625 41.375 12.890625 
Q 45.40625 18.265625 45.40625 27.984375 
z
M 54.390625 6.78125 
Q 54.390625 -7.171875 48.1875 -13.984375 
Q 42 -20.796875 29.203125 -20.796875 
Q 24.46875 -20.796875 20.265625 -20.09375 
Q 16.0625 -19.390625 12.109375 -17.921875 
L 12.109375 -9.1875 
Q 16.0625 -11.328125 19.921875 -12.34375 
Q 23.78125 -13.375 27.78125 -13.375 
Q 36.625 -13.375 41.015625 -8.765625 
Q 45.40625 -4.15625 45.40625 5.171875 
L 45.40625 9.625 
Q 42.625 4.78125 38.28125 2.390625 
Q 33.9375 0 27.875 0 
Q 17.828125 0 11.671875 7.65625 
Q 5.515625 15.328125 5.515625 27.984375 
Q 5.515625 40.671875 11.671875 48.328125 
Q 17.828125 56 27.875 56 
Q 33.9375 56 38.28125 53.609375 
Q 42.625 51.21875 45.40625 46.390625 
L 45.40625 54.6875 
L 54.390625 54.6875 
z
" id="DejaVuSans-103"/>
     </defs>
     <g transform="translate(337.29 185.413374)scale(0.1 -0.1)">
      <use transform="translate(0 0.015625)" xlink:href="#DejaVuSans-108"/>
      <use transform="translate(27.783203 0.015625)" xlink:href="#DejaVuSans-111"/>
      <use transform="translate(88.964844 0.015625)" xlink:href="#DejaVuSans-103"/>
      <use transform="translate(153.398438 -16.390625)scale(0.7)" xlink:href="#DejaVuSans-49"/>
      <use transform="translate(197.93457 -16.390625)scale(0.7)" xlink:href="#DejaVuSans-48"/>
      <use transform="translate(245.205078 0.015625)" xlink:href="#DejaVuSans-Oblique-75"/>
      <use transform="translate(310.78125 -16.390625)scale(0.7)" xlink:href="#DejaVuSans-83"/>
     </g>
    </g>
   </g>
   <g id="matplotlib.axis_4">
    <g id="ytick_6">
     <g id="line2d_18">
      <g>
       <use style="stroke:#000000;stroke-width:0.8;" x="259.38" xlink:href="#mb8c0272d50" y="156.135249"/>
      </g>
     </g>
     <g id="text_21">
      <!-- 0 -->
      <g transform="translate(246.0175 159.934468)scale(0.1 -0.1)">
       <use xlink:href="#DejaVuSans-48"/>
      </g>
     </g>
    </g>
    <g id="ytick_7">
     <g id="line2d_19">
      <g>
       <use style="stroke:#000000;stroke-width:0.8;" x="259.38" xlink:href="#mb8c0272d50" y="118.886946"/>
      </g>
     </g>
     <g id="text_22">
      <!-- 2 -->
      <g transform="translate(246.0175 122.686165)scale(0.1 -0.1)">
       <use xlink:href="#DejaVuSans-50"/>
      </g>
     </g>
    </g>
    <g id="ytick_8">
     <g id="line2d_20">
      <g>
       <use style="stroke:#000000;stroke-width:0.8;" x="259.38" xlink:href="#mb8c0272d50" y="81.638643"/>
      </g>
     </g>
     <g id="text_23">
      <!-- 4 -->
      <g transform="translate(246.0175 85.437861)scale(0.1 -0.1)">
       <use xlink:href="#DejaVuSans-52"/>
      </g>
     </g>
    </g>
   </g>
   <g id="patch_156">
    <path d="M 259.38 156.135249 
L 259.38 51.84 
" style="fill:none;stroke:#000000;stroke-linecap:square;stroke-linejoin:miter;stroke-width:0.8;"/>
   </g>
   <g id="patch_157">
    <path d="M 260.38 157.135249 
L 450 157.135249 
" style="fill:none;stroke:#000000;stroke-linecap:square;stroke-linejoin:miter;stroke-width:0.8;"/>
   </g>
  </g>
  <g id="axes_3">
   <g id="patch_158">
    <path d="M 39.27 299.76 
L 228.89 299.76 
L 228.89 195.464751 
L 39.27 195.464751 
z
" style="fill:#ffffff;"/>
   </g>
   <g id="patch_159">
    <path clip-path="url(#p856ca83c8d)" d="M 47.889091 299.76 
L 50.658277 299.76 
L 50.658277 299.76 
L 47.889091 299.76 
z
" style="fill:#808080;"/>
   </g>
   <g id="patch_160">
    <path clip-path="url(#p856ca83c8d)" d="M 51.350573 299.76 
L 54.119759 299.76 
L 54.119759 299.76 
L 51.350573 299.76 
z
" style="fill:#808080;"/>
   </g>
   <g id="patch_161">
    <path clip-path="url(#p856ca83c8d)" d="M 54.812055 299.76 
L 57.581241 299.76 
L 57.581241 299.76 
L 54.812055 299.76 
z
" style="fill:#808080;"/>
   </g>
   <g id="patch_162">
    <path clip-path="url(#p856ca83c8d)" d="M 58.273538 299.76 
L 61.042724 299.76 
L 61.042724 281.018715 
L 58.273538 281.018715 
z
" style="fill:#808080;"/>
   </g>
   <g id="patch_163">
    <path clip-path="url(#p856ca83c8d)" d="M 61.73502 299.76 
L 64.504206 299.76 
L 64.504206 299.76 
L 61.73502 299.76 
z
" style="fill:#808080;"/>
   </g>
   <g id="patch_164">
    <path clip-path="url(#p856ca83c8d)" d="M 65.196502 299.76 
L 67.965688 299.76 
L 67.965688 299.76 
L 65.196502 299.76 
z
" style="fill:#808080;"/>
   </g>
   <g id="patch_165">
    <path clip-path="url(#p856ca83c8d)" d="M 68.657985 299.76 
L 71.427171 299.76 
L 71.427171 299.76 
L 68.657985 299.76 
z
" style="fill:#808080;"/>
   </g>
   <g id="patch_166">
    <path clip-path="url(#p856ca83c8d)" d="M 72.119467 299.76 
L 74.888653 299.76 
L 74.888653 299.76 
L 72.119467 299.76 
z
" style="fill:#808080;"/>
   </g>
   <g id="patch_167">
    <path clip-path="url(#p856ca83c8d)" d="M 75.580949 299.76 
L 78.350135 299.76 
L 78.350135 299.76 
L 75.580949 299.76 
z
" style="fill:#808080;"/>
   </g>
   <g id="patch_168">
    <path clip-path="url(#p856ca83c8d)" d="M 79.042432 299.76 
L 81.811617 299.76 
L 81.811617 299.76 
L 79.042432 299.76 
z
" style="fill:#808080;"/>
   </g>
   <g id="patch_169">
    <path clip-path="url(#p856ca83c8d)" d="M 82.503914 299.76 
L 85.2731 299.76 
L 85.2731 299.76 
L 82.503914 299.76 
z
" style="fill:#808080;"/>
   </g>
   <g id="patch_170">
    <path clip-path="url(#p856ca83c8d)" d="M 85.965396 299.76 
L 88.734582 299.76 
L 88.734582 299.76 
L 85.965396 299.76 
z
" style="fill:#808080;"/>
   </g>
   <g id="patch_171">
    <path clip-path="url(#p856ca83c8d)" d="M 89.426878 299.76 
L 92.196064 299.76 
L 92.196064 299.76 
L 89.426878 299.76 
z
" style="fill:#808080;"/>
   </g>
   <g id="patch_172">
    <path clip-path="url(#p856ca83c8d)" d="M 92.888361 299.76 
L 95.657547 299.76 
L 95.657547 299.76 
L 92.888361 299.76 
z
" style="fill:#808080;"/>
   </g>
   <g id="patch_173">
    <path clip-path="url(#p856ca83c8d)" d="M 96.349843 299.76 
L 99.119029 299.76 
L 99.119029 299.76 
L 96.349843 299.76 
z
" style="fill:#808080;"/>
   </g>
   <g id="patch_174">
    <path clip-path="url(#p856ca83c8d)" d="M 99.811325 299.76 
L 102.580511 299.76 
L 102.580511 299.76 
L 99.811325 299.76 
z
" style="fill:#808080;"/>
   </g>
   <g id="patch_175">
    <path clip-path="url(#p856ca83c8d)" d="M 103.272808 299.76 
L 106.041993 299.76 
L 106.041993 299.76 
L 103.272808 299.76 
z
" style="fill:#808080;"/>
   </g>
   <g id="patch_176">
    <path clip-path="url(#p856ca83c8d)" d="M 106.73429 299.76 
L 109.503476 299.76 
L 109.503476 299.76 
L 106.73429 299.76 
z
" style="fill:#808080;"/>
   </g>
   <g id="patch_177">
    <path clip-path="url(#p856ca83c8d)" d="M 110.195772 299.76 
L 112.964958 299.76 
L 112.964958 281.018715 
L 110.195772 281.018715 
z
" style="fill:#808080;"/>
   </g>
   <g id="patch_178">
    <path clip-path="url(#p856ca83c8d)" d="M 113.657254 299.76 
L 116.42644 299.76 
L 116.42644 290.389358 
L 113.657254 290.389358 
z
" style="fill:#808080;"/>
   </g>
   <g id="patch_179">
    <path clip-path="url(#p856ca83c8d)" d="M 117.118737 299.76 
L 119.887923 299.76 
L 119.887923 252.906788 
L 117.118737 252.906788 
z
" style="fill:#808080;"/>
   </g>
   <g id="patch_180">
    <path clip-path="url(#p856ca83c8d)" d="M 120.580219 299.76 
L 123.349405 299.76 
L 123.349405 262.277431 
L 120.580219 262.277431 
z
" style="fill:#808080;"/>
   </g>
   <g id="patch_181">
    <path clip-path="url(#p856ca83c8d)" d="M 124.041701 299.76 
L 126.810887 299.76 
L 126.810887 299.76 
L 124.041701 299.76 
z
" style="fill:#808080;"/>
   </g>
   <g id="patch_182">
    <path clip-path="url(#p856ca83c8d)" d="M 127.503184 299.76 
L 130.272369 299.76 
L 130.272369 281.018715 
L 127.503184 281.018715 
z
" style="fill:#808080;"/>
   </g>
   <g id="patch_183">
    <path clip-path="url(#p856ca83c8d)" d="M 130.964666 299.76 
L 133.733852 299.76 
L 133.733852 299.76 
L 130.964666 299.76 
z
" style="fill:#808080;"/>
   </g>
   <g id="patch_184">
    <path clip-path="url(#p856ca83c8d)" d="M 134.426148 299.76 
L 137.195334 299.76 
L 137.195334 281.018715 
L 134.426148 281.018715 
z
" style="fill:#808080;"/>
   </g>
   <g id="patch_185">
    <path clip-path="url(#p856ca83c8d)" d="M 137.887631 299.76 
L 140.656816 299.76 
L 140.656816 281.018715 
L 137.887631 281.018715 
z
" style="fill:#808080;"/>
   </g>
   <g id="patch_186">
    <path clip-path="url(#p856ca83c8d)" d="M 141.349113 299.76 
L 144.118299 299.76 
L 144.118299 262.277431 
L 141.349113 262.277431 
z
" style="fill:#808080;"/>
   </g>
   <g id="patch_187">
    <path clip-path="url(#p856ca83c8d)" d="M 144.810595 299.76 
L 147.579781 299.76 
L 147.579781 234.165504 
L 144.810595 234.165504 
z
" style="fill:#808080;"/>
   </g>
   <g id="patch_188">
    <path clip-path="url(#p856ca83c8d)" d="M 148.272077 299.76 
L 151.041263 299.76 
L 151.041263 215.424219 
L 148.272077 215.424219 
z
" style="fill:#808080;"/>
   </g>
   <g id="patch_189">
    <path clip-path="url(#p856ca83c8d)" d="M 151.73356 299.76 
L 154.502746 299.76 
L 154.502746 224.794861 
L 151.73356 224.794861 
z
" style="fill:#808080;"/>
   </g>
   <g id="patch_190">
    <path clip-path="url(#p856ca83c8d)" d="M 155.195042 299.76 
L 157.964228 299.76 
L 157.964228 220.10954 
L 155.195042 220.10954 
z
" style="fill:#808080;"/>
   </g>
   <g id="patch_191">
    <path clip-path="url(#p856ca83c8d)" d="M 158.656524 299.76 
L 161.42571 299.76 
L 161.42571 253.843853 
L 158.656524 253.843853 
z
" style="fill:#808080;"/>
   </g>
   <g id="patch_192">
    <path clip-path="url(#p856ca83c8d)" d="M 162.118007 299.76 
L 164.887192 299.76 
L 164.887192 200.431191 
L 162.118007 200.431191 
z
" style="fill:#808080;"/>
   </g>
   <g id="patch_193">
    <path clip-path="url(#p856ca83c8d)" d="M 165.579489 299.76 
L 168.348675 299.76 
L 168.348675 243.536146 
L 165.579489 243.536146 
z
" style="fill:#808080;"/>
   </g>
   <g id="patch_194">
    <path clip-path="url(#p856ca83c8d)" d="M 169.040971 299.76 
L 171.810157 299.76 
L 171.810157 281.018715 
L 169.040971 281.018715 
z
" style="fill:#808080;"/>
   </g>
   <g id="patch_195">
    <path clip-path="url(#p856ca83c8d)" d="M 172.502453 299.76 
L 175.271639 299.76 
L 175.271639 287.26581 
L 172.502453 287.26581 
z
" style="fill:#808080;"/>
   </g>
   <g id="patch_196">
    <path clip-path="url(#p856ca83c8d)" d="M 175.963936 299.76 
L 178.733122 299.76 
L 178.733122 231.041956 
L 175.963936 231.041956 
z
" style="fill:#808080;"/>
   </g>
   <g id="patch_197">
    <path clip-path="url(#p856ca83c8d)" d="M 179.425418 299.76 
L 182.194604 299.76 
L 182.194604 231.041956 
L 179.425418 231.041956 
z
" style="fill:#808080;"/>
   </g>
   <g id="patch_198">
    <path clip-path="url(#p856ca83c8d)" d="M 182.8869 299.76 
L 185.656086 299.76 
L 185.656086 299.76 
L 182.8869 299.76 
z
" style="fill:#808080;"/>
   </g>
   <g id="patch_199">
    <path clip-path="url(#p856ca83c8d)" d="M 186.348383 299.76 
L 189.117568 299.76 
L 189.117568 299.76 
L 186.348383 299.76 
z
" style="fill:#808080;"/>
   </g>
   <g id="patch_200">
    <path clip-path="url(#p856ca83c8d)" d="M 189.809865 299.76 
L 192.579051 299.76 
L 192.579051 299.76 
L 189.809865 299.76 
z
" style="fill:#808080;"/>
   </g>
   <g id="patch_201">
    <path clip-path="url(#p856ca83c8d)" d="M 193.271347 299.76 
L 196.040533 299.76 
L 196.040533 299.76 
L 193.271347 299.76 
z
" style="fill:#808080;"/>
   </g>
   <g id="patch_202">
    <path clip-path="url(#p856ca83c8d)" d="M 196.732829 299.76 
L 199.502015 299.76 
L 199.502015 299.76 
L 196.732829 299.76 
z
" style="fill:#808080;"/>
   </g>
   <g id="patch_203">
    <path clip-path="url(#p856ca83c8d)" d="M 200.194312 299.76 
L 202.963498 299.76 
L 202.963498 299.76 
L 200.194312 299.76 
z
" style="fill:#808080;"/>
   </g>
   <g id="patch_204">
    <path clip-path="url(#p856ca83c8d)" d="M 203.655794 299.76 
L 206.42498 299.76 
L 206.42498 299.76 
L 203.655794 299.76 
z
" style="fill:#808080;"/>
   </g>
   <g id="patch_205">
    <path clip-path="url(#p856ca83c8d)" d="M 207.117276 299.76 
L 209.886462 299.76 
L 209.886462 299.76 
L 207.117276 299.76 
z
" style="fill:#808080;"/>
   </g>
   <g id="patch_206">
    <path clip-path="url(#p856ca83c8d)" d="M 210.578759 299.76 
L 213.347945 299.76 
L 213.347945 299.76 
L 210.578759 299.76 
z
" style="fill:#808080;"/>
   </g>
   <g id="patch_207">
    <path clip-path="url(#p856ca83c8d)" d="M 214.040241 299.76 
L 216.809427 299.76 
L 216.809427 299.76 
L 214.040241 299.76 
z
" style="fill:#808080;"/>
   </g>
   <g id="patch_208">
    <path clip-path="url(#p856ca83c8d)" d="M 217.501723 299.76 
L 220.270909 299.76 
L 220.270909 299.76 
L 217.501723 299.76 
z
" style="fill:#808080;"/>
   </g>
   <g id="matplotlib.axis_5">
    <g id="xtick_13">
     <g id="line2d_21">
      <g>
       <use style="stroke:#000000;stroke-width:0.8;" x="47.542943" xlink:href="#me78f6007a9" y="300.76"/>
      </g>
     </g>
     <g id="text_24">
      <!-- 4 -->
      <g transform="translate(40.171849 315.358437)scale(0.1 -0.1)">
       <use xlink:href="#DejaVuSans-8722"/>
       <use x="83.789062" xlink:href="#DejaVuSans-52"/>
      </g>
     </g>
    </g>
    <g id="xtick_14">
     <g id="line2d_22">
      <g>
       <use style="stroke:#000000;stroke-width:0.8;" x="82.157766" xlink:href="#me78f6007a9" y="300.76"/>
      </g>
     </g>
     <g id="text_25">
      <!-- 3 -->
      <g transform="translate(74.786672 315.358437)scale(0.1 -0.1)">
       <use xlink:href="#DejaVuSans-8722"/>
       <use x="83.789062" xlink:href="#DejaVuSans-51"/>
      </g>
     </g>
    </g>
    <g id="xtick_15">
     <g id="line2d_23">
      <g>
       <use style="stroke:#000000;stroke-width:0.8;" x="116.772589" xlink:href="#me78f6007a9" y="300.76"/>
      </g>
     </g>
     <g id="text_26">
      <!-- 2 -->
      <g transform="translate(109.401495 315.358437)scale(0.1 -0.1)">
       <use xlink:href="#DejaVuSans-8722"/>
       <use x="83.789062" xlink:href="#DejaVuSans-50"/>
      </g>
     </g>
    </g>
    <g id="xtick_16">
     <g id="line2d_24">
      <g>
       <use style="stroke:#000000;stroke-width:0.8;" x="151.387411" xlink:href="#me78f6007a9" y="300.76"/>
      </g>
     </g>
     <g id="text_27">
      <!-- 1 -->
      <g transform="translate(144.016318 315.358437)scale(0.1 -0.1)">
       <use xlink:href="#DejaVuSans-8722"/>
       <use x="83.789062" xlink:href="#DejaVuSans-49"/>
      </g>
     </g>
    </g>
    <g id="xtick_17">
     <g id="line2d_25">
      <g>
       <use style="stroke:#000000;stroke-width:0.8;" x="186.002234" xlink:href="#me78f6007a9" y="300.76"/>
      </g>
     </g>
     <g id="text_28">
      <!-- 0 -->
      <g transform="translate(182.820984 315.358437)scale(0.1 -0.1)">
       <use xlink:href="#DejaVuSans-48"/>
      </g>
     </g>
    </g>
    <g id="xtick_18">
     <g id="line2d_26">
      <g>
       <use style="stroke:#000000;stroke-width:0.8;" x="220.617057" xlink:href="#me78f6007a9" y="300.76"/>
      </g>
     </g>
     <g id="text_29">
      <!-- 1 -->
      <g transform="translate(217.435807 315.358437)scale(0.1 -0.1)">
       <use xlink:href="#DejaVuSans-49"/>
      </g>
     </g>
    </g>
    <g id="text_30">
     <!-- $\log_{10}K_\mathrm{A}$ -->
     <defs>
      <path d="M 34.1875 63.1875 
L 20.796875 26.90625 
L 47.609375 26.90625 
z
M 28.609375 72.90625 
L 39.796875 72.90625 
L 67.578125 0 
L 57.328125 0 
L 50.6875 18.703125 
L 17.828125 18.703125 
L 11.1875 0 
L 0.78125 0 
z
" id="DejaVuSans-65"/>
     </defs>
     <g transform="translate(115.98 329.038125)scale(0.1 -0.1)">
      <use transform="translate(0 0.015625)" xlink:href="#DejaVuSans-108"/>
      <use transform="translate(27.783203 0.015625)" xlink:href="#DejaVuSans-111"/>
      <use transform="translate(88.964844 0.015625)" xlink:href="#DejaVuSans-103"/>
      <use transform="translate(153.398438 -16.390625)scale(0.7)" xlink:href="#DejaVuSans-49"/>
      <use transform="translate(197.93457 -16.390625)scale(0.7)" xlink:href="#DejaVuSans-48"/>
      <use transform="translate(245.205078 0.015625)" xlink:href="#DejaVuSans-Oblique-75"/>
      <use transform="translate(310.78125 -16.390625)scale(0.7)" xlink:href="#DejaVuSans-65"/>
     </g>
    </g>
   </g>
   <g id="matplotlib.axis_6">
    <g id="ytick_9">
     <g id="line2d_27">
      <g>
       <use style="stroke:#000000;stroke-width:0.8;" x="38.27" xlink:href="#mb8c0272d50" y="299.76"/>
      </g>
     </g>
     <g id="text_31">
      <!-- 0 -->
      <g transform="translate(24.9075 303.559219)scale(0.1 -0.1)">
       <use xlink:href="#DejaVuSans-48"/>
      </g>
     </g>
    </g>
    <g id="ytick_10">
     <g id="line2d_28">
      <g>
       <use style="stroke:#000000;stroke-width:0.8;" x="38.27" xlink:href="#mb8c0272d50" y="262.277431"/>
      </g>
     </g>
     <g id="text_32">
      <!-- 2 -->
      <g transform="translate(24.9075 266.076649)scale(0.1 -0.1)">
       <use xlink:href="#DejaVuSans-50"/>
      </g>
     </g>
    </g>
    <g id="ytick_11">
     <g id="line2d_29">
      <g>
       <use style="stroke:#000000;stroke-width:0.8;" x="38.27" xlink:href="#mb8c0272d50" y="224.794861"/>
      </g>
     </g>
     <g id="text_33">
      <!-- 4 -->
      <g transform="translate(24.9075 228.59408)scale(0.1 -0.1)">
       <use xlink:href="#DejaVuSans-52"/>
      </g>
     </g>
    </g>
    <g id="text_34">
     <!-- Duplications -->
     <g transform="translate(18.827813 278.578782)rotate(-90)scale(0.1 -0.1)">
      <use xlink:href="#DejaVuSans-68"/>
      <use x="77.001953" xlink:href="#DejaVuSans-117"/>
      <use x="140.380859" xlink:href="#DejaVuSans-112"/>
      <use x="203.857422" xlink:href="#DejaVuSans-108"/>
      <use x="231.640625" xlink:href="#DejaVuSans-105"/>
      <use x="259.423828" xlink:href="#DejaVuSans-99"/>
      <use x="314.404297" xlink:href="#DejaVuSans-97"/>
      <use x="375.683594" xlink:href="#DejaVuSans-116"/>
      <use x="414.892578" xlink:href="#DejaVuSans-105"/>
      <use x="442.675781" xlink:href="#DejaVuSans-111"/>
      <use x="503.857422" xlink:href="#DejaVuSans-110"/>
      <use x="567.236328" xlink:href="#DejaVuSans-115"/>
     </g>
    </g>
   </g>
   <g id="patch_209">
    <path d="M 38.27 299.76 
L 38.27 195.464751 
" style="fill:none;stroke:#000000;stroke-linecap:square;stroke-linejoin:miter;stroke-width:0.8;"/>
   </g>
   <g id="patch_210">
    <path d="M 39.27 300.76 
L 228.89 300.76 
" style="fill:none;stroke:#000000;stroke-linecap:square;stroke-linejoin:miter;stroke-width:0.8;"/>
   </g>
  </g>
  <g id="axes_4">
   <g id="patch_211">
    <path d="M 260.38 299.76 
L 450 299.76 
L 450 195.464751 
L 260.38 195.464751 
z
" style="fill:#ffffff;"/>
   </g>
   <g id="patch_212">
    <path clip-path="url(#p068be16740)" d="M 268.999091 299.76 
L 271.768277 299.76 
L 271.768277 299.76 
L 268.999091 299.76 
z
" style="fill:#808080;"/>
   </g>
   <g id="patch_213">
    <path clip-path="url(#p068be16740)" d="M 272.460573 299.76 
L 275.229759 299.76 
L 275.229759 299.76 
L 272.460573 299.76 
z
" style="fill:#808080;"/>
   </g>
   <g id="patch_214">
    <path clip-path="url(#p068be16740)" d="M 275.922055 299.76 
L 278.691241 299.76 
L 278.691241 299.76 
L 275.922055 299.76 
z
" style="fill:#808080;"/>
   </g>
   <g id="patch_215">
    <path clip-path="url(#p068be16740)" d="M 279.383538 299.76 
L 282.152724 299.76 
L 282.152724 299.76 
L 279.383538 299.76 
z
" style="fill:#808080;"/>
   </g>
   <g id="patch_216">
    <path clip-path="url(#p068be16740)" d="M 282.84502 299.76 
L 285.614206 299.76 
L 285.614206 299.76 
L 282.84502 299.76 
z
" style="fill:#808080;"/>
   </g>
   <g id="patch_217">
    <path clip-path="url(#p068be16740)" d="M 286.306502 299.76 
L 289.075688 299.76 
L 289.075688 299.76 
L 286.306502 299.76 
z
" style="fill:#808080;"/>
   </g>
   <g id="patch_218">
    <path clip-path="url(#p068be16740)" d="M 289.767985 299.76 
L 292.537171 299.76 
L 292.537171 299.76 
L 289.767985 299.76 
z
" style="fill:#808080;"/>
   </g>
   <g id="patch_219">
    <path clip-path="url(#p068be16740)" d="M 293.229467 299.76 
L 295.998653 299.76 
L 295.998653 299.76 
L 293.229467 299.76 
z
" style="fill:#808080;"/>
   </g>
   <g id="patch_220">
    <path clip-path="url(#p068be16740)" d="M 296.690949 299.76 
L 299.460135 299.76 
L 299.460135 299.76 
L 296.690949 299.76 
z
" style="fill:#808080;"/>
   </g>
   <g id="patch_221">
    <path clip-path="url(#p068be16740)" d="M 300.152432 299.76 
L 302.921617 299.76 
L 302.921617 282.101545 
L 300.152432 282.101545 
z
" style="fill:#808080;"/>
   </g>
   <g id="patch_222">
    <path clip-path="url(#p068be16740)" d="M 303.613914 299.76 
L 306.3831 299.76 
L 306.3831 299.76 
L 303.613914 299.76 
z
" style="fill:#808080;"/>
   </g>
   <g id="patch_223">
    <path clip-path="url(#p068be16740)" d="M 307.075396 299.76 
L 309.844582 299.76 
L 309.844582 299.76 
L 307.075396 299.76 
z
" style="fill:#808080;"/>
   </g>
   <g id="patch_224">
    <path clip-path="url(#p068be16740)" d="M 310.536878 299.76 
L 313.306064 299.76 
L 313.306064 299.76 
L 310.536878 299.76 
z
" style="fill:#808080;"/>
   </g>
   <g id="patch_225">
    <path clip-path="url(#p068be16740)" d="M 313.998361 299.76 
L 316.767547 299.76 
L 316.767547 299.76 
L 313.998361 299.76 
z
" style="fill:#808080;"/>
   </g>
   <g id="patch_226">
    <path clip-path="url(#p068be16740)" d="M 317.459843 299.76 
L 320.229029 299.76 
L 320.229029 299.76 
L 317.459843 299.76 
z
" style="fill:#808080;"/>
   </g>
   <g id="patch_227">
    <path clip-path="url(#p068be16740)" d="M 320.921325 299.76 
L 323.690511 299.76 
L 323.690511 299.76 
L 320.921325 299.76 
z
" style="fill:#808080;"/>
   </g>
   <g id="patch_228">
    <path clip-path="url(#p068be16740)" d="M 324.382808 299.76 
L 327.151993 299.76 
L 327.151993 299.76 
L 324.382808 299.76 
z
" style="fill:#808080;"/>
   </g>
   <g id="patch_229">
    <path clip-path="url(#p068be16740)" d="M 327.84429 299.76 
L 330.613476 299.76 
L 330.613476 299.76 
L 327.84429 299.76 
z
" style="fill:#808080;"/>
   </g>
   <g id="patch_230">
    <path clip-path="url(#p068be16740)" d="M 331.305772 299.76 
L 334.074958 299.76 
L 334.074958 299.76 
L 331.305772 299.76 
z
" style="fill:#808080;"/>
   </g>
   <g id="patch_231">
    <path clip-path="url(#p068be16740)" d="M 334.767254 299.76 
L 337.53644 299.76 
L 337.53644 299.76 
L 334.767254 299.76 
z
" style="fill:#808080;"/>
   </g>
   <g id="patch_232">
    <path clip-path="url(#p068be16740)" d="M 338.228737 299.76 
L 340.997923 299.76 
L 340.997923 299.76 
L 338.228737 299.76 
z
" style="fill:#808080;"/>
   </g>
   <g id="patch_233">
    <path clip-path="url(#p068be16740)" d="M 341.690219 299.76 
L 344.459405 299.76 
L 344.459405 299.76 
L 341.690219 299.76 
z
" style="fill:#808080;"/>
   </g>
   <g id="patch_234">
    <path clip-path="url(#p068be16740)" d="M 345.151701 299.76 
L 347.920887 299.76 
L 347.920887 299.76 
L 345.151701 299.76 
z
" style="fill:#808080;"/>
   </g>
   <g id="patch_235">
    <path clip-path="url(#p068be16740)" d="M 348.613184 299.76 
L 351.382369 299.76 
L 351.382369 299.76 
L 348.613184 299.76 
z
" style="fill:#808080;"/>
   </g>
   <g id="patch_236">
    <path clip-path="url(#p068be16740)" d="M 352.074666 299.76 
L 354.843852 299.76 
L 354.843852 299.76 
L 352.074666 299.76 
z
" style="fill:#808080;"/>
   </g>
   <g id="patch_237">
    <path clip-path="url(#p068be16740)" d="M 355.536148 299.76 
L 358.305334 299.76 
L 358.305334 299.76 
L 355.536148 299.76 
z
" style="fill:#808080;"/>
   </g>
   <g id="patch_238">
    <path clip-path="url(#p068be16740)" d="M 358.997631 299.76 
L 361.766816 299.76 
L 361.766816 299.76 
L 358.997631 299.76 
z
" style="fill:#808080;"/>
   </g>
   <g id="patch_239">
    <path clip-path="url(#p068be16740)" d="M 362.459113 299.76 
L 365.228299 299.76 
L 365.228299 295.345386 
L 362.459113 295.345386 
z
" style="fill:#808080;"/>
   </g>
   <g id="patch_240">
    <path clip-path="url(#p068be16740)" d="M 365.920595 299.76 
L 368.689781 299.76 
L 368.689781 296.228309 
L 365.920595 296.228309 
z
" style="fill:#808080;"/>
   </g>
   <g id="patch_241">
    <path clip-path="url(#p068be16740)" d="M 369.382077 299.76 
L 372.151263 299.76 
L 372.151263 297.994155 
L 369.382077 297.994155 
z
" style="fill:#808080;"/>
   </g>
   <g id="patch_242">
    <path clip-path="url(#p068be16740)" d="M 372.84356 299.76 
L 375.612746 299.76 
L 375.612746 290.930773 
L 372.84356 290.930773 
z
" style="fill:#808080;"/>
   </g>
   <g id="patch_243">
    <path clip-path="url(#p068be16740)" d="M 376.305042 299.76 
L 379.074228 299.76 
L 379.074228 229.12618 
L 376.305042 229.12618 
z
" style="fill:#808080;"/>
   </g>
   <g id="patch_244">
    <path clip-path="url(#p068be16740)" d="M 379.766524 299.76 
L 382.53571 299.76 
L 382.53571 235.159486 
L 379.766524 235.159486 
z
" style="fill:#808080;"/>
   </g>
   <g id="patch_245">
    <path clip-path="url(#p068be16740)" d="M 383.228007 299.76 
L 385.997192 299.76 
L 385.997192 265.178859 
L 383.228007 265.178859 
z
" style="fill:#808080;"/>
   </g>
   <g id="patch_246">
    <path clip-path="url(#p068be16740)" d="M 386.689489 299.76 
L 389.458675 299.76 
L 389.458675 258.556939 
L 386.689489 258.556939 
z
" style="fill:#808080;"/>
   </g>
   <g id="patch_247">
    <path clip-path="url(#p068be16740)" d="M 390.150971 299.76 
L 392.920157 299.76 
L 392.920157 200.431191 
L 390.150971 200.431191 
z
" style="fill:#808080;"/>
   </g>
   <g id="patch_248">
    <path clip-path="url(#p068be16740)" d="M 393.612453 299.76 
L 396.381639 299.76 
L 396.381639 271.065011 
L 393.612453 271.065011 
z
" style="fill:#808080;"/>
   </g>
   <g id="patch_249">
    <path clip-path="url(#p068be16740)" d="M 397.073936 299.76 
L 399.843122 299.76 
L 399.843122 286.516159 
L 397.073936 286.516159 
z
" style="fill:#808080;"/>
   </g>
   <g id="patch_250">
    <path clip-path="url(#p068be16740)" d="M 400.535418 299.76 
L 403.304604 299.76 
L 403.304604 282.101545 
L 400.535418 282.101545 
z
" style="fill:#808080;"/>
   </g>
   <g id="patch_251">
    <path clip-path="url(#p068be16740)" d="M 403.9969 299.76 
L 406.766086 299.76 
L 406.766086 290.930773 
L 403.9969 290.930773 
z
" style="fill:#808080;"/>
   </g>
   <g id="patch_252">
    <path clip-path="url(#p068be16740)" d="M 407.458383 299.76 
L 410.227568 299.76 
L 410.227568 290.930773 
L 407.458383 290.930773 
z
" style="fill:#808080;"/>
   </g>
   <g id="patch_253">
    <path clip-path="url(#p068be16740)" d="M 410.919865 299.76 
L 413.689051 299.76 
L 413.689051 290.930773 
L 410.919865 290.930773 
z
" style="fill:#808080;"/>
   </g>
   <g id="patch_254">
    <path clip-path="url(#p068be16740)" d="M 414.381347 299.76 
L 417.150533 299.76 
L 417.150533 299.76 
L 414.381347 299.76 
z
" style="fill:#808080;"/>
   </g>
   <g id="patch_255">
    <path clip-path="url(#p068be16740)" d="M 417.842829 299.76 
L 420.612015 299.76 
L 420.612015 299.76 
L 417.842829 299.76 
z
" style="fill:#808080;"/>
   </g>
   <g id="patch_256">
    <path clip-path="url(#p068be16740)" d="M 421.304312 299.76 
L 424.073498 299.76 
L 424.073498 299.76 
L 421.304312 299.76 
z
" style="fill:#808080;"/>
   </g>
   <g id="patch_257">
    <path clip-path="url(#p068be16740)" d="M 424.765794 299.76 
L 427.53498 299.76 
L 427.53498 299.76 
L 424.765794 299.76 
z
" style="fill:#808080;"/>
   </g>
   <g id="patch_258">
    <path clip-path="url(#p068be16740)" d="M 428.227276 299.76 
L 430.996462 299.76 
L 430.996462 299.76 
L 428.227276 299.76 
z
" style="fill:#808080;"/>
   </g>
   <g id="patch_259">
    <path clip-path="url(#p068be16740)" d="M 431.688759 299.76 
L 434.457945 299.76 
L 434.457945 299.76 
L 431.688759 299.76 
z
" style="fill:#808080;"/>
   </g>
   <g id="patch_260">
    <path clip-path="url(#p068be16740)" d="M 435.150241 299.76 
L 437.919427 299.76 
L 437.919427 299.76 
L 435.150241 299.76 
z
" style="fill:#808080;"/>
   </g>
   <g id="patch_261">
    <path clip-path="url(#p068be16740)" d="M 438.611723 299.76 
L 441.380909 299.76 
L 441.380909 299.76 
L 438.611723 299.76 
z
" style="fill:#808080;"/>
   </g>
   <g id="matplotlib.axis_7">
    <g id="xtick_19">
     <g id="line2d_30">
      <g>
       <use style="stroke:#000000;stroke-width:0.8;" x="268.652943" xlink:href="#me78f6007a9" y="300.76"/>
      </g>
     </g>
     <g id="text_35">
      <!-- 4 -->
      <g transform="translate(261.281849 315.358437)scale(0.1 -0.1)">
       <use xlink:href="#DejaVuSans-8722"/>
       <use x="83.789062" xlink:href="#DejaVuSans-52"/>
      </g>
     </g>
    </g>
    <g id="xtick_20">
     <g id="line2d_31">
      <g>
       <use style="stroke:#000000;stroke-width:0.8;" x="303.267766" xlink:href="#me78f6007a9" y="300.76"/>
      </g>
     </g>
     <g id="text_36">
      <!-- 3 -->
      <g transform="translate(295.896672 315.358437)scale(0.1 -0.1)">
       <use xlink:href="#DejaVuSans-8722"/>
       <use x="83.789062" xlink:href="#DejaVuSans-51"/>
      </g>
     </g>
    </g>
    <g id="xtick_21">
     <g id="line2d_32">
      <g>
       <use style="stroke:#000000;stroke-width:0.8;" x="337.882589" xlink:href="#me78f6007a9" y="300.76"/>
      </g>
     </g>
     <g id="text_37">
      <!-- 2 -->
      <g transform="translate(330.511495 315.358437)scale(0.1 -0.1)">
       <use xlink:href="#DejaVuSans-8722"/>
       <use x="83.789062" xlink:href="#DejaVuSans-50"/>
      </g>
     </g>
    </g>
    <g id="xtick_22">
     <g id="line2d_33">
      <g>
       <use style="stroke:#000000;stroke-width:0.8;" x="372.497411" xlink:href="#me78f6007a9" y="300.76"/>
      </g>
     </g>
     <g id="text_38">
      <!-- 1 -->
      <g transform="translate(365.126318 315.358437)scale(0.1 -0.1)">
       <use xlink:href="#DejaVuSans-8722"/>
       <use x="83.789062" xlink:href="#DejaVuSans-49"/>
      </g>
     </g>
    </g>
    <g id="xtick_23">
     <g id="line2d_34">
      <g>
       <use style="stroke:#000000;stroke-width:0.8;" x="407.112234" xlink:href="#me78f6007a9" y="300.76"/>
      </g>
     </g>
     <g id="text_39">
      <!-- 0 -->
      <g transform="translate(403.930984 315.358437)scale(0.1 -0.1)">
       <use xlink:href="#DejaVuSans-48"/>
      </g>
     </g>
    </g>
    <g id="xtick_24">
     <g id="line2d_35">
      <g>
       <use style="stroke:#000000;stroke-width:0.8;" x="441.727057" xlink:href="#me78f6007a9" y="300.76"/>
      </g>
     </g>
     <g id="text_40">
      <!-- 1 -->
      <g transform="translate(438.545807 315.358437)scale(0.1 -0.1)">
       <use xlink:href="#DejaVuSans-49"/>
      </g>
     </g>
    </g>
    <g id="text_41">
     <!-- $\log_{10}\omega$ -->
     <defs>
      <path d="M 21.390625 -1.421875 
Q 1.125 -1.421875 6.78125 27.59375 
Q 8.984375 39.0625 19.625 54.6875 
L 29.296875 54.6875 
Q 19.234375 39.0625 17 27.34375 
Q 12.796875 6.203125 23.734375 6.203125 
Q 33.84375 6.203125 38.71875 32.46875 
L 47.015625 32.46875 
Q 41.703125 6.0625 51.8125 6.203125 
Q 62.703125 6.296875 66.796875 27.34375 
Q 69.046875 39.0625 65.140625 54.6875 
L 74.8125 54.6875 
Q 79.296875 39.0625 77.09375 27.59375 
Q 71.53125 -1.46875 51.21875 -1.421875 
Q 37.9375 -1.375 39.109375 13.1875 
Q 34.28125 -1.421875 21.390625 -1.421875 
z
" id="DejaVuSans-Oblique-969"/>
     </defs>
     <g transform="translate(338.74 329.038125)scale(0.1 -0.1)">
      <use transform="translate(0 0.015625)" xlink:href="#DejaVuSans-108"/>
      <use transform="translate(27.783203 0.015625)" xlink:href="#DejaVuSans-111"/>
      <use transform="translate(88.964844 0.015625)" xlink:href="#DejaVuSans-103"/>
      <use transform="translate(153.398438 -16.390625)scale(0.7)" xlink:href="#DejaVuSans-49"/>
      <use transform="translate(197.93457 -16.390625)scale(0.7)" xlink:href="#DejaVuSans-48"/>
      <use transform="translate(245.205078 0.015625)" xlink:href="#DejaVuSans-Oblique-969"/>
     </g>
    </g>
   </g>
   <g id="matplotlib.axis_8">
    <g id="ytick_12">
     <g id="line2d_36">
      <g>
       <use style="stroke:#000000;stroke-width:0.8;" x="259.38" xlink:href="#mb8c0272d50" y="299.76"/>
      </g>
     </g>
     <g id="text_42">
      <!-- 0.0 -->
      <defs>
       <path d="M 10.6875 12.40625 
L 21 12.40625 
L 21 0 
L 10.6875 0 
z
" id="DejaVuSans-46"/>
      </defs>
      <g transform="translate(236.476875 303.559219)scale(0.1 -0.1)">
       <use xlink:href="#DejaVuSans-48"/>
       <use x="63.623047" xlink:href="#DejaVuSans-46"/>
       <use x="95.410156" xlink:href="#DejaVuSans-48"/>
      </g>
     </g>
    </g>
    <g id="ytick_13">
     <g id="line2d_37">
      <g>
       <use style="stroke:#000000;stroke-width:0.8;" x="259.38" xlink:href="#mb8c0272d50" y="277.686931"/>
      </g>
     </g>
     <g id="text_43">
      <!-- 2.5 -->
      <g transform="translate(236.476875 281.48615)scale(0.1 -0.1)">
       <use xlink:href="#DejaVuSans-50"/>
       <use x="63.623047" xlink:href="#DejaVuSans-46"/>
       <use x="95.410156" xlink:href="#DejaVuSans-53"/>
      </g>
     </g>
    </g>
    <g id="ytick_14">
     <g id="line2d_38">
      <g>
       <use style="stroke:#000000;stroke-width:0.8;" x="259.38" xlink:href="#mb8c0272d50" y="255.613863"/>
      </g>
     </g>
     <g id="text_44">
      <!-- 5.0 -->
      <g transform="translate(236.476875 259.413082)scale(0.1 -0.1)">
       <use xlink:href="#DejaVuSans-53"/>
       <use x="63.623047" xlink:href="#DejaVuSans-46"/>
       <use x="95.410156" xlink:href="#DejaVuSans-48"/>
      </g>
     </g>
    </g>
    <g id="ytick_15">
     <g id="line2d_39">
      <g>
       <use style="stroke:#000000;stroke-width:0.8;" x="259.38" xlink:href="#mb8c0272d50" y="233.540794"/>
      </g>
     </g>
     <g id="text_45">
      <!-- 7.5 -->
      <defs>
       <path d="M 8.203125 72.90625 
L 55.078125 72.90625 
L 55.078125 68.703125 
L 28.609375 0 
L 18.3125 0 
L 43.21875 64.59375 
L 8.203125 64.59375 
z
" id="DejaVuSans-55"/>
      </defs>
      <g transform="translate(236.476875 237.340013)scale(0.1 -0.1)">
       <use xlink:href="#DejaVuSans-55"/>
       <use x="63.623047" xlink:href="#DejaVuSans-46"/>
       <use x="95.410156" xlink:href="#DejaVuSans-53"/>
      </g>
     </g>
    </g>
    <g id="ytick_16">
     <g id="line2d_40">
      <g>
       <use style="stroke:#000000;stroke-width:0.8;" x="259.38" xlink:href="#mb8c0272d50" y="211.467726"/>
      </g>
     </g>
     <g id="text_46">
      <!-- 10.0 -->
      <g transform="translate(230.114375 215.266944)scale(0.1 -0.1)">
       <use xlink:href="#DejaVuSans-49"/>
       <use x="63.623047" xlink:href="#DejaVuSans-48"/>
       <use x="127.246094" xlink:href="#DejaVuSans-46"/>
       <use x="159.033203" xlink:href="#DejaVuSans-48"/>
      </g>
     </g>
    </g>
   </g>
   <g id="patch_262">
    <path d="M 259.38 299.76 
L 259.38 195.464751 
" style="fill:none;stroke:#000000;stroke-linecap:square;stroke-linejoin:miter;stroke-width:0.8;"/>
   </g>
   <g id="patch_263">
    <path d="M 260.38 300.76 
L 450 300.76 
" style="fill:none;stroke:#000000;stroke-linecap:square;stroke-linejoin:miter;stroke-width:0.8;"/>
   </g>
  </g>
  <g id="text_47">
   <!-- egu1000.fasta.tsv -->
   <defs>
    <path d="M 56.203125 29.59375 
L 56.203125 25.203125 
L 14.890625 25.203125 
Q 15.484375 15.921875 20.484375 11.0625 
Q 25.484375 6.203125 34.421875 6.203125 
Q 39.59375 6.203125 44.453125 7.46875 
Q 49.3125 8.734375 54.109375 11.28125 
L 54.109375 2.78125 
Q 49.265625 0.734375 44.1875 -0.34375 
Q 39.109375 -1.421875 33.890625 -1.421875 
Q 20.796875 -1.421875 13.15625 6.1875 
Q 5.515625 13.8125 5.515625 26.8125 
Q 5.515625 40.234375 12.765625 48.109375 
Q 20.015625 56 32.328125 56 
Q 43.359375 56 49.78125 48.890625 
Q 56.203125 41.796875 56.203125 29.59375 
z
M 47.21875 32.234375 
Q 47.125 39.59375 43.09375 43.984375 
Q 39.0625 48.390625 32.421875 48.390625 
Q 24.90625 48.390625 20.390625 44.140625 
Q 15.875 39.890625 15.1875 32.171875 
z
" id="DejaVuSans-101"/>
    <path d="M 37.109375 75.984375 
L 37.109375 68.5 
L 28.515625 68.5 
Q 23.6875 68.5 21.796875 66.546875 
Q 19.921875 64.59375 19.921875 59.515625 
L 19.921875 54.6875 
L 34.71875 54.6875 
L 34.71875 47.703125 
L 19.921875 47.703125 
L 19.921875 0 
L 10.890625 0 
L 10.890625 47.703125 
L 2.296875 47.703125 
L 2.296875 54.6875 
L 10.890625 54.6875 
L 10.890625 58.5 
Q 10.890625 67.625 15.140625 71.796875 
Q 19.390625 75.984375 28.609375 75.984375 
z
" id="DejaVuSans-102"/>
    <path d="M 2.984375 54.6875 
L 12.5 54.6875 
L 29.59375 8.796875 
L 46.6875 54.6875 
L 56.203125 54.6875 
L 35.6875 0 
L 23.484375 0 
z
" id="DejaVuSans-118"/>
   </defs>
   <g transform="translate(57.6 43.678125)scale(0.12 -0.12)">
    <use xlink:href="#DejaVuSans-101"/>
    <use x="61.523438" xlink:href="#DejaVuSans-103"/>
    <use x="125" xlink:href="#DejaVuSans-117"/>
    <use x="188.378906" xlink:href="#DejaVuSans-49"/>
    <use x="252.001953" xlink:href="#DejaVuSans-48"/>
    <use x="315.625" xlink:href="#DejaVuSans-48"/>
    <use x="379.248047" xlink:href="#DejaVuSans-48"/>
    <use x="442.871094" xlink:href="#DejaVuSans-46"/>
    <use x="474.658203" xlink:href="#DejaVuSans-102"/>
    <use x="509.863281" xlink:href="#DejaVuSans-97"/>
    <use x="571.142578" xlink:href="#DejaVuSans-115"/>
    <use x="623.242188" xlink:href="#DejaVuSans-116"/>
    <use x="662.451172" xlink:href="#DejaVuSans-97"/>
    <use x="723.730469" xlink:href="#DejaVuSans-46"/>
    <use x="755.517578" xlink:href="#DejaVuSans-116"/>
    <use x="794.726562" xlink:href="#DejaVuSans-115"/>
    <use x="846.826172" xlink:href="#DejaVuSans-118"/>
   </g>
  </g>
 </g>
 <defs>
  <clipPath id="pa3f6d1a0ec">
   <rect height="104.295249" width="189.62" x="39.27" y="51.84"/>
  </clipPath>
  <clipPath id="p10bb649cfb">
   <rect height="104.295249" width="189.62" x="260.38" y="51.84"/>
  </clipPath>
  <clipPath id="p856ca83c8d">
   <rect height="104.295249" width="189.62" x="39.27" y="195.464751"/>
  </clipPath>
  <clipPath id="p068be16740">
   <rect height="104.295249" width="189.62" x="260.38" y="195.464751"/>
  </clipPath>
 </defs>
</svg>
